<?xml version="1.0" encoding="UTF-8"?>
<svg version="1.1" xmlns="http://www.w3.org/2000/svg" width="512" height="512">
<path d="M0 0 C1.42731921 -0.00573832 1.42731921 -0.00573832 2.88347316 -0.01159257 C6.05003795 -0.0218549 9.21641914 -0.0179434 12.38299561 -0.01396179 C14.66189745 -0.01831183 16.94079783 -0.02349595 19.21969604 -0.02944946 C25.3928722 -0.04281462 31.56598704 -0.04342123 37.73917484 -0.04088616 C42.89373095 -0.03981545 48.04827471 -0.04470204 53.20282817 -0.04949158 C66.05264128 -0.06120994 78.90241036 -0.06036643 91.75222406 -0.05393478 C102.90953351 -0.04875916 114.06675583 -0.06004099 125.22404805 -0.07903299 C136.69060556 -0.0984015 148.15710575 -0.10637797 159.62368274 -0.10290974 C166.05739306 -0.10109472 172.49102344 -0.10375556 178.92472076 -0.11762428 C184.96910816 -0.13016745 191.01332033 -0.12829182 197.05770493 -0.11521339 C199.27771691 -0.11284095 201.49774111 -0.11560605 203.71773911 -0.12383652 C206.74383476 -0.13424842 209.76933626 -0.12624809 212.79541016 -0.11352539 C213.67740688 -0.12089968 214.5594036 -0.12827396 215.46812749 -0.13587171 C222.55284402 -0.07303724 226.17037668 2.04214967 231.18626404 7.04252625 C231.95593506 7.80511246 232.72560608 8.56769867 233.51860046 9.35339355 C234.3483992 10.18566971 235.17819794 11.01794586 236.03314209 11.8754425 C236.91823456 12.75542404 237.80332703 13.63540558 238.71524048 14.54205322 C241.13416301 16.9494761 243.54848626 19.36132625 245.96039176 21.7757678 C247.97657379 23.79302151 249.99572886 25.80728643 252.01483852 27.82160914 C256.77801399 32.57370231 261.53585702 37.33108843 266.29046631 42.0917511 C271.19248709 46.99981684 276.10362492 51.89862231 281.0192973 56.79301202 C285.2439228 61.00001924 289.46271579 65.21281336 293.67691356 69.43026602 C296.19202878 71.94719325 298.7093126 74.4618496 301.23227501 76.97091293 C304.04417575 79.76789955 306.84387413 82.576906 309.64251709 85.38716125 C310.47838852 86.21538895 311.31425995 87.04361664 312.17546082 87.89694214 C312.93667236 88.665168 313.69788391 89.43339386 314.48216248 90.22489929 C315.14489009 90.88745916 315.8076177 91.55001904 316.49042797 92.23265648 C319.68404989 96.15012718 320.39438831 99.84303844 320.418396 104.79780579 C320.42792801 105.88243103 320.43746002 106.96705627 320.44728088 108.08454895 C320.44591377 109.82689819 320.44591377 109.82689819 320.44451904 111.60444641 C320.44880417 112.80629578 320.45308929 114.00814514 320.45750427 115.24641418 C320.46324163 117.78485993 320.46375222 120.32332211 320.45941162 122.86177063 C320.45624949 126.74633264 320.47972708 130.63013465 320.50506592 134.51460266 C320.50733872 136.98204962 320.50804249 139.44949862 320.50701904 141.91694641 C320.51622879 143.07851257 320.52543854 144.24007874 320.53492737 145.43684387 C320.52558418 147.06378174 320.52558418 147.06378174 320.51605225 148.72358704 C320.51668167 149.67447205 320.5173111 150.62535706 320.51795959 151.60505676 C320.06661669 154.80798111 319.04315824 156.6597058 317.14373779 159.26069641 C314.14373779 161.26069641 314.14373779 161.26069641 310.64373779 161.07319641 C307.12538599 160.25643617 306.21028579 160.03976202 304.14373779 157.26069641 C303.78297424 155.03970337 303.78297424 155.03970337 303.80316162 152.42207336 C303.80338821 151.44128311 303.80361481 150.46049286 303.80384827 149.44998169 C303.81933212 148.39365036 303.83481598 147.33731903 303.85076904 146.24897766 C303.85501389 145.1656163 303.85925873 144.08225494 303.8636322 142.96606445 C303.8804421 139.50152364 303.91809931 136.03756179 303.95623779 132.57319641 C303.97128161 130.2261996 303.98497054 127.87919367 303.99725342 125.53218079 C304.03035318 119.77482136 304.08057574 114.01780024 304.14373779 108.26069641 C303.23664566 108.26957886 302.32955353 108.2784613 301.39497375 108.28761292 C292.81831748 108.36798521 284.24178893 108.42877551 275.66484165 108.4679451 C271.25603137 108.4887601 266.84753403 108.51696535 262.43890381 108.56245422 C258.17893871 108.60613071 253.91927334 108.62987924 249.65910149 108.64020538 C248.03928857 108.64755785 246.41949082 108.66191508 244.79980659 108.68361664 C235.0917007 108.80843927 226.59761744 108.84049852 218.80389404 102.29585266 C218.0130542 101.31938782 218.0130542 101.31938782 217.20623779 100.32319641 C216.66096436 99.67479797 216.11569092 99.02639954 215.55389404 98.35835266 C212.37945878 93.63627029 211.85791917 89.39310116 211.91668701 83.80830383 C211.91639496 83.07605591 211.91610291 82.34380798 211.915802 81.58937073 C211.91718959 79.18151283 211.93272362 76.77396866 211.94842529 74.36616516 C211.95215746 72.69179453 211.95500347 71.0174217 211.95700073 69.3430481 C211.96462117 64.94537786 211.98425595 60.54784062 212.00640869 56.15022278 C212.02690141 51.65907083 212.03600977 47.1678973 212.04608154 42.67671204 C212.06750339 33.87131259 212.10162008 25.06602107 212.14373779 16.26069641 C183.53608771 16.29789328 154.92856273 16.3577987 126.32101822 16.44459915 C113.03746406 16.48437674 99.75400533 16.51677577 86.47039795 16.5316925 C74.88989174 16.54471559 63.30951571 16.57169728 51.72908282 16.61530948 C45.59961598 16.63790923 39.47030962 16.65360796 33.34079742 16.65258026 C27.5656325 16.65183279 21.79082214 16.66981911 16.01574898 16.70186424 C13.90190563 16.71034805 11.78802243 16.71212356 9.67416954 16.7064991 C-4.19703738 16.67452146 -16.76913305 16.83363378 -27.88751221 26.28022766 C-36.88373302 35.32999741 -39.23207853 45.33548121 -39.25749242 57.76653379 C-39.25100773 59.29347408 -39.24423783 60.82041318 -39.23721313 62.34735107 C-39.24067283 63.98554056 -39.24543949 65.62372771 -39.25139487 67.26191002 C-39.26389175 71.7487583 -39.25774044 76.23541458 -39.24843621 80.72226346 C-39.24164064 85.56693566 -39.25212951 90.41157516 -39.26037598 95.25624084 C-39.27371036 104.74139741 -39.27083678 114.22648273 -39.26213805 123.71164208 C-39.25536037 131.42158836 -39.25444516 139.13151468 -39.2577095 146.84146309 C-39.2581692 147.93917486 -39.2586289 149.03688664 -39.25910253 150.1678624 C-39.26006172 152.39792029 -39.26103436 154.62797817 -39.2620203 156.85803605 C-39.27057344 177.76586032 -39.26074146 198.67364513 -39.24461921 219.58146293 C-39.23121797 237.51565753 -39.23354267 255.44979388 -39.24737549 273.38398743 C-39.26343586 294.2159218 -39.2697475 315.04782158 -39.2605387 335.87976128 C-39.25958306 338.10187884 -39.25863995 340.3239964 -39.2577095 342.54611397 C-39.25724668 343.63940373 -39.25678385 344.7326935 -39.256307 345.85911326 C-39.25371835 353.55798457 -39.25808546 361.25683392 -39.26514816 368.95570183 C-39.27356851 378.34073202 -39.27127181 387.72568694 -39.25530593 397.11070853 C-39.24743017 401.89775694 -39.24431979 406.68467993 -39.25425339 411.47172737 C-39.26321524 415.85686471 -39.25824289 420.2417608 -39.24232073 424.62687636 C-39.23897922 426.21021786 -39.24065279 427.79357989 -39.2479481 429.37690812 C-39.30404647 442.56761149 -37.9210355 453.12844982 -28.85626221 463.26069641 C-21.3565528 469.55462215 -12.74542509 473.3775649 -2.89609241 473.39212418 C-1.9169534 473.39596532 -0.93781438 473.39980647 0.07099551 473.40376401 C1.67311569 473.40246429 1.67311569 473.40246429 3.30760193 473.40113831 C5.01851862 473.40559499 5.01851862 473.40559499 6.76399928 473.41014171 C10.59460636 473.41882886 14.42518219 473.42033698 18.25579834 473.42182922 C20.99889815 473.42591998 23.74199468 473.43146151 26.48509216 473.43687439 C33.9439057 473.45044552 41.40271386 473.45648058 48.86153769 473.46088505 C53.52092652 473.46364963 58.18031327 473.46788738 62.8397007 473.47238922 C75.74602344 473.48458047 88.65234453 473.49487996 101.5586729 473.49826431 C102.38441283 473.49848388 103.21015275 473.49870344 104.0609151 473.49892966 C104.88860544 473.49914794 105.71629579 473.49936622 106.56906766 473.49959111 C108.24622007 473.50003457 109.92337249 473.50048114 111.6005249 473.50093079 C112.43244643 473.50115222 113.26436795 473.50137365 114.12149922 473.50160179 C127.59715836 473.50554856 141.07276338 473.52299956 154.54840162 473.54629031 C168.39126226 473.57002216 182.23409577 473.582467 196.07697707 473.58363223 C203.84614975 473.58454798 211.61525192 473.59027499 219.38440514 473.60845184 C226.00090652 473.62387762 232.6173156 473.62895873 239.23383155 473.62071374 C242.60728551 473.61681588 245.98040313 473.61933733 249.35385895 473.63177109 C253.01771697 473.6444818 256.68110056 473.63861789 260.34495544 473.62818909 C261.40188195 473.63624549 262.45880846 473.6443019 263.54776305 473.65260243 C275.22400492 473.57505119 284.48032005 470.38419295 293.12030029 462.44429016 C300.9359264 454.21293926 303.28548531 444.50059828 303.30145264 433.41279602 C303.30653336 432.63820541 303.31161407 431.86361481 303.31684875 431.06555176 C303.32751765 429.38992363 303.33615136 427.71428157 303.34296799 426.03863335 C303.35479377 423.38646965 303.37425347 420.73446608 303.39608765 418.08236694 C303.45759839 410.54412646 303.51181957 403.00590585 303.54510498 395.46748352 C303.56603248 390.85152402 303.60131212 386.23586263 303.64586258 381.62007332 C303.66002924 379.86223923 303.66874652 378.10435247 303.67191696 376.34646416 C303.67681797 373.89039161 303.69995149 371.43511369 303.72723389 368.97920227 C303.72422775 368.25337952 303.72122162 367.52755676 303.71812439 366.77973938 C303.7858116 362.68295787 304.14699144 360.16485665 307.14373779 357.26069641 C310.08009194 356.17888172 311.72446527 356.16086962 314.76873779 356.88569641 C317.80846462 358.64553826 318.62852764 360.09469909 320.14373779 363.26069641 C320.51795959 366.65974426 320.51795959 366.65974426 320.51605225 370.59858704 C320.51970291 371.31970673 320.52335358 372.04082642 320.52711487 372.78379822 C320.53520155 375.16175608 320.52161567 377.53902781 320.50701904 379.91694641 C320.50649976 381.58259582 320.50702011 383.24824585 320.50852966 384.91389465 C320.50843999 388.40751791 320.4980299 391.90091019 320.47991943 395.39448547 C320.45737359 399.83793726 320.45666321 404.28104765 320.46343708 408.72454071 C320.46680775 412.16844121 320.46008696 415.61226625 320.45030785 419.05615234 C320.44649802 420.6921448 320.44528981 422.32814574 320.44689369 423.96414185 C320.45017178 443.98312556 318.17184628 460.53253928 303.92889404 475.60444641 C291.79181467 487.40711679 277.69568695 490.57595292 261.2983551 490.52812195 C260.14474902 490.53265306 258.99114294 490.53718417 257.8025791 490.54185259 C253.95767985 490.55445864 250.11292294 490.55287865 246.26800537 490.55122375 C243.50272085 490.55612783 240.73744616 490.56396148 237.97216797 490.57157898 C231.25211836 490.58814101 224.53210386 490.59368635 217.81203554 490.59480374 C212.34519706 490.59575653 206.8783701 490.59987832 201.41153526 490.60620499 C185.88607531 490.62380459 170.36064293 490.63304591 154.83517293 490.63154404 C153.99944806 490.63146413 153.1637232 490.63138421 152.30267334 490.63130188 C151.46591903 490.63122012 150.62916472 490.63113836 149.76705422 490.63105412 C136.2142364 490.63024166 122.66152984 490.64937248 109.10874418 490.67757861 C95.16738427 490.70636273 81.22607853 490.72011586 67.28468817 490.71839106 C59.46790501 490.71772905 51.65123847 490.72313814 43.83448219 490.74474716 C37.1779616 490.76303194 30.52161051 490.76724686 23.86507557 490.75372832 C20.47468449 490.74723493 17.08488086 490.7491569 13.69447899 490.76443481 C-7.18178113 490.85237616 -24.87723308 490.09188661 -40.98126221 475.22163391 C-50.9723548 464.77261624 -55.97280693 451.69535355 -55.98768997 437.321805 C-55.98974261 436.6445164 -55.99179524 435.96722779 -55.99391007 435.26941529 C-55.99956144 433.00146065 -55.99812514 430.73356711 -55.9967041 428.46560669 C-55.9992888 426.82247192 -56.00230226 425.17933779 -56.0057075 423.53620452 C-56.01376835 419.02176626 -56.01556656 414.5073439 -56.01630497 409.9928993 C-56.0181571 405.12362389 -56.02570523 400.25435671 -56.03244019 395.38508606 C-56.04601729 384.73834924 -56.05204719 374.09161618 -56.05645084 363.44487214 C-56.05921418 356.79629261 -56.06345169 350.14771452 -56.06795502 343.49913597 C-56.08014662 325.08889895 -56.09044631 306.6786631 -56.09383011 288.26842213 C-56.09404967 287.09032315 -56.09426924 285.91222416 -56.09449546 284.69842521 C-56.09471374 283.51751962 -56.09493202 282.33661403 -56.09515691 281.11992341 C-56.09560037 278.72698772 -56.09604694 276.33405203 -56.09649658 273.94111633 C-56.09671801 272.75413946 -56.09693944 271.56716259 -56.09716758 270.34421673 C-56.10111562 251.11086242 -56.11857032 231.877546 -56.1418561 212.64420632 C-56.16557366 192.89473502 -56.17803214 173.14528273 -56.17919803 153.39579695 C-56.18011453 142.30834654 -56.18586074 131.22094549 -56.20401764 120.13350868 C-56.21942402 110.69244953 -56.22453587 101.25145501 -56.21627954 91.81038568 C-56.21237503 86.99487389 -56.21329297 82.17949225 -56.22733688 77.36399651 C-56.24008747 72.95155925 -56.23886811 68.53934979 -56.22674617 64.1269128 C-56.22479119 62.53471098 -56.22785838 60.94249295 -56.23659053 59.35031388 C-56.32217894 42.68295831 -52.89111292 27.71670895 -41.05157471 15.29194641 C-29.3374357 4.45324128 -15.75296228 -0.06819073 0 0 Z M228.14373779 28.26069641 C228.02783767 36.01449349 227.9390202 43.76808734 227.88467693 51.52253342 C227.85859307 55.12339137 227.82321987 58.72365633 227.76654053 62.32417297 C227.7121734 65.79959682 227.68230813 69.27445073 227.66935158 72.75026703 C227.65562963 74.72022315 227.61660294 76.68995023 227.57725525 78.65956116 C227.57687759 79.86050415 227.57649994 81.06144714 227.57611084 82.29878235 C227.56500778 83.35579346 227.55390472 84.41280457 227.54246521 85.50184631 C227.93789804 88.43397279 227.93789804 88.43397279 230.30523682 90.60493469 C233.56837586 92.50839739 235.37516162 92.74693689 239.12738037 92.71479797 C240.30822708 92.71449585 241.48907379 92.71419373 242.70570374 92.71388245 C243.97045029 92.6932373 245.23519684 92.67259216 246.53826904 92.65132141 C248.49200691 92.64283173 248.49200691 92.64283173 250.48521423 92.63417053 C253.9361988 92.6189493 257.38650242 92.57969957 260.83721924 92.53535461 C264.36312652 92.49432499 267.8891446 92.47614323 271.41522217 92.45600891 C278.32500586 92.41320056 285.23433907 92.34499292 292.14373779 92.26069641 C288.3487118 87.73012159 284.43271172 83.40365364 280.24603271 79.2335968 C279.69080933 78.67662109 279.13558594 78.11964539 278.5635376 77.54579163 C276.75291078 75.73081193 274.93870921 73.91945688 273.12420654 72.10835266 C271.85707744 70.84054921 270.59009676 69.57259741 269.32325745 68.30450439 C266.6814608 65.66124019 264.03788042 63.01977671 261.39300537 60.3795929 C257.99541129 56.98773073 254.60237344 53.59135158 251.21062756 50.19364262 C248.60202486 47.58143869 245.99106047 44.97160587 243.37935829 42.36250114 C242.1262392 41.11005073 240.87386691 39.85685267 239.62224388 38.60290718 C237.88205264 36.86019285 236.13871716 35.12068803 234.39447021 33.3820343 C233.61451439 32.59904213 233.61451439 32.59904213 232.81880188 31.80023193 C230.82292503 29.3438607 230.82292503 29.3438607 228.14373779 28.26069641 Z " fill="#848484" transform="translate(67.85626220703125,10.739303588867188)"/>
<path d="M0 0 C8.92299419 7.05310203 15.58155614 16.04157928 17.87890625 27.43359375 C19.47349835 41.98741049 17.10134705 54.50916678 8.1875 66.2265625 C5.87596306 69.08296172 3.51239882 71.88639398 1.125 74.6796875 C-0.2594291 76.31056992 -1.64218208 77.94286398 -3.02490234 79.57519531 C-3.96836504 80.68856609 -4.91270476 81.80119426 -5.85791016 82.91308594 C-9.2514771 86.91319807 -12.53620105 90.98914707 -15.79296875 95.1015625 C-18.20584092 98.08935918 -20.69296079 101.01024947 -23.1875 103.9296875 C-26.99243964 108.38607694 -30.66302479 112.92137554 -34.25 117.5546875 C-38.65507931 123.23815011 -43.29414987 128.67202162 -48.03857422 134.07373047 C-51.62322349 138.1763865 -55.04605075 142.36762751 -58.375 146.6796875 C-62.73444386 152.32656946 -67.33200447 157.71524423 -72.0390625 163.07421875 C-75.62348232 167.1767656 -79.04619207 171.36781056 -82.375 175.6796875 C-86.73444386 181.32656946 -91.33200447 186.71524423 -96.0390625 192.07421875 C-99.62349196 196.17677664 -103.0460325 200.36792257 -106.375 204.6796875 C-111.71544945 211.59265182 -117.39900521 218.17928185 -123.17504883 224.73022461 C-124.84775844 226.56368886 -124.84775844 226.56368886 -125.94644165 228.28842163 C-130.53501496 234.6313395 -136.53295902 236.18575655 -143.796875 238.4140625 C-145.05203918 238.8187677 -146.30720337 239.2234729 -147.60040283 239.64044189 C-150.92428594 240.71174358 -154.25625023 241.75528062 -157.59069824 242.79315186 C-160.95655392 243.84633244 -164.31372985 244.92644827 -167.671875 246.00390625 C-174.72939763 248.26205285 -181.79603223 250.48955754 -188.875 252.6796875 C-189.83925903 252.97991821 -190.80351807 253.28014893 -191.79699707 253.58947754 C-193.12193176 253.9961969 -193.12193176 253.9961969 -194.47363281 254.41113281 C-195.23540833 254.6458429 -195.99718384 254.88055298 -196.78204346 255.12237549 C-199.99970005 255.97917238 -202.58603569 256.20592179 -205.875 255.6796875 C-208.59708301 253.04983237 -209.79501173 251.50128128 -210.16552734 247.69555664 C-210.0567627 246.52629639 -209.94799805 245.35703613 -209.8359375 244.15234375 C-209.7475209 243.13951073 -209.7475209 243.13951073 -209.65731812 242.10621643 C-209.42694357 239.62672254 -209.15365358 237.15422226 -208.875 234.6796875 C-208.76353638 233.6576825 -208.65207275 232.63567749 -208.53723145 231.58270264 C-207.74085101 224.35813044 -206.87417667 217.14367135 -205.97363281 209.93139648 C-205.49730871 206.09551432 -205.03749574 202.25786669 -204.578125 198.41992188 C-204.27444139 195.96341735 -203.96978864 193.5070324 -203.6640625 191.05078125 C-203.52956696 189.91217148 -203.39507141 188.77356171 -203.25650024 187.60044861 C-202.33227394 180.37254676 -201.26836888 173.89324397 -196.23828125 168.28515625 C-195.7477124 167.72755615 -195.25714355 167.16995605 -194.75170898 166.59545898 C-194.23552002 166.02512939 -193.71933105 165.4547998 -193.1875 164.8671875 C-192.10028095 163.63394112 -191.01434568 162.3995618 -189.9296875 161.1640625 C-189.40342773 160.56787109 -188.87716797 159.97167969 -188.33496094 159.35742188 C-186.42555056 157.16319643 -184.6120231 154.90205915 -182.8125 152.6171875 C-179.76290542 148.75774208 -176.62403856 144.98832398 -173.4375 141.2421875 C-168.5092609 135.44729602 -163.6733991 129.58275402 -158.875 123.6796875 C-154.14183775 117.85687639 -149.37083427 112.07498202 -144.5 106.3671875 C-140.71719049 101.93107941 -137.06954378 97.41378489 -133.5 92.8046875 C-129.09480687 87.12130772 -124.45585649 81.68736062 -119.71142578 76.28564453 C-116.12676925 72.18298018 -112.70407346 67.99165925 -109.375 63.6796875 C-104.96666771 57.97245716 -100.32788822 52.50900309 -95.57910156 47.08300781 C-90.88470634 41.71517872 -86.35606789 36.22688307 -81.875 30.6796875 C-75.30696755 22.59413131 -68.68269651 14.56448499 -61.875 6.6796875 C-61.29363281 5.97585937 -60.71226562 5.27203125 -60.11328125 4.546875 C-45.02662831 -12.40185853 -17.55227944 -12.60002917 0 0 Z M-52.25 19.2421875 C-52.78625 20.0465625 -53.3225 20.8509375 -53.875 21.6796875 C-52.65766895 25.33168065 -51.37671884 26.12788185 -48.375 28.4921875 C-46.88613281 29.68134766 -46.88613281 29.68134766 -45.3671875 30.89453125 C-44.81256836 31.33522949 -44.25794922 31.77592773 -43.68652344 32.22998047 C-40.2625683 34.97006748 -36.88401711 37.76555415 -33.5 40.5546875 C-32.77594971 41.14967041 -32.05189941 41.74465332 -31.3059082 42.35766602 C-27.8584758 45.19566295 -24.4270182 48.04884873 -21.03515625 50.953125 C-20.44589355 51.45730957 -19.85663086 51.96149414 -19.24951172 52.48095703 C-18.15804213 53.41826246 -17.06960756 54.35911871 -15.98486328 55.30419922 C-13.41438615 57.51342931 -11.00164114 59.34288131 -7.875 60.6796875 C-0.6685667 51.04478489 3.33734791 43.94372866 2.125 31.6796875 C0.73733957 22.69719738 -5.09893515 16.32092668 -12.16015625 10.9375 C-26.2187511 2.62908167 -41.8690477 8.04168634 -52.25 19.2421875 Z M-64.875 35.6796875 C-70.80618416 41.78298191 -76.17324125 48.40265629 -81.52197266 55.01318359 C-84.24955972 58.37271252 -87.00036531 61.71319987 -89.75 65.0546875 C-90.65298828 66.15272705 -90.65298828 66.15272705 -91.57421875 67.27294922 C-95.19847591 71.67146175 -98.86145976 76.03321574 -102.5625 80.3671875 C-106.24183556 84.6775719 -109.77888012 89.07523943 -113.25 93.5546875 C-117.6553688 99.23793746 -122.29413426 104.67200385 -127.03857422 110.07373047 C-130.62322349 114.1763865 -134.04605075 118.36762751 -137.375 122.6796875 C-141.73444386 128.32656946 -146.33200447 133.71524423 -151.0390625 139.07421875 C-155.09794092 143.71980708 -158.92724441 148.50228189 -162.69116211 153.38818359 C-166.79790634 158.67825244 -171.17611011 163.71320043 -175.63671875 168.70703125 C-176.16007812 169.29871094 -176.6834375 169.89039063 -177.22265625 170.5 C-177.68679932 171.01836426 -178.15094238 171.53672852 -178.62915039 172.07080078 C-180.00121233 173.84267775 -180.93512666 175.65030924 -181.875 177.6796875 C-180.16957968 179.09985958 -178.46051793 180.51565934 -176.75 181.9296875 C-175.79867187 182.71859375 -174.84734375 183.5075 -173.8671875 184.3203125 C-170.94691077 186.62298502 -167.99422571 188.66190944 -164.875 190.6796875 C-158.61499931 183.42401834 -152.38919547 176.15117976 -146.34375 168.71484375 C-143.24170641 164.90109712 -140.12301942 161.10126647 -137 157.3046875 C-136.39776611 156.57233887 -135.79553223 155.83999023 -135.17504883 155.08544922 C-131.55096479 150.68732217 -127.88827598 146.32584981 -124.1875 141.9921875 C-120.50816444 137.6818031 -116.97111988 133.28413557 -113.5 128.8046875 C-109.0946312 123.12143754 -104.45586574 117.68737115 -99.71142578 112.28564453 C-96.12677651 108.1829885 -92.70394925 103.99174749 -89.375 99.6796875 C-85.53052691 94.69985832 -81.52660829 89.90636816 -77.375 85.1796875 C-72.72759462 79.88777636 -68.29901624 74.48170083 -63.99291992 68.90966797 C-58.85688254 62.29877731 -53.37138005 55.99141189 -47.875 49.6796875 C-51.2945092 46.1665786 -54.81811095 42.96928763 -58.625 39.8671875 C-59.58921875 39.07699219 -60.5534375 38.28679687 -61.546875 37.47265625 C-63.5172929 35.57799411 -63.5172929 35.57799411 -64.875 35.6796875 Z M-35.875 59.6796875 C-40.89412988 65.05821186 -45.63078926 70.54865107 -50.125 76.3671875 C-54.05391521 81.45052128 -58.13401982 86.35385238 -62.375 91.1796875 C-66.5267808 95.90620836 -70.53053609 100.69987021 -74.375 105.6796875 C-78.73444386 111.32656946 -83.33200447 116.71524423 -88.0390625 122.07421875 C-91.62348232 126.1767656 -95.04619207 130.36781056 -98.375 134.6796875 C-102.73444386 140.32656946 -107.33200447 145.71524423 -112.0390625 151.07421875 C-115.62348232 155.1767656 -119.04619207 159.36781056 -122.375 163.6796875 C-126.21948325 168.65952984 -130.22354231 173.45285876 -134.375 178.1796875 C-138.76389369 183.18033068 -143.01689911 188.25775961 -147.125 193.4921875 C-147.59099609 194.08515625 -148.05699219 194.678125 -148.53710938 195.2890625 C-150.92338262 198.34305722 -150.92338262 198.34305722 -152.875 201.6796875 C-151.16957968 203.09985958 -149.46051793 204.51565934 -147.75 205.9296875 C-146.79867187 206.71859375 -145.84734375 207.5075 -144.8671875 208.3203125 C-141.94691077 210.62298502 -138.99422571 212.66190944 -135.875 214.6796875 C-129.54146452 207.33878766 -123.25398312 199.97479914 -117.14453125 192.4453125 C-114.63400205 189.38601014 -112.06987558 186.37655818 -109.5 183.3671875 C-105.71702611 178.93122768 -102.06953658 174.4137756 -98.5 169.8046875 C-94.09480687 164.12130772 -89.45585649 158.68736062 -84.71142578 153.28564453 C-81.12677651 149.1829885 -77.70394925 144.99174749 -74.375 140.6796875 C-70.01555614 135.03280554 -65.41799553 129.64413077 -60.7109375 124.28515625 C-57.12651768 120.1826094 -53.70380793 115.99156444 -50.375 111.6796875 C-46.53051917 106.69984829 -42.52649812 101.90647772 -38.375 97.1796875 C-31.50689614 89.35555012 -24.65675233 81.352316 -18.875 72.6796875 C-21.14115424 70.69493154 -23.41254153 68.71680662 -25.6875 66.7421875 C-26.33009766 66.17822266 -26.97269531 65.61425781 -27.63476562 65.03320312 C-28.25673828 64.49501953 -28.87871094 63.95683594 -29.51953125 63.40234375 C-30.37575073 62.65609741 -30.37575073 62.65609741 -31.24926758 61.89477539 C-32.97624687 60.47113157 -32.97624687 60.47113157 -35.875 59.6796875 Z M-186.875 193.6796875 C-188.45978802 201.01772395 -189.581781 208.35587012 -190.5 215.8046875 C-190.6340625 216.83722656 -190.768125 217.86976563 -190.90625 218.93359375 C-191.609345 224.56552816 -192.02469823 230.00476374 -191.875 235.6796875 C-183.29707756 234.01202437 -175.09951848 231.27320035 -166.8125 228.5546875 C-165.36015062 228.0816486 -163.90767756 227.60898924 -162.45507812 227.13671875 C-158.92694875 225.98874743 -155.40052098 224.83564822 -151.875 223.6796875 C-152.65423828 222.72989014 -153.43347656 221.78009277 -154.23632812 220.80151367 C-154.67464966 220.26725266 -155.11297119 219.73299164 -155.5645752 219.18254089 C-157.31522763 217.17481489 -159.25870084 215.60477847 -161.375 213.9921875 C-165.53351973 210.75985528 -169.56446026 207.4182575 -173.5625 203.9921875 C-177.858493 200.32367097 -182.18904587 196.83998214 -186.875 193.6796875 Z " fill="#563bdb" transform="translate(481.875,142.3203125)"/>
<path d="M0 0 C0.76439896 -0.0065712 1.52879791 -0.0131424 2.31636047 -0.01991272 C4.85104465 -0.03965629 7.38566958 -0.05130978 9.92041016 -0.0612793 C11.21752867 -0.06739259 11.21752867 -0.06739259 12.54085159 -0.07362938 C17.11658744 -0.09449327 21.69229326 -0.10879437 26.26806641 -0.11816406 C30.99845892 -0.12923751 35.72838219 -0.16364701 40.45860863 -0.20333576 C44.09256883 -0.22945526 47.72641636 -0.23785166 51.36046219 -0.24144554 C53.10440876 -0.24632254 54.84834994 -0.25796812 56.59220505 -0.27648354 C59.03190288 -0.30077964 61.470375 -0.29992808 63.91015625 -0.29296875 C64.99193398 -0.31218384 64.99193398 -0.31218384 66.0955658 -0.33178711 C69.28910546 -0.29855697 71.31134435 0.00439487 74.03077698 1.72297668 C76.1541918 5.07685976 76.15244812 8.06276123 76.11791992 11.91137695 C76.13084328 13.07304382 76.13084328 13.07304382 76.14402771 14.25817871 C76.16670665 16.81479434 76.15994618 19.37031563 76.15087891 21.92700195 C76.15611341 23.70532558 76.16238926 25.48364643 76.16966248 27.26196289 C76.18007001 30.9876818 76.17549989 34.71301885 76.16088867 38.4387207 C76.14369411 43.21412962 76.16720191 47.98833611 76.20237827 52.76361084 C76.22433359 56.4353839 76.22291549 60.10686835 76.21461296 63.77868652 C76.21379253 65.53936075 76.22067354 67.30005598 76.23538399 69.06066895 C76.25279777 71.52207481 76.23831696 73.98130869 76.21557617 76.44262695 C76.23311447 77.53371765 76.23311447 77.53371765 76.25100708 78.64685059 C76.18467669 82.17384329 75.81626131 83.90115815 73.52404785 86.62904358 C69.91223223 88.53099875 66.90550649 88.73335611 62.92016602 88.67871094 C61.78754082 88.68681541 61.78754082 88.68681541 60.6320343 88.69508362 C58.14572491 88.70755194 55.66057771 88.6910951 53.17431641 88.6730957 C51.44226521 88.67325072 49.71021367 88.67474015 47.97816467 88.67750549 C44.35255554 88.67888857 40.72734245 88.66634557 37.10180664 88.64355469 C32.45558466 88.61514895 27.8100195 88.61791426 23.16374874 88.6306448 C19.5889373 88.63760033 16.01427761 88.62981452 12.43948555 88.61738777 C10.72627914 88.61287353 9.01305644 88.61253624 7.29984856 88.61645317 C4.90602091 88.61936475 2.51309805 88.6028627 0.11938477 88.58105469 C-0.58773651 88.58555634 -1.29485779 88.59005798 -2.02340698 88.59469604 C-5.05960092 88.54875433 -7.14787097 88.32567054 -9.82395935 86.83924866 C-13.07481904 83.44402406 -12.56954718 79.34252581 -12.57666016 74.93920898 C-12.58162506 74.20553101 -12.58658997 73.47185303 -12.59170532 72.71594238 C-12.6063099 70.2888902 -12.61312588 67.86190336 -12.61865234 65.43481445 C-12.62440495 63.7471415 -12.63016267 62.05946857 -12.63592529 60.37179565 C-12.64643025 56.83274023 -12.6522763 53.29370749 -12.65576172 49.75463867 C-12.66124714 45.22287123 -12.68527818 40.69140414 -12.71373367 36.15973091 C-12.7323693 32.6732801 -12.73756613 29.18690153 -12.7390976 25.70040512 C-12.74212228 24.0298689 -12.75014463 22.35933389 -12.76328278 20.68884659 C-12.78036385 18.35019399 -12.77845837 16.01227389 -12.77197266 13.67358398 C-12.78118744 12.98561737 -12.79040222 12.29765076 -12.79989624 11.58883667 C-12.76262073 7.29170551 -12.03548441 4.59998748 -9.41552734 1.17700195 C-6.40703529 -0.32724407 -3.30082366 0.01223826 0 0 Z M3.58447266 16.17700195 C3.58447266 34.65700195 3.58447266 53.13700195 3.58447266 72.17700195 C22.06447266 72.17700195 40.54447266 72.17700195 59.58447266 72.17700195 C59.58447266 53.69700195 59.58447266 35.21700195 59.58447266 16.17700195 C41.10447266 16.17700195 22.62447266 16.17700195 3.58447266 16.17700195 Z " fill="#848484" transform="translate(64.41552734375,244.822998046875)"/>
<path d="M0 0 C0.76439896 -0.0065712 1.52879791 -0.0131424 2.31636047 -0.01991272 C4.85104465 -0.03965629 7.38566958 -0.05130978 9.92041016 -0.0612793 C11.21752867 -0.06739259 11.21752867 -0.06739259 12.54085159 -0.07362938 C17.11658744 -0.09449327 21.69229326 -0.10879437 26.26806641 -0.11816406 C30.99845892 -0.12923751 35.72838219 -0.16364701 40.45860863 -0.20333576 C44.09256883 -0.22945526 47.72641636 -0.23785166 51.36046219 -0.24144554 C53.10440876 -0.24632254 54.84834994 -0.25796812 56.59220505 -0.27648354 C59.03190288 -0.30077964 61.470375 -0.29992808 63.91015625 -0.29296875 C64.99193398 -0.31218384 64.99193398 -0.31218384 66.0955658 -0.33178711 C69.28910546 -0.29855697 71.31134435 0.00439487 74.03077698 1.72297668 C76.1541918 5.07685976 76.15244812 8.06276123 76.11791992 11.91137695 C76.13084328 13.07304382 76.13084328 13.07304382 76.14402771 14.25817871 C76.16670665 16.81479434 76.15994618 19.37031563 76.15087891 21.92700195 C76.15611341 23.70532558 76.16238926 25.48364643 76.16966248 27.26196289 C76.18007001 30.9876818 76.17549989 34.71301885 76.16088867 38.4387207 C76.14369411 43.21412962 76.16720191 47.98833611 76.20237827 52.76361084 C76.22433359 56.4353839 76.22291549 60.10686835 76.21461296 63.77868652 C76.21379253 65.53936075 76.22067354 67.30005598 76.23538399 69.06066895 C76.25279777 71.52207481 76.23831696 73.98130869 76.21557617 76.44262695 C76.23311447 77.53371765 76.23311447 77.53371765 76.25100708 78.64685059 C76.18467669 82.17384329 75.81626131 83.90115815 73.52404785 86.62904358 C69.91223223 88.53099875 66.90550649 88.73335611 62.92016602 88.67871094 C61.78754082 88.68681541 61.78754082 88.68681541 60.6320343 88.69508362 C58.14572491 88.70755194 55.66057771 88.6910951 53.17431641 88.6730957 C51.44226521 88.67325072 49.71021367 88.67474015 47.97816467 88.67750549 C44.35255554 88.67888857 40.72734245 88.66634557 37.10180664 88.64355469 C32.45558466 88.61514895 27.8100195 88.61791426 23.16374874 88.6306448 C19.5889373 88.63760033 16.01427761 88.62981452 12.43948555 88.61738777 C10.72627914 88.61287353 9.01305644 88.61253624 7.29984856 88.61645317 C4.90602091 88.61936475 2.51309805 88.6028627 0.11938477 88.58105469 C-0.58773651 88.58555634 -1.29485779 88.59005798 -2.02340698 88.59469604 C-5.05960092 88.54875433 -7.14787097 88.32567054 -9.82395935 86.83924866 C-13.07481904 83.44402406 -12.56954718 79.34252581 -12.57666016 74.93920898 C-12.58162506 74.20553101 -12.58658997 73.47185303 -12.59170532 72.71594238 C-12.6063099 70.2888902 -12.61312588 67.86190336 -12.61865234 65.43481445 C-12.62440495 63.7471415 -12.63016267 62.05946857 -12.63592529 60.37179565 C-12.64643025 56.83274023 -12.6522763 53.29370749 -12.65576172 49.75463867 C-12.66124714 45.22287123 -12.68527818 40.69140414 -12.71373367 36.15973091 C-12.7323693 32.6732801 -12.73756613 29.18690153 -12.7390976 25.70040512 C-12.74212228 24.0298689 -12.75014463 22.35933389 -12.76328278 20.68884659 C-12.78036385 18.35019399 -12.77845837 16.01227389 -12.77197266 13.67358398 C-12.78118744 12.98561737 -12.79040222 12.29765076 -12.79989624 11.58883667 C-12.76262073 7.29170551 -12.03548441 4.59998748 -9.41552734 1.17700195 C-6.40703529 -0.32724407 -3.30082366 0.01223826 0 0 Z M3.58447266 16.17700195 C3.58447266 34.65700195 3.58447266 53.13700195 3.58447266 72.17700195 C22.06447266 72.17700195 40.54447266 72.17700195 59.58447266 72.17700195 C59.58447266 53.69700195 59.58447266 35.21700195 59.58447266 16.17700195 C41.10447266 16.17700195 22.62447266 16.17700195 3.58447266 16.17700195 Z " fill="#848484" transform="translate(64.41552734375,121.822998046875)"/>
<path d="M0 0 C1.12955864 -0.0098568 1.12955864 -0.0098568 2.28193665 -0.01991272 C4.77934871 -0.03965787 7.2767006 -0.05131104 9.77416992 -0.0612793 C10.62663488 -0.06535482 11.47909985 -0.06943035 12.35739708 -0.07362938 C16.86944716 -0.09449542 21.38146678 -0.10879475 25.89355469 -0.11816406 C30.55435007 -0.12922905 35.21466808 -0.16362819 39.87529469 -0.20333576 C43.45868315 -0.22948012 47.04195751 -0.23785395 50.62543297 -0.24144554 C52.34343375 -0.24631725 54.06142924 -0.25794791 55.77933693 -0.27648354 C58.1853073 -0.30082916 60.59003794 -0.29991884 62.99609375 -0.29296875 C64.05845245 -0.31218384 64.05845245 -0.31218384 65.14227295 -0.33178711 C68.48272027 -0.29665776 70.66384922 0.16212905 73.63270569 1.72297668 C76.40002912 5.0205259 76.39645344 7.7902767 76.33911133 11.91137695 C76.34787292 12.68582153 76.35663452 13.46026611 76.36566162 14.25817871 C76.38764668 16.81502512 76.37310743 19.37013835 76.35620117 21.92700195 C76.3595696 23.70532564 76.36442244 25.48364708 76.37069702 27.26196289 C76.37806709 30.98777195 76.36735885 34.71298138 76.34399414 38.4387207 C76.31550587 43.21416957 76.33190918 47.98821352 76.36185646 52.76361084 C76.37992605 56.43541039 76.37417306 60.10687694 76.3612175 63.77868652 C76.35788253 65.53934902 76.36197381 67.30004177 76.37361526 69.06066895 C76.38631903 71.52213583 76.36695696 73.98132941 76.33911133 76.44262695 C76.34923248 77.17002075 76.35935364 77.89741455 76.36978149 78.64685059 C76.29590922 82.17224647 75.92246739 83.90302744 73.63072205 86.62904358 C70.01942304 88.53136855 67.01284918 88.73335167 63.02783203 88.67871094 C61.89520683 88.68681541 61.89520683 88.68681541 60.73970032 88.69508362 C58.25339093 88.70755194 55.76824372 88.6910951 53.28198242 88.6730957 C51.54993123 88.67325072 49.81787968 88.67474015 48.08583069 88.67750549 C44.46022156 88.67888857 40.83500846 88.66634557 37.20947266 88.64355469 C32.56325067 88.61514895 27.91768551 88.61791426 23.27141476 88.6306448 C19.69660332 88.63760033 16.12194363 88.62981452 12.54715157 88.61738777 C10.83394515 88.61287353 9.12072245 88.61253624 7.40751457 88.61645317 C5.01368692 88.61936475 2.62076406 88.6028627 0.22705078 88.58105469 C-0.4800705 88.58555634 -1.18719177 88.59005798 -1.91574097 88.59469604 C-4.95193491 88.54875433 -7.04020496 88.32567054 -9.71629333 86.83924866 C-12.96715302 83.44402406 -12.46188116 79.34252581 -12.46899414 74.93920898 C-12.47395905 74.20553101 -12.47892395 73.47185303 -12.48403931 72.71594238 C-12.49864388 70.2888902 -12.50545987 67.86190336 -12.51098633 65.43481445 C-12.51673893 63.7471415 -12.52249666 62.05946857 -12.52825928 60.37179565 C-12.53876424 56.83274023 -12.54461029 53.29370749 -12.5480957 49.75463867 C-12.55358112 45.22287123 -12.57761216 40.69140414 -12.60606766 36.15973091 C-12.62470328 32.6732801 -12.62990011 29.18690153 -12.63143158 25.70040512 C-12.63445627 24.0298689 -12.64247862 22.35933389 -12.65561676 20.68884659 C-12.67269783 18.35019399 -12.67079235 16.01227389 -12.66430664 13.67358398 C-12.67352142 12.98561737 -12.68273621 12.29765076 -12.69223022 11.58883667 C-12.65495472 7.29170551 -11.92781839 4.59998748 -9.30786133 1.17700195 C-6.32611291 -0.31387225 -3.27085391 0.01231257 0 0 Z M3.69213867 16.17700195 C3.69213867 34.65700195 3.69213867 53.13700195 3.69213867 72.17700195 C22.17213867 72.17700195 40.65213867 72.17700195 59.69213867 72.17700195 C59.69213867 53.69700195 59.69213867 35.21700195 59.69213867 16.17700195 C41.21213867 16.17700195 22.73213867 16.17700195 3.69213867 16.17700195 Z " fill="#848484" transform="translate(64.307861328125,367.822998046875)"/>
<path d="M0 0 C1.60079659 -0.00810448 1.60079659 -0.00810448 3.2339325 -0.01637268 C6.75902089 -0.02887288 10.28329472 -0.01236057 13.80834961 0.00561523 C16.25784854 0.00546029 18.70734772 0.00397205 21.15684509 0.00120544 C26.28891851 -0.0001791 31.42071264 0.01239014 36.55273438 0.03515625 C43.13598985 0.0635556 49.71878172 0.06080003 56.30207157 0.04806614 C61.35920686 0.04111685 66.41623468 0.04888949 71.47335625 0.06132317 C73.90108262 0.06584388 76.3288205 0.06616907 78.75654793 0.06225777 C82.14653369 0.05935261 85.53587664 0.07581959 88.92578125 0.09765625 C89.93212616 0.0931546 90.93847107 0.08865295 91.97531128 0.08401489 C93.36105598 0.09887184 93.36105598 0.09887184 94.77479553 0.11402893 C95.57579209 0.11645883 96.37678865 0.11888872 97.20205784 0.12139225 C99.99390669 0.6048719 101.35767771 1.5568107 103.39819336 3.50170898 C104.50192714 7.4751506 104.81362918 9.5917067 103.08569336 13.37670898 C101.39819336 15.50170898 101.39819336 15.50170898 99.39819336 16.50170898 C97.92493854 16.60216457 96.44726679 16.64110384 94.97061157 16.64888 C94.03967178 16.65603531 93.10873199 16.66319061 92.14958191 16.67056274 C91.12512466 16.67325165 90.10066742 16.67594055 89.04516602 16.67871094 C87.9686528 16.68528214 86.89213959 16.69185333 85.78300476 16.69862366 C82.20942115 16.71838573 78.63587958 16.7300246 75.06225586 16.73999023 C73.23557436 16.74610353 73.23557436 16.74610353 71.3719902 16.75234032 C64.92890338 16.77321159 58.48583794 16.78750982 52.04272461 16.796875 C45.37528935 16.80694503 38.7082327 16.84236614 32.04090309 16.8820467 C26.92460492 16.90814095 21.80838691 16.91656035 16.69202805 16.92015648 C14.23357264 16.92503957 11.77512121 16.93670211 9.3167305 16.95519447 C5.88088552 16.9794366 2.44591335 16.97864809 -0.98999023 16.97167969 C-2.01039902 16.98448975 -3.0308078 16.9972998 -4.08213806 17.01049805 C-10.97019918 16.95942984 -10.97019918 16.95942984 -14.22964478 14.59733582 C-15.69926479 12.35286654 -16.1695088 11.16521567 -16.16430664 8.50170898 C-16.1862207 7.84170898 -16.20813477 7.18170898 -16.23071289 6.50170898 C-13.91560304 -0.86062792 -6.26463734 -0.06030576 0 0 Z " fill="#848484" transform="translate(181.601806640625,263.498291015625)"/>
<path d="M0 0 C1.60079659 -0.00810448 1.60079659 -0.00810448 3.2339325 -0.01637268 C6.75902089 -0.02887288 10.28329472 -0.01236057 13.80834961 0.00561523 C16.25784854 0.00546029 18.70734772 0.00397205 21.15684509 0.00120544 C26.28891851 -0.0001791 31.42071264 0.01239014 36.55273438 0.03515625 C43.13598985 0.0635556 49.71878172 0.06080003 56.30207157 0.04806614 C61.35920686 0.04111685 66.41623468 0.04888949 71.47335625 0.06132317 C73.90108262 0.06584388 76.3288205 0.06616907 78.75654793 0.06225777 C82.14653369 0.05935261 85.53587664 0.07581959 88.92578125 0.09765625 C89.93212616 0.0931546 90.93847107 0.08865295 91.97531128 0.08401489 C93.36105598 0.09887184 93.36105598 0.09887184 94.77479553 0.11402893 C95.57579209 0.11645883 96.37678865 0.11888872 97.20205784 0.12139225 C99.99390669 0.6048719 101.35767771 1.5568107 103.39819336 3.50170898 C104.50192714 7.4751506 104.81362918 9.5917067 103.08569336 13.37670898 C101.39819336 15.50170898 101.39819336 15.50170898 99.39819336 16.50170898 C97.93985742 16.60208612 96.47707019 16.64109909 95.01530457 16.64888 C94.09422409 16.65603531 93.17314362 16.66319061 92.22415161 16.67056274 C91.21061615 16.67325165 90.19708069 16.67594055 89.15283203 16.67871094 C88.08767868 16.68528214 87.02252533 16.69185333 85.9250946 16.69862366 C82.38878312 16.71838704 78.85251414 16.73002553 75.31616211 16.73999023 C73.50790168 16.74610353 73.50790168 16.74610353 71.66311073 16.75234032 C65.28370967 16.77321318 58.9043302 16.78751013 52.52490234 16.796875 C45.92707736 16.80794705 39.32958893 16.84235308 32.73188305 16.8820467 C27.66615663 16.90815825 22.60051109 16.91656196 17.53472328 16.92015648 C15.10221392 16.92503589 12.66970849 16.93668812 10.23726463 16.95519447 C6.83514909 16.97947089 3.43391343 16.97864162 0.03173828 16.97167969 C-0.97572449 16.98448975 -1.98318726 16.9972998 -3.0211792 17.01049805 C-7.41681866 16.97766189 -9.90662707 16.92560974 -13.72489929 14.59733582 C-15.73914229 12.34836936 -16.28493278 11.47776713 -16.22680664 8.50170898 C-16.23969727 7.84170898 -16.25258789 7.18170898 -16.26586914 6.50170898 C-13.82894256 -0.83774047 -6.32795613 -0.06091529 0 0 Z " fill="#848484" transform="translate(181.601806640625,140.498291015625)"/>
<path d="M0 0 C0.70427124 -0.0065712 1.40854248 -0.0131424 2.13415527 -0.01991272 C4.46923933 -0.03965356 6.80425904 -0.05131019 9.1394043 -0.0612793 C10.33535752 -0.06739259 10.33535752 -0.06739259 11.55547142 -0.07362938 C15.77574785 -0.09449381 19.99599173 -0.1087937 24.21630859 -0.11816406 C28.57444822 -0.12922739 32.9320771 -0.16362488 37.2900362 -0.20333576 C40.64180955 -0.22948788 43.99346097 -0.23785464 47.34532738 -0.24144554 C48.95168697 -0.24631544 50.55804097 -0.25794098 52.16430092 -0.27648354 C54.41463234 -0.30084566 56.66363944 -0.29991608 58.9140625 -0.29296875 C60.19376419 -0.29883499 61.47346588 -0.30470123 62.79194641 -0.31074524 C66.74945798 0.26387925 68.4084395 1.30456152 71.15112305 4.17700195 C71.77612305 7.61450195 71.77612305 7.61450195 71.15112305 11.17700195 C68.54385887 14.51557517 67.05944212 16.00414775 62.85009766 16.80519104 C60.97076538 16.80663368 60.97076538 16.80663368 59.0534668 16.80810547 C58.01103317 16.81883842 58.01103317 16.81883842 56.94754028 16.82978821 C54.66055662 16.84663558 52.37554448 16.82729924 50.08862305 16.8059082 C48.49348794 16.80673728 46.89835292 16.80919814 45.30322266 16.81321716 C41.96417448 16.81607242 38.6257981 16.80140163 35.28686523 16.77392578 C31.01273633 16.73984263 26.73980835 16.74586332 22.46562195 16.76458836 C19.17295369 16.77517095 15.88056356 16.76620926 12.58792114 16.75120354 C11.01230699 16.74603046 9.43666369 16.74649292 7.86105347 16.75274849 C5.6563297 16.75821631 3.45330883 16.73777942 1.2487793 16.71044922 C-0.00410889 16.70425064 -1.25699707 16.69805206 -2.54785156 16.69166565 C-6.43441716 16.08571023 -8.09041445 14.9305182 -10.84887695 12.17700195 C-12.31184173 8.70246061 -11.96162814 7.45619537 -10.53637695 3.92700195 C-7.71497499 -0.67083829 -5.14088422 0.03962056 0 0 Z " fill="#848484" transform="translate(176.848876953125,420.822998046875)"/>
<path d="M0 0 C0.6946637 -0.00832352 1.38932739 -0.01664703 2.1050415 -0.02522278 C4.40227864 -0.04932488 6.69923185 -0.05809504 8.99658203 -0.06469727 C10.59457484 -0.07366359 12.19256679 -0.08278543 13.79055786 -0.09205627 C17.14131714 -0.10854947 20.49197646 -0.11624694 23.84277344 -0.11914062 C28.13267526 -0.12452433 32.42163538 -0.16220126 36.71127129 -0.20788479 C40.01245539 -0.23765473 43.31341272 -0.24486416 46.61471939 -0.24586678 C48.19596799 -0.2500694 49.77721725 -0.2625056 51.35833359 -0.28338432 C53.5729228 -0.31029957 55.78532973 -0.30547551 58 -0.29296875 C59.25892059 -0.2980394 60.51784119 -0.30311005 61.81491089 -0.30833435 C66.04144595 0.47555289 67.51694075 1.95553292 70.12939453 5.30639648 C70.75439453 8.86889648 70.75439453 8.86889648 70.12939453 12.30639648 C67.39398925 15.16459696 65.72138172 16.21652318 61.78367615 16.81433105 C60.51000687 16.81751343 59.23633759 16.8206958 57.92407227 16.82397461 C57.21775665 16.83098389 56.51144104 16.83799316 55.78372192 16.84521484 C53.45973871 16.86275446 51.13698286 16.85118896 48.81298828 16.83764648 C47.19303657 16.84034229 45.57308644 16.84422545 43.95314026 16.84924316 C40.56292266 16.85513244 37.17312739 16.84659292 33.78295898 16.82788086 C29.43926924 16.80507292 25.09656713 16.81822892 20.75291348 16.84217072 C17.40969914 16.85662884 14.06671879 16.85202306 10.72349739 16.84165955 C9.12192734 16.83899322 7.52033598 16.84225874 5.91879082 16.85157776 C3.68039579 16.86174624 1.44359837 16.84624187 -0.79467773 16.82397461 C-2.06755142 16.82079224 -3.34042511 16.81760986 -4.65187073 16.81433105 C-8.42912594 16.21825879 -9.58276498 15.30711777 -11.87060547 12.30639648 C-12.80810547 9.86889648 -12.80810547 9.86889648 -12.87060547 7.30639648 C-9.92548623 0.97439013 -6.69811952 0.05668098 0 0 Z " fill="#848484" transform="translate(177.87060546875,386.693603515625)"/>
<path d="M0 0 C0.70441727 -0.00671722 1.40883453 -0.01343445 2.13459778 -0.02035522 C4.46431525 -0.03935975 6.79374498 -0.04326069 9.12353516 -0.04541016 C10.74394855 -0.0518367 12.36436078 -0.05856495 13.98477173 -0.06558228 C17.38261607 -0.07756138 20.78035869 -0.08126248 24.17822266 -0.08007812 C28.52852555 -0.07987497 32.87817493 -0.10717034 37.22832298 -0.14162254 C40.57582585 -0.16388048 43.92317122 -0.167916 47.27074051 -0.16685867 C48.87429684 -0.16921656 50.47785738 -0.17805076 52.08134079 -0.19352341 C54.32682537 -0.21316086 56.57089804 -0.2073555 58.81640625 -0.1953125 C60.09309174 -0.19816254 61.36977722 -0.20101257 62.68515015 -0.20394897 C66.63460017 0.37858349 68.29809061 1.42407818 71.03759766 4.29052734 C71.66259766 7.72802734 71.66259766 7.72802734 71.03759766 11.29052734 C68.42730012 14.63703973 66.95143799 16.12069436 62.72984314 16.90525818 C60.84598656 16.89765221 60.84598656 16.89765221 58.92407227 16.88989258 C57.8792292 16.89580666 57.8792292 16.89580666 56.8132782 16.90184021 C54.52142322 16.90852807 52.23158164 16.87944127 49.93994141 16.84912109 C48.34241624 16.84486845 46.74488488 16.84254213 45.14735413 16.84205627 C41.80408601 16.83589834 38.46148984 16.81323436 35.1184082 16.77758789 C30.83546389 16.7322792 26.55312702 16.71755951 22.26996517 16.71385098 C18.97308882 16.7094202 15.67633962 16.69411311 12.37951851 16.67497444 C10.80028896 16.66610304 9.22104591 16.6593678 7.64179802 16.65481377 C5.43487682 16.64575944 3.2285014 16.62336 1.02172852 16.59692383 C-0.23338028 16.58628403 -1.48848907 16.57564423 -2.78163147 16.56468201 C-5.80401421 16.30417902 -7.51834114 16.05068462 -9.96240234 14.29052734 C-11.47383222 10.64935537 -12.22038221 8.34589953 -11.27490234 4.47802734 C-8.4296933 -0.26398774 -5.07970253 0.03037077 0 0 Z " fill="#848484" transform="translate(176.96240234375,297.70947265625)"/>
<path d="M0 0 C0.70456329 -0.00700928 1.40912659 -0.01401855 2.13504028 -0.02124023 C4.45965212 -0.03881776 6.78304221 -0.02719832 9.10766602 -0.01367188 C10.72665134 -0.01636719 12.34563508 -0.02024995 13.96461487 -0.02526855 C17.35661237 -0.03116348 20.74818827 -0.02260234 24.14013672 -0.00390625 C28.4826365 0.01886554 32.82414643 0.00577215 37.16660976 -0.01819611 C40.50986652 -0.03267006 43.85288974 -0.02804056 47.19615364 -0.01768494 C48.79689718 -0.0150211 50.39766208 -0.01827537 51.99838066 -0.02760315 C54.23907239 -0.03779364 56.47817617 -0.02223482 58.71875 0 C59.99241928 0.00318237 61.26608856 0.00636475 62.57835388 0.00964355 C66.48956792 0.60342958 68.154086 1.7456313 70.92407227 4.51757812 C71.58813477 6.51757812 71.58813477 6.51757812 71.54907227 8.51757812 C71.5684082 9.50757813 71.5684082 9.50757813 71.58813477 10.51757812 C70.54268018 13.66624133 68.65899278 14.72010471 65.92407227 16.51757812 C62.62304688 17.0255127 62.62304688 17.0255127 58.82641602 17.03515625 C58.13146027 17.04216553 57.43650452 17.0491748 56.7204895 17.05639648 C54.43377175 17.07393591 52.14830159 17.06236951 49.86157227 17.04882812 C48.2664364 17.05152424 46.67130213 17.05540766 45.07617188 17.0604248 C41.7372265 17.06631431 38.39870989 17.05777499 35.05981445 17.0390625 C30.7857195 17.01627275 26.51262928 17.02939885 22.23857117 17.05335236 C18.9459276 17.06782545 15.65352118 17.06319753 12.36087036 17.05284119 C10.78524658 17.05017805 9.20960109 17.05342914 7.63400269 17.0627594 C5.4293335 17.07295059 3.22627789 17.05739119 1.02172852 17.03515625 C-0.23115967 17.03197388 -1.48404785 17.0287915 -2.77490234 17.0255127 C-6.65560414 16.4283823 -8.3234183 15.26607936 -11.07592773 12.51757812 C-11.70483398 10.51757812 -11.70483398 10.51757812 -11.63842773 8.51757812 C-11.6397168 7.85757813 -11.64100586 7.19757813 -11.64233398 6.51757812 C-9.94154644 0.51203865 -5.56839897 0.01392182 0 0 Z " fill="#848484" transform="translate(177.075927734375,174.482421875)"/>
</svg>
