<?xml version="1.0" encoding="UTF-8"?>
<svg version="1.1" xmlns="http://www.w3.org/2000/svg" width="512" height="512">
<path d="M0 0 C30.54884096 27.21624012 53.02746594 68.12412964 56.0390625 109.41015625 C56.65403216 126.41019364 57.24795844 143.82215462 53.0390625 160.41015625 C52.73307129 161.65297363 52.73307129 161.65297363 52.42089844 162.92089844 C47.45862769 182.66163491 39.82709839 202.3005526 27.0390625 218.41015625 C29.57314784 224.65754537 35.28807529 229.46521202 39.90161133 234.24755859 C41.11082387 235.51484569 42.30456446 236.79709206 43.48168945 238.09423828 C50.45992173 246.30623331 50.45992173 246.30623331 60.06884766 250.09570312 C64.00805818 250.06352792 64.00805818 250.06352792 67.67504883 249.48535156 C72.7005819 249.37301655 75.41783653 251.94214369 79.00007343 255.18584251 C81.3243296 257.4134799 83.60932362 259.67588837 85.88671875 261.95141602 C87.19030838 263.24252037 87.19030838 263.24252037 88.52023315 264.55970764 C90.89198212 266.91154749 93.2590992 269.26784332 95.62345505 271.62710309 C97.1049937 273.10498523 98.58781919 274.58156393 100.07107544 276.05772209 C105.25752244 281.21970748 110.43825226 286.38736019 115.61425781 291.55981445 C120.41940053 296.36132724 125.23750058 301.14956219 130.0617342 305.93188626 C134.21863519 310.05395131 138.36572057 314.18572645 142.50558758 318.32489818 C144.97133379 320.78985593 147.44079148 323.25077539 149.92044067 325.70175362 C152.69155872 328.44154053 155.44214884 331.20140463 158.19140625 333.96313477 C159.00197479 334.75886902 159.81254333 335.55460327 160.64767456 336.37445068 C170.51546142 346.36953544 174.34130351 355.57492215 174.35375977 369.41381836 C174.15095769 381.37674092 169.63984782 389.71976751 161.3125 398.16015625 C151.4898592 407.13060447 141.06700195 408.12256459 128.23583984 407.59814453 C119.79548017 406.87586436 111.91264501 402.66697759 106.1640625 396.53515625 C104.0390625 393.41015625 104.0390625 393.41015625 103.4765625 390.34765625 C104.19056917 386.61895476 105.24913981 384.97982189 108.0390625 382.41015625 C110.8515625 381.34765625 110.8515625 381.34765625 114.0390625 381.41015625 C117.74340278 383.22865057 120.85758332 385.2820533 124.2265625 387.66015625 C129.15712865 390.45858569 134.56139918 390.11765737 140.0390625 389.41015625 C146.24895389 387.65811678 150.60217384 383.79426046 154.0390625 378.41015625 C156.95432364 372.8680697 157.59206991 368.08821006 155.95781136 362.0197134 C153.09039256 353.87527527 146.7625068 347.70691759 140.73876953 341.76928711 C139.92834702 340.95842651 139.1179245 340.14756592 138.28294373 339.31213379 C135.62797632 336.65924041 132.96257466 334.0171053 130.296875 331.375 C128.44391422 329.52764007 126.59161885 327.67961249 124.73995972 325.83094788 C120.37937748 321.47964682 116.01121311 317.13604239 111.64019287 312.79522949 C106.65956362 307.84826736 101.68756819 302.89266563 96.71623826 297.93636119 C86.50001548 287.75139833 76.27312594 277.57719194 66.0390625 267.41015625 C64.93572549 268.3469347 63.83367995 269.28523433 62.73216248 270.22415161 C62.11831916 270.7464995 61.50447584 271.26884739 60.87203121 271.807024 C58.08900712 274.24108392 55.48686337 276.8384221 52.88671875 279.46484375 C52.34172226 280.01125519 51.79672577 280.55766663 51.23521423 281.12063599 C49.52160132 282.83977683 47.81152806 284.56238829 46.1015625 286.28515625 C44.92927046 287.46247263 43.75674636 288.63955799 42.58398438 289.81640625 C39.73299268 292.67833114 36.88516635 295.54337082 34.0390625 298.41015625 C39.04747903 304.54499196 44.61861531 310.03891568 50.27306557 315.5664978 C53.19211898 318.42409167 56.09550441 321.29756595 59.00195312 324.16796875 C62.68543112 327.80350066 66.37331854 331.43424888 70.07641602 335.04980469 C73.0854628 337.98852812 76.07958067 340.94175283 79.06435204 343.90512085 C80.19965661 345.02686777 81.34034772 346.143191 82.48653603 347.2538147 C84.08767382 348.80656568 85.66905037 350.37717628 87.24731445 351.953125 C88.15077103 352.8402417 89.0542276 353.7273584 89.98506165 354.64135742 C92.47204348 357.99381581 92.93078362 360.26612643 93.0390625 364.41015625 C91.27265078 367.21205071 90.00856428 368.92540536 87.0390625 370.41015625 C84.4140625 370.91015625 84.4140625 370.91015625 81.0390625 370.41015625 C73.36706622 365.05913077 66.90617175 357.44110024 60.296875 350.8359375 C59.08005797 349.6223395 57.86316827 348.40881436 56.64620972 347.19535828 C54.11132746 344.66642878 51.57848469 342.13547679 49.046875 339.60327148 C45.80379301 336.36008728 42.55384858 333.1238735 39.30215645 329.88932514 C36.79375691 327.39203408 34.28990531 324.89022148 31.78731918 322.38710594 C30.59043561 321.19140119 29.39193294 319.99731483 28.19177628 318.8048954 C26.51906166 317.14197126 24.85279328 315.4728395 23.18798828 313.80200195 C22.69345657 313.31308975 22.19892487 312.82417755 21.68940735 312.32044983 C19.26354721 309.87217561 17.20114614 307.68988275 16.0390625 304.41015625 C16.26670121 302.14490369 16.53197033 299.88332844 16.8203125 297.625 C17.1539629 291.52188447 15.64890299 288.06169465 11.59008789 283.52774048 C8.34144937 280.22526146 4.96796743 277.08612732 1.5390625 273.97265625 C0.13851953 272.64747228 -1.25865467 271.31871842 -2.65234375 269.98632812 C-6.05104971 266.75175427 -9.49184522 263.56905365 -12.9609375 260.41015625 C-16.89097034 261.92202423 -20.1755819 263.73625921 -23.7109375 266.03515625 C-42.40429441 277.79113465 -69.35291521 290.14400458 -91.9609375 288.41015625 C-95.70878793 286.32801712 -96.75576045 285.11545235 -97.9609375 280.97265625 C-97.9609375 276.92535521 -97.4137824 275.56455636 -94.9609375 272.41015625 C-92.4921875 271.44140625 -92.4921875 271.44140625 -89.4609375 270.91015625 C-88.30207031 270.67941406 -87.14320313 270.44867188 -85.94921875 270.2109375 C-85.31193848 270.0867041 -84.6746582 269.9624707 -84.01806641 269.83447266 C-54.13209867 263.67000412 -28.25890228 251.45293758 -5.9609375 230.41015625 C-5.22359375 229.73726563 -4.48625 229.064375 -3.7265625 228.37109375 C21.08045595 204.88359756 35.67051035 168.49968176 37.16333008 134.5871582 C38.18761569 95.09666674 28.60899041 56.59504034 2.0390625 26.41015625 C1.28109375 25.5078125 0.523125 24.60546875 -0.2578125 23.67578125 C-24.5392104 -4.41446337 -61.46452148 -19.41310172 -97.7734375 -23.33984375 C-99.5013222 -23.4465033 -101.2308412 -23.52878153 -102.9609375 -23.58984375 C-104.023125 -23.64140625 -105.0853125 -23.69296875 -106.1796875 -23.74609375 C-141.69697011 -24.67263156 -177.14038142 -11.83432568 -203.9609375 11.41015625 C-205.16943359 12.43689453 -205.16943359 12.43689453 -206.40234375 13.484375 C-233.45577024 37.06615677 -251.52647608 69.68424447 -255.9609375 105.41015625 C-256.08428268 108.10962925 -256.17039152 110.78453758 -256.19921875 113.484375 C-256.2090126 114.24190063 -256.21880646 114.99942627 -256.22889709 115.77990723 C-256.39253469 131.70824978 -256.50008961 147.00261175 -251.9609375 162.41015625 C-251.76790039 163.12977539 -251.57486328 163.84939453 -251.37597656 164.59082031 C-246.42431055 182.92580696 -237.25075585 200.92499472 -224.9609375 215.41015625 C-224.00318498 216.57883636 -223.04619862 217.74814463 -222.08984375 218.91796875 C-199.35737207 246.40967474 -167.70536336 264.44670496 -132.44360352 269.99365234 C-127.64168353 270.80217693 -124.39613526 271.68187615 -120.9609375 275.41015625 C-119.89297154 279.00751529 -120.55772908 282.42733572 -121.9609375 285.84765625 C-125.41033255 288.54249613 -129.85177839 288.57733982 -134.1015625 288.24047852 C-136.4095753 287.89360204 -138.67792246 287.45770429 -140.9609375 286.97265625 C-141.816875 286.7936377 -142.6728125 286.61461914 -143.5546875 286.43017578 C-174.73574852 279.52531798 -202.11009437 265.74386573 -224.9609375 243.41015625 C-225.88261719 242.55035156 -226.80429688 241.69054687 -227.75390625 240.8046875 C-256.1766993 213.66472855 -272.16267312 172.59793111 -273.34375 133.71875 C-273.74377043 116.32069482 -272.99960407 99.41105095 -268.9609375 82.41015625 C-268.77901855 81.63236816 -268.59709961 80.85458008 -268.40966797 80.05322266 C-265.62775025 68.60484814 -261.07556006 57.99313652 -255.9609375 47.41015625 C-255.64785645 46.75273438 -255.33477539 46.0953125 -255.01220703 45.41796875 C-237.61569887 9.31722127 -204.6961944 -17.63084727 -167.421875 -31.30078125 C-108.69016774 -51.59402755 -46.82148142 -40.9533538 0 0 Z M14.0390625 233.41015625 C12.54900191 234.94412826 11.12081251 236.53860834 9.7265625 238.16015625 C6.71689033 241.65525941 3.71913944 244.62241655 0.0390625 247.41015625 C1.67684295 251.60641534 4.77229432 254.3969241 7.921875 257.48828125 C8.49614227 258.05971863 9.07040955 258.63115601 9.66207886 259.21990967 C11.4914206 261.0380857 13.32760443 262.84917117 15.1640625 264.66015625 C16.40801024 265.89406954 17.6515052 267.12843947 18.89453125 268.36328125 C21.93748617 271.38422368 24.98659504 274.39882717 28.0390625 277.41015625 C30.85784262 276.12840907 32.89147746 274.8000801 35.0546875 272.58984375 C35.58320313 272.05488281 36.11171875 271.51992188 36.65625 270.96875 C37.19507813 270.41316406 37.73390625 269.85757813 38.2890625 269.28515625 C38.84335937 268.72183594 39.39765625 268.15851563 39.96875 267.578125 C41.33010735 266.19329597 42.68521109 264.80232421 44.0390625 263.41015625 C42.39939847 259.23806633 39.34634721 256.42893996 36.2265625 253.33203125 C35.65703857 252.76059387 35.08751465 252.18915649 34.50073242 251.60040283 C33.2994957 250.39780836 32.09574253 249.19772291 30.88964844 248 C29.03865295 246.15974908 27.19860804 244.30902992 25.359375 242.45703125 C24.19074526 241.28972241 23.02149566 240.12303374 21.8515625 238.95703125 C21.29944092 238.40086121 20.74731934 237.84469116 20.1784668 237.27166748 C17.59117763 234.34100823 17.59117763 234.34100823 14.0390625 233.41015625 Z " fill="#848484" transform="translate(305.9609375,72.58984375)"/>
<path d="M0 0 C0.65677734 0.17660156 1.31355469 0.35320312 1.99023438 0.53515625 C16.22825105 4.48609613 39.48849663 12.23274494 48 25 C48.57061018 29.40184998 48.50756062 31.29837208 45.875 34.9375 C42.39923891 37.43098078 41.19763856 37.49383983 37 37 C34.5387031 35.73048897 32.35558553 34.45536801 30.0625 32.9375 C3.99511337 16.54737957 -25.61478311 10.19956491 -55.97827148 16.45800781 C-86.43124767 23.41323049 -113.60377438 40.69688037 -130.81103516 67.09228516 C-147.48942875 93.85305878 -152.8555988 125.84215356 -146.03125 156.59765625 C-140.96817147 177.32199 -130.69753199 194.63087604 -116 210 C-115.33871094 210.73605469 -114.67742187 211.47210938 -113.99609375 212.23046875 C-96.17850449 231.33281777 -68.54535826 243.83738017 -42.50805664 245.12304688 C-9.79051339 246.09782698 19.08321256 237.82997036 44 216 C44.81855469 215.28328125 45.63710938 214.5665625 46.48046875 213.828125 C67.84821118 193.70841 81.03591652 163.84369522 82.28125 134.640625 C82.94552593 108.16184853 76.28313358 82.30503459 60 61 C58.73951271 57.57867735 58.89673304 56.27719025 60.1875 52.8125 C62.76821192 48.80794702 62.76821192 48.80794702 66 48 C69.40483605 47.87389496 71.82188629 47.96288394 74.46875 50.29296875 C76.17311011 52.43762189 77.57886621 54.65596521 79 57 C79.33789551 57.5460791 79.67579102 58.0921582 80.02392578 58.65478516 C98.0856219 88.11378665 105.53691659 124.15843808 97.83178711 158.21337891 C97.26414009 160.49016038 96.64830216 162.74494896 96 165 C95.79632813 165.71865234 95.59265625 166.43730469 95.3828125 167.17773438 C85.20446205 201.76527711 60.4262005 230.61949255 29.07641602 247.93505859 C20.30216917 252.64157124 11.65938803 256.46970688 2 259 C1.30487305 259.19319824 0.60974609 259.38639648 -0.10644531 259.58544922 C-36.40212083 269.39184589 -71.84938862 261.07771337 -103.91796875 243.390625 C-132.702348 226.21353605 -155.09051122 195.77298016 -163.52978516 163.48388672 C-171.79287417 129.45369447 -166.28156064 92.93785831 -148.1796875 62.89208984 C-141.78766659 52.63998678 -134.37267964 43.68277888 -126 35 C-125.28457031 34.22140625 -124.56914063 33.4428125 -123.83203125 32.640625 C-92.79041836 -0.20641003 -42.97174891 -11.85156911 0 0 Z " fill="#848484" transform="translate(230,67)"/>
<path d="M0 0 C7.66273566 6.99514884 12.40052159 16.38798356 13.015625 26.73828125 C13.18990504 40.75330149 10.31603865 50.72330651 0.4375 61.0078125 C-2.02906053 63.37592937 -4.61342439 65.43177035 -7.375 67.4453125 C-13.07727421 71.62844802 -16.62883037 76.31160075 -18.1875 83.3203125 C-18.42894706 87.17118852 -18.56228888 90.97336532 -18.5859375 94.83203125 C-19.33782779 99.19201844 -20.73028639 100.6431107 -24.1875 103.3203125 C-27.75 103.8828125 -27.75 103.8828125 -31.1875 103.3203125 C-33.55247439 101.45322745 -34.84780715 99.99969819 -36.1875 97.3203125 C-37.08125129 83.87966813 -35.70668948 71.28413896 -27.1875 60.3203125 C-23.12541112 56.10777588 -18.64500003 52.62434883 -13.875 49.2578125 C-9.15413123 45.81590419 -7.03550656 41.86433219 -5.1875 36.3203125 C-4.2486141 28.25930644 -5.45991228 21.98464736 -10.1875 15.3203125 C-14.94807321 10.05276915 -21.29826562 8.71870264 -28.1875 8.3203125 C-35.12794588 8.66677598 -40.2620031 11.50675871 -45.1875 16.3203125 C-49.18638376 21.61613153 -50.13463093 26.94223749 -51.28125 33.4296875 C-52.32479106 36.75822365 -53.14754119 37.69415806 -56.1875 39.3203125 C-59.6875 39.7578125 -59.6875 39.7578125 -63.1875 39.3203125 C-65.55247439 37.45322745 -66.84780715 35.99969819 -68.1875 33.3203125 C-69.10818153 21.71972526 -64.50603189 11.24568072 -57.1875 2.3203125 C-40.72891873 -12.54154074 -17.80417983 -13.67106666 0 0 Z " fill="#563bdb" transform="translate(224.1875,133.6796875)"/>
<path d="M0 0 C1.875 0.53125 1.875 0.53125 3.875 2.15625 C5.29270116 5.52329026 5.31963424 7.91065691 4.875 11.53125 C3.375 14.46875 3.375 14.46875 0.875 16.53125 C-1.92642229 17.18568062 -4.31883691 17.14779918 -7.125 16.53125 C-10.18958538 14.48819308 -10.94653128 13.09045198 -12.0625 9.59375 C-12.1378328 5.90244268 -11.37074926 4.4186419 -9.125 1.53125 C-5.49715225 -0.88731517 -4.11989197 -0.66645311 0 0 Z " fill="#848484" transform="translate(200.125,252.46875)"/>
</svg>
