<?xml version="1.0" encoding="UTF-8"?>
<svg version="1.1" xmlns="http://www.w3.org/2000/svg" width="512" height="512">
<path d="M0 0 C1.78188579 1.63386079 3.5513852 3.28127154 5.3125 4.9375 C5.87098633 5.4619873 6.42947266 5.98647461 7.00488281 6.52685547 C25.82198709 24.34692652 39.26980903 44.62716383 50.3125 67.9375 C50.83585937 69.01902344 51.35921875 70.10054688 51.8984375 71.21484375 C73.05145861 117.38215172 73.04969128 172.49149542 56.3125 219.9375 C53.3882807 227.62847639 49.94650246 235.04348191 45.95703125 242.23828125 C45.57732178 242.925271 45.1976123 243.61226074 44.80639648 244.32006836 C44.08004446 245.61349164 43.33688838 246.89767302 42.57446289 248.17016602 C41.44151508 250.06909521 41.44151508 250.06909521 40.3125 252.9375 C41.54534364 256.64646266 44.06367861 258.81191152 46.8828125 261.421875 C47.77871094 262.27523438 48.67460937 263.12859375 49.59765625 264.0078125 C51.48725797 265.79084796 53.38833535 267.56180154 55.30078125 269.3203125 C62.93989833 276.66180164 62.93989833 276.66180164 63.3046875 281.078125 C62.35255956 284.78167778 61.53037943 286.26187496 59.25048828 289.17871094 C58.70256622 289.88638611 58.15464417 290.59406128 57.59011841 291.32318115 C57.16850433 291.85590637 56.74689026 292.38863159 56.3125 292.9375 C56.73565082 293.35788544 57.15880163 293.77827087 57.5947752 294.21139526 C67.91152113 304.46176024 78.21986266 314.72052326 88.51900768 324.98857117 C93.49988996 329.9540137 98.48353351 334.91662326 103.47387695 339.87255859 C108.29180664 344.65728485 113.1017689 349.44990406 117.90700722 354.24737549 C119.73954718 356.07438189 121.57472118 357.89875029 123.41258812 359.72039795 C125.9907062 362.27666955 128.5592118 364.84224803 131.12573242 367.41015625 C131.88386734 368.15750534 132.64200226 368.90485443 133.42311096 369.67485046 C141.62522405 377.92492604 146.71734592 385.80168415 146.6875 397.75 C146.66581054 404.30694782 145.83230469 409.35675703 142.3125 414.9375 C141.961875 415.55882812 141.61125 416.18015625 141.25 416.8203125 C136.9731128 423.68115239 130.01987958 427.87655235 122.3125 429.9375 C111.94595418 430.87005538 102.18398594 430.81871748 93.84161377 423.88334656 C84.56884083 415.31119351 75.64792749 406.40032594 66.734375 397.45703125 C65.07022745 395.79101443 63.40585587 394.12522135 61.74127197 392.4596405 C57.39907739 388.11366081 53.05989647 383.76468466 48.72137451 379.41503906 C44.27833492 374.96169837 39.83239888 370.5112513 35.38671875 366.06054688 C26.69250399 357.35566561 18.00147591 348.64761033 9.3125 339.9375 C8.77886841 340.35829834 8.24523682 340.77909668 7.69543457 341.21264648 C6.98705444 341.75993408 6.27867432 342.30722168 5.54882812 342.87109375 C4.50088074 343.68791626 4.50088074 343.68791626 3.4317627 344.52124023 C0.8755758 346.22948748 -1.35205737 347.09178296 -4.46484375 346.8359375 C-10.0656066 344.57200876 -14.12643522 339.279369 -18.1875 334.9375 C-19.20905138 333.87578617 -20.23247309 332.81586854 -21.2578125 331.7578125 C-23.75634883 329.17146687 -26.22845985 326.56149125 -28.6875 323.9375 C-32.19668877 325.29206894 -35.54851669 326.81791664 -38.90625 328.51171875 C-64.75017672 341.3735124 -92.29297729 350.97364608 -121.515625 351.140625 C-122.74953728 351.15121445 -122.74953728 351.15121445 -124.00837708 351.16201782 C-157.8640344 351.38664892 -157.8640344 351.38664892 -172.6875 347.9375 C-173.55407227 347.74945801 -174.42064453 347.56141602 -175.31347656 347.36767578 C-210.79871649 339.55595133 -244.08042152 323.05013605 -270.09570312 297.49414062 C-271.75948067 295.86710909 -273.44865461 294.26953266 -275.140625 292.671875 C-311.87348458 257.53587586 -332.56318897 206.97062822 -333.81640625 156.41015625 C-334.50309579 114.23140998 -323.44897513 71.54007423 -298.6875 36.9375 C-297.98367188 35.94363281 -297.27984375 34.94976562 -296.5546875 33.92578125 C-285.55910107 18.85118695 -273.3131493 5.52982441 -258.6875 -6.0625 C-257.72199219 -6.8565625 -256.75648438 -7.650625 -255.76171875 -8.46875 C-188.32030141 -62.6275502 -88.32570233 -63.12445737 0 0 Z M-268.32080078 26.63623047 C-290.84579203 50.81300735 -305.11548151 80.9999347 -312.6875 112.9375 C-312.85266113 113.60458984 -313.01782227 114.27167969 -313.18798828 114.95898438 C-318.95547309 139.31721392 -317.83090873 168.83462436 -311.6875 192.9375 C-311.47851074 193.77796875 -311.26952148 194.6184375 -311.05419922 195.484375 C-303.53404706 224.86648262 -289.3730352 251.57540105 -268.703125 273.76953125 C-266.77840389 275.83972547 -264.95002513 277.96703109 -263.125 280.125 C-234.18806483 313.25974117 -187.22695761 331.22667131 -144.28198242 334.66625977 C-99.1409034 337.40888136 -50.53063482 323.0541959 -16.19482422 293.0144043 C-15.18799148 292.11420974 -14.18499705 291.20970233 -13.18603516 290.30078125 C-11.65107843 288.90436575 -10.09856963 287.52960274 -8.54296875 286.15625 C24.47466919 256.77055224 45.90940891 213.9615954 50.3125 169.9375 C50.4229173 167.20517364 50.49855996 164.4976708 50.515625 161.765625 C50.52621445 160.6316629 50.52621445 160.6316629 50.53701782 159.47479248 C50.70861596 135.69427791 48.65604748 114.67940427 41.3125 91.9375 C41.08723633 91.23173828 40.86197266 90.52597656 40.62988281 89.79882812 C33.07503184 66.64868689 19.98234471 45.58409343 3.3125 27.9375 C2.20390313 26.6287398 1.09959026 25.31633641 0 24 C-31.18038291 -11.53279334 -78.2648271 -29.44661411 -124.421875 -32.765625 C-178.94884752 -36.11620422 -231.00654298 -12.17282869 -268.32080078 26.63623047 Z M29.3125 268.9375 C27.61274447 270.87400719 25.95566313 272.82876498 24.3125 274.8125 C19.43435219 280.63593292 14.47910982 286.36604389 9.3125 291.9375 C8.39984375 292.93136719 8.39984375 292.93136719 7.46875 293.9453125 C2.74006803 298.89439914 -2.49143561 303.04999487 -7.94018555 307.16967773 C-10.72430179 309.29202417 -12.72724089 310.99711134 -14.6875 313.9375 C-9.2425 319.3825 -9.2425 319.3825 -3.6875 324.9375 C-0.04607986 323.11678993 1.73358952 321.76072474 4.53027344 318.94677734 C5.7610965 317.71572769 5.7610965 317.71572769 7.01678467 316.45980835 C7.89296448 315.57330597 8.76914429 314.68680359 9.671875 313.7734375 C10.57625305 312.86622955 11.4806311 311.95902161 12.41241455 311.02432251 C14.81046458 308.61865581 17.20244618 306.20704264 19.59320068 303.79412842 C22.03635171 301.33047656 24.48521206 298.87251423 26.93359375 296.4140625 C31.73183788 291.59376427 36.52432732 286.76780157 41.3125 281.9375 C39.62363616 278.32862959 37.60395176 275.99106096 34.75 273.1875 C33.94433594 272.38828125 33.13867188 271.5890625 32.30859375 270.765625 C30.64071409 268.8249337 30.64071409 268.8249337 29.3125 268.9375 Z M40.27124023 306.86523438 C39.39669189 307.74501953 38.52214355 308.62480469 37.62109375 309.53125 C37.15639175 309.99736694 36.69168976 310.46348389 36.21290588 310.94372559 C34.72291818 312.43933009 33.23643665 313.93836695 31.75 315.4375 C30.74306685 316.44944598 29.73590834 317.46116777 28.72851562 318.47265625 C26.25388595 320.95833721 23.78239031 323.44710874 21.3125 325.9375 C25.68286711 331.16132884 30.27416908 336.04754411 35.09033203 340.8605957 C36.22317627 341.99847786 36.22317627 341.99847786 37.37890625 343.15934753 C39.85674717 345.64662845 42.33828662 348.13017691 44.8203125 350.61328125 C46.55100726 352.34719132 48.28162747 354.08117581 50.01217651 355.81523132 C53.62987626 359.43890339 57.24962156 363.06051801 60.87060547 366.6809082 C65.51394435 371.32414508 70.15034459 375.97424479 74.78503609 380.62611103 C78.35205355 384.20422954 81.92358898 387.77781157 85.49642563 391.35011864 C87.2084797 393.06335386 88.9189099 394.77821341 90.62768936 396.49471474 C93.01157028 398.88836534 95.40166998 401.27562993 97.79345703 403.66137695 C98.49900726 404.37254669 99.2045575 405.08371643 99.93148804 405.81643677 C100.58461975 406.46537399 101.23775146 407.11431122 101.91067505 407.78291321 C102.75625316 408.62930847 102.75625316 408.62930847 103.61891365 409.49280262 C107.58960763 412.87996454 110.99920391 413.32062847 116.06640625 413.1875 C120.75336194 412.66582145 123.52006732 410.81560108 126.625 407.375 C128.92577263 404.05166175 129.50961408 402.19564249 129.625 398.1875 C129.66238281 397.34703125 129.69976562 396.5065625 129.73828125 395.640625 C128.63165658 388.61508124 122.16039768 383.5064508 117.34692383 378.72900391 C116.54815323 377.92833496 115.74938263 377.12766602 114.92640686 376.30273438 C112.2956368 373.66827145 109.65775741 371.04105696 107.01953125 368.4140625 C105.1888189 366.58454247 103.35847629 364.75465239 101.52848816 362.92440796 C97.69924355 359.09672542 93.86679124 355.27230063 90.03149414 351.45068359 C85.59281755 347.02778046 81.15943801 342.59962371 76.72900754 338.16846144 C72.46528735 333.90413206 68.1986711 329.64271649 63.93054771 325.38279343 C62.11376327 323.56920129 60.2975928 321.75499389 58.48203468 319.9401741 C55.95383157 317.41412555 53.42237194 314.89138934 50.88989258 312.36962891 C50.13301147 311.61229462 49.37613037 310.85496033 48.59631348 310.07467651 C47.91075882 309.39338684 47.22520416 308.71209717 46.51887512 308.01016235 C45.92029599 307.41325907 45.32171686 306.81635578 44.70499897 306.20136452 C42.47674397 304.17894835 42.57958729 304.68526687 40.27124023 306.86523438 Z " fill="#848484" transform="translate(348.6875,65.0625)"/>
<path d="M0 0 C2.60892348 2.22270125 5.16433951 4.49983259 7.71826172 6.78564453 C8.56259766 7.50880859 9.40693359 8.23197266 10.27685547 8.97705078 C15.22553212 13.24142476 19.59900003 17.7184356 23.71826172 22.78564453 C24.47880859 23.70861328 25.23935547 24.63158203 26.02294922 25.58251953 C40.59290687 43.64547216 50.77676687 64.40586864 56.71826172 86.78564453 C56.93144043 87.58196289 57.14461914 88.37828125 57.36425781 89.19873047 C63.54252317 113.51003316 63.3814716 142.61182502 56.71826172 166.78564453 C56.32356689 168.22157959 56.32356689 168.22157959 55.92089844 169.68652344 C44.28860236 210.468682 17.92630758 245.26751848 -18.92626953 266.52001953 C-34.35508813 275.0850124 -50.93077751 281.42528078 -68.28173828 284.78564453 C-69.19093018 284.96224609 -70.10012207 285.13884766 -71.03686523 285.32080078 C-80.28309258 286.93548459 -89.36230747 287.18712225 -98.71923828 287.16064453 C-99.51164917 287.15943604 -100.30406006 287.15822754 -101.1204834 287.15698242 C-114.18932285 287.10305776 -126.6223403 286.27504867 -139.28173828 282.78564453 C-140.71767334 282.39094971 -140.71767334 282.39094971 -142.18261719 281.98828125 C-184.260218 269.98648615 -219.2330834 242.52348557 -240.63134766 204.32275391 C-251.65389199 183.86109909 -259.25788238 160.28229775 -259.52001953 136.90283203 C-259.5298587 136.17456711 -259.53969788 135.44630219 -259.54983521 134.69596863 C-260.06912148 86.26689275 -244.74298263 45.24647936 -210.79003906 10.28271484 C-206.90005201 6.42169176 -202.65134406 3.08065976 -198.28173828 -0.21435547 C-197.27111328 -1.00197266 -196.26048828 -1.78958984 -195.21923828 -2.60107422 C-178.45961892 -15.36490587 -159.51471122 -23.65292729 -139.28173828 -29.21435547 C-137.98308838 -29.57231201 -137.98308838 -29.57231201 -136.65820312 -29.9375 C-90.96450608 -41.82334837 -36.37123782 -30.11001816 0 0 Z M-190.28173828 15.78564453 C-191.12091797 16.51654297 -191.96009766 17.24744141 -192.82470703 18.00048828 C-195.34303188 20.22926292 -197.8200548 22.49457278 -200.28173828 24.78564453 C-200.95978516 25.40955078 -201.63783203 26.03345703 -202.33642578 26.67626953 C-229.31604515 52.46401816 -241.92319604 89.20250715 -243.28173828 125.78564453 C-243.96522482 164.46023118 -227.41637168 199.76795958 -201.59423828 227.69189453 C-180.06180544 249.97545875 -152.56989232 263.25313342 -122.28173828 268.78564453 C-120.79480469 269.06021484 -120.79480469 269.06021484 -119.27783203 269.34033203 C-82.51318713 274.80469907 -44.24159449 264.50072684 -14.31762695 242.72583008 C11.13768958 223.52875325 30.14455709 196.82821716 39.03076172 166.16064453 C39.39451904 164.90948853 39.39451904 164.90948853 39.765625 163.63305664 C43.10266934 151.50295942 44.09848303 139.58709426 44.03076172 127.03564453 C44.0289389 126.33220917 44.02711609 125.6287738 44.02523804 124.90402222 C43.97877851 114.24299808 43.42303175 104.14849837 40.71826172 93.78564453 C40.54665527 93.10083008 40.37504883 92.41601562 40.19824219 91.71044922 C34.12767092 67.8079139 22.59206216 46.77348715 5.71826172 28.78564453 C5.2595166 28.28983887 4.80077148 27.7940332 4.328125 27.28320312 C-22.00013543 -0.96018464 -58.1419471 -15.22726261 -96.28173828 -17.21435547 C-129.72353191 -18.17232352 -165.11293044 -6.42724114 -190.28173828 15.78564453 Z " fill="#848484" transform="translate(315.28173828125,89.21435546875)"/>
<path d="M0 0 C3.56908454 3.11271337 6.98784744 6.36766769 10.39697266 9.65380859 C11.11498047 10.30865234 11.83298828 10.96349609 12.57275391 11.63818359 C18.86233559 17.53702974 23.63167243 24.51497167 28.39697266 31.65380859 C29.02732422 32.58837891 29.65767578 33.52294922 30.30712891 34.48583984 C47.62300238 62.05712814 52.36826513 98.45533792 45.23388672 130.03564453 C43.26417998 137.82478838 40.62714836 145.30339729 37.39697266 152.65380859 C36.97206543 153.63510742 36.97206543 153.63510742 36.53857422 154.63623047 C26.58228855 177.18914275 9.40603054 196.77039142 -11.60302734 209.65380859 C-12.57498047 210.27513672 -13.54693359 210.89646484 -14.54833984 211.53662109 C-42.14725103 228.53755038 -78.43866327 233.62040471 -109.97729492 226.4921875 C-132.59555122 220.79602358 -152.76990309 209.79112803 -169.60302734 193.65380859 C-170.48603516 192.84556641 -171.36904297 192.03732422 -172.27880859 191.20458984 C-189.08425799 175.30240364 -199.35989193 154.69972229 -205.60302734 132.65380859 C-205.94462891 131.47560547 -206.28623047 130.29740234 -206.63818359 129.08349609 C-214.20594122 97.05252197 -207.70807296 60.73496452 -190.70458984 32.83349609 C-171.74666544 4.14994505 -145.60086152 -15.00160492 -112.60302734 -24.34619141 C-111.42482422 -24.68779297 -110.24662109 -25.02939453 -109.03271484 -25.38134766 C-72.05303121 -34.11830588 -29.07353702 -24.41539493 0 0 Z M-102.97802734 -8.72119141 C-104.14374268 -8.46257324 -104.14374268 -8.46257324 -105.33300781 -8.19873047 C-113.37581303 -6.31876344 -120.97006835 -3.46592941 -128.60302734 -0.34619141 C-127.87212891 1.25482422 -127.87212891 1.25482422 -127.12646484 2.88818359 C-125.31378631 7.12844221 -125.14198144 10.0433496 -125.60302734 14.65380859 C-126.60302734 16.65380859 -126.60302734 16.65380859 -128.60302734 17.65380859 C-132.12518113 18.16745602 -135.3666057 18.46387795 -138.41552734 16.46630859 C-139.88049991 14.23029783 -141.28338507 11.9788926 -142.60302734 9.65380859 C-153.39674786 11.2210467 -163.84414309 25.49978268 -170.31787109 33.63818359 C-171.87183506 35.67699117 -171.87183506 35.67699117 -171.60302734 38.65380859 C-169.90146484 39.58193359 -169.90146484 39.58193359 -168.16552734 40.52880859 C-164.72802734 42.40380859 -164.72802734 42.40380859 -163.60302734 44.65380859 C-163.15232312 51.75240014 -163.15232312 51.75240014 -164.60302734 54.65380859 C-167.84657078 56.27558031 -171.10642799 56.25221989 -174.60302734 55.65380859 C-176.98887086 54.74667772 -179.27838506 53.71505833 -181.60302734 52.65380859 C-189.32243147 72.05409697 -189.32243147 72.05409697 -191.60302734 92.65380859 C-190.84376953 92.69119141 -190.08451172 92.72857422 -189.30224609 92.76708984 C-188.30837891 92.83283203 -187.31451172 92.89857422 -186.29052734 92.96630859 C-185.30439453 93.02431641 -184.31826172 93.08232422 -183.30224609 93.14208984 C-180.30675835 93.70997536 -179.31076104 94.15789011 -177.60302734 96.65380859 C-177.20458984 98.59130859 -177.20458984 98.59130859 -177.22802734 100.65380859 C-177.22029297 101.33443359 -177.21255859 102.01505859 -177.20458984 102.71630859 C-177.73664027 105.30353421 -178.44642783 106.13177354 -180.60302734 107.65380859 C-183.30224609 108.16552734 -183.30224609 108.16552734 -186.29052734 108.34130859 C-187.28439453 108.40705078 -188.27826172 108.47279297 -189.30224609 108.54052734 C-190.44113281 108.59660156 -190.44113281 108.59660156 -191.60302734 108.65380859 C-191.07614718 122.80054105 -186.94909337 135.66111534 -181.60302734 148.65380859 C-180.61302734 148.15880859 -179.62302734 147.66380859 -178.60302734 147.15380859 C-174.39095795 145.3559741 -171.15909025 145.1982023 -166.60302734 145.65380859 C-164.60302734 146.65380859 -164.60302734 146.65380859 -163.60302734 148.65380859 C-162.83061355 155.60553273 -162.83061355 155.60553273 -165.35302734 159.02880859 C-167.38658586 160.49748974 -169.30037084 161.66695581 -171.60302734 162.65380859 C-170.03578924 173.44752911 -155.75705326 183.89492434 -147.61865234 190.36865234 C-145.57984476 191.92261631 -145.57984476 191.92261631 -142.60302734 191.65380859 C-141.98427734 190.51943359 -141.36552734 189.38505859 -140.72802734 188.21630859 C-138.85302734 184.77880859 -138.85302734 184.77880859 -136.60302734 183.65380859 C-129.50443579 183.20310437 -129.50443579 183.20310437 -126.60302734 184.65380859 C-124.98125562 187.89735203 -125.00461604 191.15720924 -125.60302734 194.65380859 C-126.51015822 197.03965211 -127.54177761 199.32916631 -128.60302734 201.65380859 C-109.20273897 209.37321272 -109.20273897 209.37321272 -88.60302734 211.65380859 C-88.56564453 210.89455078 -88.52826172 210.13529297 -88.48974609 209.35302734 C-88.42400391 208.35916016 -88.35826172 207.36529297 -88.29052734 206.34130859 C-88.23251953 205.35517578 -88.17451172 204.36904297 -88.11474609 203.35302734 C-87.54686057 200.3575396 -87.09894582 199.36154229 -84.60302734 197.65380859 C-82.66552734 197.25537109 -82.66552734 197.25537109 -80.60302734 197.27880859 C-79.92240234 197.27107422 -79.24177734 197.26333984 -78.54052734 197.25537109 C-75.95330173 197.78742152 -75.1250624 198.49720908 -73.60302734 200.65380859 C-73.09130859 203.35302734 -73.09130859 203.35302734 -72.91552734 206.34130859 C-72.84978516 207.33517578 -72.78404297 208.32904297 -72.71630859 209.35302734 C-72.67892578 210.11228516 -72.64154297 210.87154297 -72.60302734 211.65380859 C-58.45629488 211.12692843 -45.5957206 206.99987462 -32.60302734 201.65380859 C-32.91498047 200.92935547 -33.22693359 200.20490234 -33.54833984 199.45849609 C-36.7501332 191.50702254 -36.7501332 191.50702254 -35.97802734 187.02880859 C-34.60302734 184.65380859 -34.60302734 184.65380859 -32.60302734 183.65380859 C-25.39222776 183.0722925 -25.39222776 183.0722925 -22.22802734 185.40380859 C-20.7593462 187.43736711 -19.58988013 189.35115209 -18.60302734 191.65380859 C-14.30756327 191.14417726 -11.56116644 188.44010636 -8.41552734 185.71630859 C-7.84398926 185.22702881 -7.27245117 184.73774902 -6.68359375 184.23364258 C-1.55164173 179.76027907 3.06763025 174.91086723 7.39697266 169.65380859 C8.25935547 168.61546875 8.25935547 168.61546875 9.13916016 167.55615234 C10.67273967 165.61682756 10.67273967 165.61682756 10.39697266 162.65380859 C8.69541016 161.72568359 8.69541016 161.72568359 6.95947266 160.77880859 C3.52197266 158.90380859 3.52197266 158.90380859 2.39697266 156.65380859 C1.94626843 149.55521704 1.94626843 149.55521704 3.39697266 146.65380859 C6.6405161 145.03203687 9.9003733 145.05539729 13.39697266 145.65380859 C15.78281617 146.56093947 18.07233037 147.59255886 20.39697266 148.65380859 C28.11637678 129.25352022 28.11637678 129.25352022 30.39697266 108.65380859 C29.63771484 108.61642578 28.87845703 108.57904297 28.09619141 108.54052734 C27.10232422 108.47478516 26.10845703 108.40904297 25.08447266 108.34130859 C24.09833984 108.28330078 23.11220703 108.22529297 22.09619141 108.16552734 C19.10070366 107.59764182 18.10470635 107.14972707 16.39697266 104.65380859 C15.99853516 102.71630859 15.99853516 102.71630859 16.02197266 100.65380859 C16.01423828 99.97318359 16.00650391 99.29255859 15.99853516 98.59130859 C16.53058558 96.00408298 17.24037314 95.17584365 19.39697266 93.65380859 C22.09619141 93.14208984 22.09619141 93.14208984 25.08447266 92.96630859 C26.07833984 92.90056641 27.07220703 92.83482422 28.09619141 92.76708984 C29.23507812 92.71101563 29.23507812 92.71101563 30.39697266 92.65380859 C29.87009249 78.50707613 25.74303868 65.64650185 20.39697266 52.65380859 C19.40697266 53.14880859 18.41697266 53.64380859 17.39697266 54.15380859 C13.18490326 55.95164309 9.95303556 56.10941488 5.39697266 55.65380859 C3.39697266 54.65380859 3.39697266 54.65380859 2.39697266 52.65380859 C1.88332523 49.13165481 1.5869033 45.89023024 3.58447266 42.84130859 C5.82048342 41.37633602 8.07188865 39.97345087 10.39697266 38.65380859 C8.82973455 27.86008808 -5.44900143 17.41269284 -13.58740234 10.93896484 C-15.62620992 9.38500088 -15.62620992 9.38500088 -18.60302734 9.65380859 C-19.22177734 10.78818359 -19.84052734 11.92255859 -20.47802734 13.09130859 C-22.35302734 16.52880859 -22.35302734 16.52880859 -24.60302734 17.65380859 C-31.88626434 18.11623634 -31.88626434 18.11623634 -34.54052734 16.40380859 C-35.77518269 14.37025861 -36.2741385 13.02180824 -36.60302734 10.65380859 C-35.82568359 7.85693359 -35.82568359 7.85693359 -34.66552734 4.90380859 C-34.28525391 3.91896484 -33.90498047 2.93412109 -33.51318359 1.91943359 C-33.21283203 1.17177734 -32.91248047 0.42412109 -32.60302734 -0.34619141 C-52.00331572 -8.06559553 -52.00331572 -8.06559553 -72.60302734 -10.34619141 C-72.64041016 -9.58693359 -72.67779297 -8.82767578 -72.71630859 -8.04541016 C-72.78205078 -7.05154297 -72.84779297 -6.05767578 -72.91552734 -5.03369141 C-72.97353516 -4.04755859 -73.03154297 -3.06142578 -73.09130859 -2.04541016 C-73.65919411 0.95007759 -74.10710886 1.9460749 -76.60302734 3.65380859 C-78.54052734 4.05224609 -78.54052734 4.05224609 -80.60302734 4.02880859 C-81.62396484 4.04041016 -81.62396484 4.04041016 -82.66552734 4.05224609 C-85.25275296 3.52019567 -86.08099229 2.81040811 -87.60302734 0.65380859 C-88.11474609 -2.04541016 -88.11474609 -2.04541016 -88.29052734 -5.03369141 C-88.35626953 -6.02755859 -88.42201172 -7.02142578 -88.48974609 -8.04541016 C-88.54582031 -9.18429688 -88.54582031 -9.18429688 -88.60302734 -10.34619141 C-93.63479144 -10.55254135 -98.10233716 -9.81592781 -102.97802734 -8.72119141 Z " fill="#563bdb" transform="translate(296.60302734375,115.34619140625)"/>
<path d="M0 0 C0.66 -0.0103125 1.32 -0.020625 2 -0.03125 C4.93837073 0.74925473 6.0971325 2.1554793 8 4.5 C8.48101807 7.29681396 8.48101807 7.29681396 8.45410156 10.55371094 C8.45379944 11.77467468 8.45349731 12.99563843 8.45318604 14.25360107 C8.43254089 15.56725647 8.41189575 16.88091187 8.390625 18.234375 C8.38316087 19.59628468 8.37746874 20.95820512 8.37347412 22.32012939 C8.35823092 25.89770368 8.31896181 29.47462422 8.2746582 33.05194092 C8.23367632 36.70511024 8.21545697 40.35838562 8.1953125 44.01171875 C8.1524651 51.1747766 8.08423115 58.33729656 8 65.5 C8.9485083 65.79946533 9.8970166 66.09893066 10.87426758 66.4074707 C16.53556268 68.38624877 19.79531823 72.59582558 22.9375 77.5625 C25.36666915 84.27307977 25.37591485 93.39319598 22.5 99.9375 C18.98003218 105.76235779 13.51037066 110.48216582 7 112.5 C-0.83457059 113.30498575 -8.62123733 113.62579143 -15 108.5 C-18.85155594 104.82898574 -21.83406555 101.75800152 -23 96.5 C-23.83232147 96.51332367 -23.83232147 96.51332367 -24.68145752 96.5269165 C-30.45631611 96.61540593 -36.23098216 96.67574053 -42.00634766 96.71972656 C-44.16170067 96.73984276 -46.31699911 96.76713925 -48.47216797 96.80175781 C-51.57012395 96.85027486 -54.66735846 96.87296873 -57.765625 96.890625 C-58.72929993 96.91127014 -59.69297485 96.93191528 -60.68585205 96.95318604 C-67.37504236 96.95542998 -67.37504236 96.95542998 -70.60644531 94.60058594 C-72.10765663 92.3377229 -72.54205975 91.19182409 -72.5 88.5 C-72.51546875 87.51 -72.51546875 87.51 -72.53125 86.5 C-71.70466706 83.38815832 -70.6246434 82.41267569 -68 80.5 C-64.58823853 79.93242965 -61.21576143 80.03546153 -57.765625 80.109375 C-56.77246277 80.11503479 -55.77930054 80.12069458 -54.75604248 80.12652588 C-51.58686941 80.14889974 -48.4188308 80.19909894 -45.25 80.25 C-43.10027676 80.27006365 -40.95053577 80.28831466 -38.80078125 80.3046875 C-33.53346771 80.34876761 -28.26681491 80.41568967 -23 80.5 C-22.69747314 79.71447754 -22.39494629 78.92895508 -22.08325195 78.11962891 C-19.77974795 72.54906366 -15.45199953 68.07455534 -10 65.5 C-9.34 65.5 -8.68 65.5 -8 65.5 C-8.00888245 64.7446698 -8.01776489 63.9893396 -8.0269165 63.21112061 C-8.10709389 56.08978913 -8.16797985 48.96867675 -8.20724869 41.84701157 C-8.2281161 38.18573489 -8.25641706 34.52483142 -8.30175781 30.86376953 C-8.34524763 27.33001289 -8.36914348 23.79661501 -8.37950897 20.26261139 C-8.39048737 18.25948748 -8.42170876 16.25650774 -8.45318604 14.25360107 C-8.45348816 13.03263733 -8.45379028 11.81167358 -8.45410156 10.55371094 C-8.46298401 9.47893494 -8.47186646 8.40415894 -8.48101807 7.29681396 C-7.6703402 2.58323806 -4.81141169 -0.07517831 0 0 Z M-5.375 83.125 C-7.48706506 86.21186432 -7.61195145 87.8282913 -7 91.5 C-5.5 94 -5.5 94 -3 95.5 C0.6717087 96.11195145 2.28813568 95.98706506 5.375 93.875 C7.48706506 90.78813568 7.61195145 89.1717087 7 85.5 C5.5 83 5.5 83 3 81.5 C-0.6717087 80.88804855 -2.28813568 81.01293494 -5.375 83.125 Z " fill="#563bdb" transform="translate(216,127.5)"/>
</svg>
