<?xml version="1.0" encoding="UTF-8"?>
<svg version="1.1" xmlns="http://www.w3.org/2000/svg" width="512" height="512">
<path d="M0 0 C0.80131348 0.17160645 1.60262695 0.34321289 2.42822266 0.52001953 C20.32640591 4.3871883 37.12337039 10.49837374 53.28515625 19.09179688 C54.80562846 19.89705835 56.33944866 20.67700394 57.875 21.453125 C83.2672395 34.6026776 106.70301668 55.61612428 123 79 C123.40089844 79.56187012 123.80179687 80.12374023 124.21484375 80.70263672 C146.94913495 112.65281466 159.46532566 150.86580438 161 190 C161.04125 190.969375 161.0825 191.93875 161.125 192.9375 C162.05529869 237.59183735 147.76546475 283.11217343 120.265625 318.37597656 C119.14072998 319.81941824 118.03750105 321.2796861 116.9375 322.7421875 C87.8060509 360.18065139 45.87943353 383.88697277 0 394 C-0.76119141 394.17789062 -1.52238281 394.35578125 -2.30664062 394.5390625 C-28.24240689 400.40077828 -59.29766305 399.06226364 -85 393 C-85.91185059 392.78569336 -86.82370117 392.57138672 -87.76318359 392.35058594 C-100.72442716 389.18683595 -112.86205613 384.48566745 -125 379 C-126.19753906 378.46503906 -127.39507812 377.93007813 -128.62890625 377.37890625 C-131.09347165 376.26780589 -133.55092731 375.1447351 -136 374 C-136.78503906 374.81984375 -137.57007813 375.6396875 -138.37890625 376.484375 C-139.43968956 377.5733207 -140.50091104 378.66183969 -141.5625 379.75 C-142.07619141 380.28882813 -142.58988281 380.82765625 -143.11914062 381.3828125 C-148.36528188 386.72670794 -153.92806145 390.74300162 -161.62109375 391.1328125 C-162.55050781 391.13023437 -163.47992188 391.12765625 -164.4375 391.125 C-165.36433594 391.12757813 -166.29117188 391.13015625 -167.24609375 391.1328125 C-170 391 -170 391 -172.20578003 390.06297302 C-175.5924445 389.98664814 -176.01409499 390.54260791 -178.45046997 392.7625885 C-179.80295875 394.1129133 -181.13873849 395.48008977 -182.46142578 396.85961914 C-183.19551163 397.60086029 -183.92959747 398.34210144 -184.68592834 399.10580444 C-186.28151813 400.72090686 -187.87010421 402.34295101 -189.45251846 403.97096443 C-191.96262018 406.55295965 -194.4905355 409.11623417 -197.02389526 411.67539978 C-202.40787012 417.12122372 -207.76730839 422.59083535 -213.125 428.0625 C-219.31429375 434.37957577 -225.51343521 440.68652915 -231.73302841 446.97378349 C-234.21362678 449.4903302 -236.67810948 452.02192817 -239.14212036 454.55470276 C-250.59796868 466.22202774 -260.37911364 474.71066266 -277.375 475.3125 C-288.32339255 475.05291468 -298.20855114 471.40135127 -306.26171875 463.890625 C-315.23320064 454.27240043 -318.50248131 444.31404679 -318.24609375 431.23828125 C-317.2759823 418.47284645 -310.3018869 408.63360949 -301.32641602 399.9675293 C-300.5826622 399.23282913 -299.83890839 398.49812897 -299.07261658 397.74116516 C-297.47287292 396.16317493 -295.86858635 394.58977911 -294.26016426 393.0206356 C-291.71660939 390.53781241 -289.18699477 388.04151893 -286.66062927 385.54121399 C-279.48124246 378.44104654 -272.27618186 371.36712828 -265.06567383 364.29858398 C-260.64374102 359.96186155 -256.23635107 355.61078258 -251.83732414 351.25083351 C-250.15927498 349.5939541 -248.47541995 347.94293381 -246.78576851 346.2978878 C-244.43287542 344.00708132 -242.09868787 341.69868187 -239.76782227 339.38549805 C-238.71058456 338.3700441 -238.71058456 338.3700441 -237.63198853 337.33407593 C-235.92103059 335.61641109 -234.35700199 334.00878078 -233 332 C-232.8910192 329.23246189 -232.8910192 329.23246189 -234 327 C-234.68231998 318.22169108 -234.22396951 311.82815427 -228.45703125 304.98046875 C-226.54353908 302.85711177 -224.58226947 300.78737965 -222.59375 298.734375 C-220.52687762 296.55544327 -218.76533002 294.41347673 -217 292 C-217.26627197 291.4738208 -217.53254395 290.9476416 -217.80688477 290.40551758 C-230.69302446 264.72474726 -240.03616442 237.09785141 -240.203125 208.07421875 C-240.21018463 207.25302551 -240.21724426 206.43183228 -240.22451782 205.58575439 C-240.44900832 171.82286135 -240.44900832 171.82286135 -237 157 C-236.81195801 156.13342773 -236.62391602 155.26685547 -236.43017578 154.37402344 C-228.30677334 117.472967 -210.75246945 85.46930075 -185 58 C-184.31043213 57.25943359 -184.31043213 57.25943359 -183.60693359 56.50390625 C-156.00241168 27.09330967 -119.05497465 8.68749481 -80 0 C-79.23445801 -0.17934082 -78.46891602 -0.35868164 -77.68017578 -0.54345703 C-53.6455412 -5.97376375 -23.96571434 -5.49672347 0 0 Z M-175.63330078 72.69873047 C-198.15829203 96.87550735 -212.42798151 127.0624347 -220 159 C-220.16516113 159.66708984 -220.33032227 160.33417969 -220.50048828 161.02148438 C-225.86044186 183.65855822 -225.67468016 212.45423568 -220 235 C-219.80132324 235.8156543 -219.60264648 236.63130859 -219.39794922 237.47167969 C-211.68686422 268.39688501 -197.98430521 296.7275519 -176 320 C-174.89140313 321.3087602 -173.78709026 322.62116359 -172.6875 323.9375 C-142.41887091 358.43126954 -95.70260223 377.36986444 -50.69067383 380.55078125 C-4.4906102 383.25946948 42.70175446 368.09947362 77.734375 337.62109375 C79.40922813 336.12133891 81.07396332 334.61017946 82.7265625 333.0859375 C84.8389424 331.1477745 86.99998072 329.28976729 89.1875 327.4375 C114.65074543 305.19421535 130.9712047 271.28850908 139 239 C139.21027832 238.175 139.42055664 237.35 139.63720703 236.5 C145.47639911 212.53295985 146.0461476 183.02162148 140 159 C139.70198486 157.77651855 139.70198486 157.77651855 139.39794922 156.52832031 C131.68686422 125.60311499 117.98430521 97.2724481 96 74 C94.89140313 72.6912398 93.78709026 71.37883641 92.6875 70.0625 C61.80612321 34.87045047 14.78937429 16.7447415 -30.953125 13.296875 C-85.76108981 9.77336222 -138.12115593 33.68385695 -175.63330078 72.69873047 Z M-212.0625 312.5625 C-214.65456798 315.26375766 -215.99597832 316.99020809 -217.4375 320.5 C-216.96320086 324.29439309 -216.52262946 324.90977108 -214.06054688 327.61157227 C-213.42165527 328.3141214 -212.78276367 329.01667053 -212.12451172 329.74050903 C-205.64632197 336.63028568 -198.99751117 343.35030953 -192.33935547 350.06567383 C-190.43815508 351.98479541 -188.54587491 353.91211415 -186.66064453 355.84692383 C-183.92615307 358.65317261 -181.16728251 361.43469248 -178.40625 364.21484375 C-177.14814514 365.5146946 -177.14814514 365.5146946 -175.86462402 366.84080505 C-171.18480049 371.7285558 -171.18480049 371.7285558 -165.05981445 374.12988281 C-161.42714944 373.97568368 -160.26792491 373.32052822 -157.6875 370.8125 C-157.03136719 370.20019531 -156.37523437 369.58789062 -155.69921875 368.95703125 C-154.03469874 367.03996337 -153.08384744 365.27693819 -152 363 C-152.44690186 362.6690332 -152.89380371 362.33806641 -153.35424805 361.99707031 C-163.43792368 354.49594107 -172.95912684 346.72911891 -182 338 C-182.97453125 337.1028125 -182.97453125 337.1028125 -183.96875 336.1875 C-191.45683408 329.12326974 -197.52600952 320.42517442 -203.5625 312.125 C-204.366875 311.09375 -205.17125 310.0625 -206 309 C-208.97461833 309 -209.94667176 310.53883125 -212.0625 312.5625 Z M-228.62768555 351.46655273 C-229.3204509 352.15435318 -230.01321625 352.84215363 -230.72697449 353.55079651 C-233.03307421 355.8422156 -235.33519421 358.13757982 -237.63671875 360.43359375 C-239.2351699 362.02629455 -240.83362474 363.61899164 -242.43208313 365.21168518 C-245.79253761 368.56161036 -249.15063581 371.91387977 -252.50756836 375.26733398 C-256.79685716 379.55115988 -261.09532059 383.82565056 -265.39612103 388.0979147 C-268.70672513 391.3898269 -272.01053618 394.68849419 -275.31257057 397.98900032 C-276.89322171 399.5666349 -278.47636163 401.1417802 -280.06207848 402.71432304 C-282.2903698 404.92543144 -284.50886136 407.14595683 -286.7253418 409.36889648 C-287.37545227 410.00979218 -288.02556274 410.65068787 -288.69537354 411.31100464 C-295.22422534 417.89920818 -301.0426407 424.64235262 -301.25 434.25 C-301.13657614 441.92501419 -298.44315267 447.55684733 -293 453 C-288.1787174 456.39114933 -283.62152112 458.12327652 -277.75 458.25 C-277.04359375 458.27578125 -276.3371875 458.3015625 -275.609375 458.328125 C-268.70755653 457.46023166 -263.81801646 454.57187515 -258.9543457 449.76074219 C-258.40647305 449.2370039 -257.85860041 448.71326561 -257.29412556 448.17365646 C-255.51504278 446.46323207 -253.75599534 444.73409999 -252 443 C-251.40715084 442.41887955 -250.81430168 441.83775909 -250.2034874 441.23902893 C-245.6800338 436.80092208 -241.20255699 432.31789097 -236.73046875 427.828125 C-235.31437396 426.41015938 -233.89805396 424.99241863 -232.48152161 423.57489014 C-228.79857613 419.88817179 -225.11864646 416.19845813 -221.43939209 412.50805664 C-217.66653229 408.72486864 -213.89075149 404.94459825 -210.11523438 401.1640625 C-202.7406695 393.77885286 -195.36929552 386.39046738 -188 379 C-188.93323956 377.90045026 -189.86805782 376.80224034 -190.80351257 375.70457458 C-191.32391459 375.09286124 -191.84431662 374.4811479 -192.3804884 373.85089779 C-194.9500161 370.91425125 -197.69381158 368.16332467 -200.45703125 365.41015625 C-201.0454631 364.82076767 -201.63389496 364.23137909 -202.24015808 363.62413025 C-203.46999481 362.39361893 -204.70107144 361.16434566 -205.93334961 359.9362793 C-207.8284932 358.04655252 -209.71816277 356.15146729 -211.60742188 354.25585938 C-212.80697065 353.05697038 -214.00682903 351.85839108 -215.20703125 350.66015625 C-215.77363968 350.09152359 -216.34024811 349.52289093 -216.92402649 348.93702698 C-222.74639638 343.14987565 -223.40330522 346.25101797 -228.62768555 351.46655273 Z " fill="#848484" transform="translate(336,19)"/>
<path d="M0 0 C0.73660355 -0.00701431 1.47320709 -0.01402863 2.23213196 -0.02125549 C4.59622381 -0.03866105 6.96006517 -0.04510771 9.32421875 -0.046875 C10.1319574 -0.04754974 10.93969604 -0.04822449 11.77191162 -0.04891968 C23.76638325 -0.03298582 35.30171422 0.38746727 47.01171875 3.203125 C47.72779297 3.36409668 48.44386719 3.52506836 49.18164062 3.69091797 C72.68921293 9.07160899 95.29684031 20.02217308 114.01171875 35.203125 C114.54925781 35.63915039 115.08679688 36.07517578 115.640625 36.52441406 C144.13897984 59.78264217 164.72763002 90.64667334 173.82421875 126.453125 C174.01910889 127.21971436 174.21399902 127.98630371 174.41479492 128.77612305 C177.52306177 141.78043207 178.38780567 154.58405989 178.32421875 167.890625 C178.32148453 169.07975494 178.32148453 169.07975494 178.31869507 170.29290771 C178.27276476 182.16387189 177.79786164 193.61586938 175.01171875 205.203125 C174.85074707 205.91919922 174.68977539 206.63527344 174.52392578 207.37304688 C167.43431746 238.34666709 150.99368656 265.57746853 129.01171875 288.203125 C128.48255859 288.75492432 127.95339844 289.30672363 127.40820312 289.87524414 C101.13833847 316.82411801 59.94207322 335.85004769 22.10188293 336.39292908 C21.41599594 336.39732498 20.73010895 336.40172089 20.0234375 336.40625 C19.28683395 336.41326431 18.55023041 336.42027863 17.79130554 336.42750549 C15.42721369 336.44491105 13.06337233 336.45135771 10.69921875 336.453125 C9.8914801 336.45379974 9.08374146 336.45447449 8.25152588 336.45516968 C-3.74294575 336.43923582 -15.27827672 336.01878273 -26.98828125 333.203125 C-27.70435547 333.04215332 -28.42042969 332.88118164 -29.15820312 332.71533203 C-60.13182334 325.62572371 -87.36262478 309.18509281 -109.98828125 287.203125 C-110.53935547 286.67541504 -111.09042969 286.14770508 -111.65820312 285.60400391 C-115.96100052 281.41387623 -119.73714561 276.98689237 -123.36328125 272.203125 C-123.92490967 271.46255859 -124.48653809 270.72199219 -125.06518555 269.95898438 C-144.55163029 243.86937249 -157.98064317 211.09991954 -158.19140625 178.21484375 C-158.19842056 177.4782402 -158.20543488 176.74163666 -158.21266174 175.98271179 C-158.2300673 173.61861994 -158.23651396 171.25477858 -158.23828125 168.890625 C-158.23895599 168.08288635 -158.23963074 167.27514771 -158.24032593 166.44293213 C-158.22439207 154.4484605 -157.80393898 142.91312953 -154.98828125 131.203125 C-154.82730957 130.48705078 -154.66633789 129.77097656 -154.50048828 129.03320312 C-147.41087996 98.05958291 -130.97024906 70.82878147 -108.98828125 48.203125 C-108.46057129 47.65205078 -107.93286133 47.10097656 -107.38916016 46.53320312 C-103.19903248 42.23040573 -98.77204862 38.45426064 -93.98828125 34.828125 C-93.24771484 34.26649658 -92.50714844 33.70486816 -91.74414062 33.1262207 C-65.65452874 13.63977596 -32.88507579 0.21076308 0 0 Z M-98.98828125 63.203125 C-99.80619141 63.93595703 -99.80619141 63.93595703 -100.640625 64.68359375 C-119.01361849 81.70397422 -130.31561987 106.49668413 -136.98828125 130.203125 C-137.32472656 131.39808594 -137.66117188 132.59304687 -138.0078125 133.82421875 C-147.46266899 172.62173331 -139.63071775 213.46341573 -119.59130859 247.58154297 C-112.44822705 259.09026453 -103.55952363 268.67473893 -93.98828125 278.203125 C-93.45944336 278.75347412 -92.93060547 279.30382324 -92.38574219 279.87084961 C-75.17925092 297.59353562 -51.46074626 308.59632089 -27.98828125 315.203125 C-26.79332031 315.53957031 -25.59835937 315.87601562 -24.3671875 316.22265625 C14.18010054 325.61653317 55.72381941 318.0918371 89.48828125 297.70800781 C99.18692915 291.49227736 107.78474593 284.23932744 116.01171875 276.203125 C116.85992187 275.41679687 117.708125 274.63046875 118.58203125 273.8203125 C129.63769118 263.31916843 137.97237022 250.65277389 145.01171875 237.203125 C145.61757813 236.04554688 146.2234375 234.88796875 146.84765625 233.6953125 C151.91907019 223.6210914 155.17895463 213.0956177 158.01171875 202.203125 C158.35460937 200.92953125 158.6975 199.6559375 159.05078125 198.34375 C163.44648544 178.54254045 163.24516641 153.77861625 158.01171875 134.203125 C157.73763184 133.0903418 157.73763184 133.0903418 157.45800781 131.95507812 C150.71943365 104.84587173 137.12409823 81.28957664 117.43359375 61.62890625 C116.03282418 60.22587737 114.64629492 58.80766633 113.30078125 57.3515625 C87.71913291 30.08849126 49.24288245 18.53815618 13.01171875 16.203125 C-29.31755121 14.89228309 -69.7930746 33.23962344 -98.98828125 63.203125 Z " fill="#848484" transform="translate(285.98828125,47.796875)"/>
<path d="M0 0 C0.85207031 0.48339844 1.70414063 0.96679688 2.58203125 1.46484375 C22.60759293 13.91316588 35.36357223 34.4224447 41 57 C44.36285089 71.96965926 42.69647518 88.52377009 38 103 C37.72575195 103.86512207 37.45150391 104.73024414 37.16894531 105.62158203 C25.65799592 141.24630482 7.78413216 175.44026953 -10.36816406 208.05712891 C-11.86942229 210.76451471 -13.35844596 213.47831332 -14.84269714 216.1950531 C-16.16925904 218.62137358 -17.50106778 221.04479116 -18.83377075 223.46774292 C-19.77973227 225.19033027 -20.72088638 226.91555492 -21.66186523 228.64086914 C-32.70567044 248.63326558 -32.70567044 248.63326558 -39 252 C-43.8942956 253.18801705 -47.87159091 253.30090909 -52.75 252 C-60.46677636 247.25121455 -64.33326328 239.32531206 -68.5625 231.5625 C-69.16964844 230.46212402 -69.77679688 229.36174805 -70.40234375 228.22802734 C-72.27699763 224.82341087 -74.13934187 221.41228134 -76 218 C-77.10273742 215.99081562 -78.20559684 213.98169819 -79.30859375 211.97265625 C-142.98635426 95.56660381 -142.98635426 95.56660381 -132.5 53.4375 C-130.04194464 45.121951 -126.26524834 37.51807173 -122 30 C-121.51660156 29.14792969 -121.03320312 28.29585937 -120.53515625 27.41796875 C-108.08683412 7.39240707 -87.5775553 -5.36357223 -65 -11 C-42.31331267 -16.22276504 -19.78055435 -11.22215638 0 0 Z M-98 27 C-111.27222103 40.4828912 -117.37428543 57.53491304 -117.44873047 76.26269531 C-117.25192665 86.81208946 -114.55130656 96.13079324 -111 106 C-110.66742188 106.9266748 -110.33484375 107.85334961 -109.9921875 108.80810547 C-100.83072103 133.78582587 -89.062449 158.20891288 -76.32519531 181.55712891 C-74.79013554 184.3868651 -73.28149953 187.23000496 -71.7734375 190.07421875 C-65.77348008 201.35885115 -59.63725112 212.5552594 -53.25 223.625 C-52.35522949 225.19060669 -52.35522949 225.19060669 -51.44238281 226.7878418 C-50.88905273 227.73699463 -50.33572266 228.68614746 -49.765625 229.6640625 C-49.27868164 230.50404785 -48.79173828 231.3440332 -48.29003906 232.20947266 C-47.86432617 232.80034668 -47.43861328 233.3912207 -47 234 C-46.34 234 -45.68 234 -45 234 C-37.35962623 220.76241779 -29.88299859 207.44837815 -22.62451172 193.99755859 C-20.9198068 190.85202703 -19.19679133 187.71695004 -17.47265625 184.58203125 C-3.64924428 159.30347093 9.52339388 133.25478025 19 106 C19.31179199 105.11602539 19.62358398 104.23205078 19.94482422 103.32128906 C27.01642106 82.79613767 27.55058362 63.68629592 18.25 43.6875 C15.14307039 37.87855391 11.37934176 32.90453957 7 28 C6.32195312 27.22785156 5.64390625 26.45570312 4.9453125 25.66015625 C-8.43370123 11.32549868 -25.96022117 5.68962276 -45 4 C-65.77744822 4 -83.39561323 12.59567333 -98 27 Z " fill="#563bdb" transform="translate(342,100)"/>
<path d="M0 0 C8.80288754 6.34043826 15.4186507 14.72648904 17.58203125 25.4921875 C18.92007691 37.90936834 17.85729499 48.88109459 10.39453125 59.2421875 C3.58210875 67.3274193 -4.72289951 73.55522767 -15.48876953 74.71533203 C-28.40007937 75.61089799 -39.16843729 74.04490094 -49.3515625 65.46484375 C-57.86959925 57.33325857 -62.42046403 48.68416257 -62.88867188 36.85693359 C-63.04371176 24.34263074 -60.22647828 14.71931927 -51.41796875 5.4921875 C-37.63784493 -7.66275112 -16.31305228 -10.17259803 0 0 Z M-41.97265625 21.39453125 C-46.0977477 27.38148831 -46.13405017 33.44153962 -45.41796875 40.4921875 C-43.64454442 47.13691664 -38.97130405 51.66586709 -33.41796875 55.4921875 C-27.41909871 58.43281007 -20.53513345 58.59102538 -14.10546875 56.875 C-7.97664014 54.16969675 -3.17844083 49.08355055 -0.24609375 43.1015625 C1.69562739 36.98330909 1.64185035 29.90525368 -1.10546875 24.0546875 C-4.41170899 18.47107199 -9.15015755 13.55934922 -15.41796875 11.4921875 C-27.25601609 9.99542289 -34.32970758 12.45405874 -41.97265625 21.39453125 Z " fill="#563bdb" transform="translate(318.41796875,141.5078125)"/>
</svg>
