<?xml version="1.0" encoding="UTF-8"?>
<svg version="1.1" xmlns="http://www.w3.org/2000/svg" width="512" height="512">
<path d="M0 0 C1.65997722 -0.00346228 3.31995213 -0.00823066 4.97992229 -0.01418173 C9.51313879 -0.02664301 14.04616451 -0.02054366 18.57938147 -0.01122308 C23.47925416 -0.00441287 28.37909491 -0.01492357 33.27896118 -0.02316284 C42.86664721 -0.03648136 52.45426266 -0.03363082 62.04195142 -0.02492492 C69.83619086 -0.01814138 77.63041056 -0.01723456 85.4246521 -0.02049637 C87.0905591 -0.02118592 87.0905591 -0.02118592 88.79012078 -0.0218894 C91.0465076 -0.0228486 93.30289442 -0.02382124 95.55928123 -0.02480717 C116.70228745 -0.03335555 137.84525461 -0.02353558 158.98825443 -0.00740607 C177.1179216 0.0059966 195.24753114 0.00366835 213.37719727 -0.01016235 C234.44612609 -0.0262279 255.51502071 -0.03253163 276.58395481 -0.02332556 C278.83189964 -0.02236995 281.07984447 -0.02142683 283.32778931 -0.02049637 C284.43373324 -0.02003354 285.53967717 -0.01957072 286.67913455 -0.01909386 C294.4612588 -0.0165069 302.2433613 -0.02086864 310.02548218 -0.02793503 C319.51322196 -0.03636105 329.00088732 -0.0340467 338.48861861 -0.0180928 C343.32656687 -0.01022494 348.16439116 -0.00709313 353.00233841 -0.01704025 C357.43618738 -0.02601845 361.86979816 -0.02100308 366.3036257 -0.0051076 C367.90239084 -0.00177299 369.50117636 -0.00342393 371.09992826 -0.01073496 C389.86179654 -0.08991072 405.1591901 4.14763606 418.6809082 17.52548218 C432.02910162 31.66682912 435.76785763 47.87799617 435.6262207 66.88095093 C435.63395508 67.91864624 435.64168945 68.95634155 435.6496582 70.02548218 C435.60664987 87.29332951 431.38473436 100.94032379 420.3762207 114.38095093 C419.85543945 115.0280603 419.3346582 115.67516968 418.7980957 116.34188843 C409.90577534 126.2671551 397.08838768 130.8518287 384.3762207 133.38095093 C383.7162207 133.38095093 383.0562207 133.38095093 382.3762207 133.38095093 C382.3762207 218.85095093 382.3762207 304.32095093 382.3762207 392.38095093 C385.3462207 393.37095093 388.3162207 394.36095093 391.3762207 395.38095093 C396.30191619 400.20184439 398.42628899 404.42700942 398.67700195 411.25204468 C398.69154905 413.10746051 398.69513211 414.96298914 398.6887207 416.81845093 C398.70483398 417.74722046 398.72094727 418.67598999 398.73754883 419.63290405 C398.74245299 426.52324553 397.60410342 430.80129726 393.0012207 436.13095093 C388.39338752 440.08052222 384.54540246 440.63111857 378.56202793 440.63542652 C377.54811138 440.64023624 377.54811138 440.64023624 376.51371166 440.64514312 C374.24428951 440.65345739 371.9751303 440.64751393 369.70570374 440.64164734 C368.0639923 440.64466737 366.42228227 440.64855611 364.78057474 440.65323991 C360.26560462 440.66354771 355.75071366 440.66133102 351.23573697 440.65705931 C346.36789851 440.65459714 341.50007936 440.66359989 336.63224792 440.6710968 C327.0944268 440.68385983 317.5566338 440.68563551 308.01880557 440.68329654 C300.26820949 440.68151508 292.51762196 440.68325932 284.7670269 440.68752098 C283.11375092 440.68841376 283.11375092 440.68841376 281.42707543 440.68932458 C279.18815148 440.69053631 276.94922754 440.69175044 274.7103036 440.69296696 C253.70391162 440.70384859 232.69753568 440.701677 211.69114279 440.69558211 C192.46404415 440.69041188 173.23699617 440.70167011 154.00990755 440.72068033 C134.27743895 440.74004101 114.54499432 440.74831788 94.81251615 440.74455708 C83.73024449 440.74264241 72.64801596 440.74515847 61.56575203 440.75927162 C52.13184046 440.77116382 42.69799856 440.77261461 33.26408608 440.76048145 C28.44920416 440.75457767 23.63444981 440.75353464 18.81957626 440.76548386 C14.41352285 440.7762916 10.00770428 440.77330052 5.60166209 440.75922217 C4.00615694 440.75656111 2.41063367 440.75898572 0.81514622 440.76695804 C-1.35143573 440.77703414 -3.5171966 440.76866862 -5.68374538 440.75568104 C-7.48980665 440.75576356 -7.48980665 440.75576356 -9.33235401 440.75584775 C-14.63332538 440.1520615 -18.55034245 438.0412559 -21.9362793 433.94345093 C-22.42741211 433.36723999 -22.91854492 432.79102905 -23.42456055 432.19735718 C-26.45654386 427.60493945 -25.87836721 421.92797651 -25.9362793 416.63095093 C-25.9652832 415.7621228 -25.99428711 414.89329468 -26.02416992 413.99813843 C-26.08317308 407.95258358 -25.08573089 403.41055025 -21.6237793 398.38095093 C-19.34187687 396.26204154 -17.39031391 394.76421823 -14.6237793 393.38095093 C-14.2937793 307.58095093 -13.9637793 221.78095093 -13.6237793 133.38095093 C-18.2437793 132.39095093 -22.8637793 131.40095093 -27.6237793 130.38095093 C-42.51841198 124.87393156 -53.96004825 114.5066516 -61.15893555 100.36532593 C-69.48390957 81.43389811 -70.1171723 55.70970298 -62.6237793 36.38095093 C-56.24465914 21.25720101 -43.70339197 9.60475747 -28.6237793 3.38095093 C-19.1622748 0.17685951 -9.87368981 -0.04515198 0 0 Z M-42.61987305 27.96298218 C-51.89382433 39.15318851 -54.15444973 50.37736213 -54.06982422 64.57528687 C-54.06131887 66.74585139 -54.09015542 68.91376999 -54.12182617 71.08407593 C-54.195828 85.56490162 -50.5506957 96.84427172 -40.5925293 107.56845093 C-27.24456661 120.33606741 -12.18567609 121.69018888 5.4309082 121.63491821 C7.04123576 121.637226 8.65156227 121.64040466 10.2618866 121.6443727 C14.66243975 121.6526856 19.06290564 121.64861143 23.46345901 121.64240026 C28.21880928 121.63786238 32.97414487 121.64486615 37.72949219 121.65036011 C47.03555856 121.6592415 56.34159263 121.65733768 65.64766026 121.65153483 C73.21261929 121.64701341 80.77756929 121.64640751 88.3425293 121.64858246 C89.42025384 121.64888892 90.49797838 121.64919539 91.60836124 121.64951114 C93.79791133 121.65015061 95.98746141 121.65079904 98.17701149 121.65145633 C118.69619873 121.65715595 139.21536808 121.6506075 159.73455238 121.63985559 C177.33126328 121.63092042 194.92794778 121.63247257 212.5246582 121.64169312 C232.97169936 121.65240224 253.41872486 121.65660666 273.86576843 121.65046859 C276.04714966 121.64983151 278.22853088 121.64920276 280.40991211 121.64858246 C282.01972757 121.64811963 282.01972757 121.64811963 283.66206455 121.64764746 C291.21571288 121.64592245 298.76935126 121.64883144 306.32299805 121.65354156 C315.53153446 121.65915752 324.74003678 121.65761889 333.9485693 121.64698008 C338.64459547 121.64173302 343.34056486 121.63965017 348.03659058 121.64627838 C352.33961702 121.65225993 356.64253431 121.64892646 360.94555092 121.63832328 C362.49789638 121.63609858 364.05025115 121.63720451 365.60259056 121.64207485 C383.17833812 121.69296553 397.07803474 119.33112974 410.1887207 106.72470093 C420.33263863 95.85621744 423.06945414 83.55183507 422.89770508 69.03573608 C422.8762385 66.88273576 422.89762339 64.73307008 422.9230957 62.58016968 C422.95113908 49.23314851 419.88535924 38.81737298 411.3762207 28.38095093 C410.87606445 27.74415405 410.3759082 27.10735718 409.8605957 26.45126343 C403.222294 18.90773876 392.187871 13.91440797 382.3762207 12.38095093 C377.08404446 12.08587372 371.79739148 12.1063332 366.49920654 12.12025452 C364.87155649 12.11723204 363.24390785 12.11334207 361.61626172 12.10866195 C357.15385767 12.09838544 352.69153399 12.10056291 348.22912335 12.10484254 C343.41234805 12.10731043 338.59559207 12.09829476 333.77882385 12.09080505 C324.34568074 12.07805724 314.91256608 12.07626451 305.4794158 12.07860532 C297.81046475 12.08038874 290.14152234 12.07863831 282.47257233 12.07438087 C281.38085323 12.07378569 280.28913414 12.0731905 279.16433264 12.07257727 C276.94643869 12.07136551 274.72854474 12.07015138 272.51065078 12.0689349 C251.71151214 12.05805879 230.91238972 12.06022204 210.11325017 12.06631974 C191.09409099 12.07148754 172.07498306 12.06023719 153.05583403 12.04122152 C133.51986358 12.02183913 113.98391737 12.01358792 94.44793725 12.01734477 C83.48289062 12.01925639 72.51788759 12.0167732 61.55284882 12.00263023 C52.21689744 11.99071028 42.88101648 11.98931838 33.54506412 12.0014204 C28.78409966 12.00730507 24.02326397 12.00841992 19.26230812 11.996418 C14.8986198 11.98554567 10.53516756 11.9886786 6.17149022 12.00267968 C4.59817509 12.00532292 3.02484137 12.00297187 1.45154449 11.99494382 C-15.77973755 11.91316488 -30.45866285 14.97507075 -42.61987305 27.96298218 Z M-1.6237793 133.38095093 C-1.6237793 218.85095093 -1.6237793 304.32095093 -1.6237793 392.38095093 C39.6262207 392.38095093 80.8762207 392.38095093 123.3762207 392.38095093 C123.62572486 357.28849063 123.62572486 357.28849063 123.85424805 322.19589233 C123.90869141 315.3855896 123.90869141 315.3855896 123.93667603 312.19036865 C123.95428083 309.97416664 123.96812096 307.75793267 123.97891235 305.54168701 C123.9960732 302.17107762 124.02544168 298.80076504 124.05737305 295.43026733 C124.05954519 294.45446527 124.06171734 293.47866322 124.06395531 292.4732914 C124.21945391 279.63629683 127.10177337 267.72118093 136.0012207 258.00595093 C145.97961381 248.83041704 158.0831319 246.0751771 171.20043945 246.04501343 C172.73532768 246.03502823 172.73532768 246.03502823 174.30122375 246.02484131 C176.45861018 246.01475771 178.61602753 246.01002295 180.7734375 246.01034546 C184.03675091 246.00598695 187.29869415 245.96966057 190.56176758 245.93173218 C206.40673067 245.84563967 220.18844612 246.81186711 232.3059082 258.19345093 C242.85663834 269.42341262 244.66101806 282.5836914 244.69506836 297.47372437 C244.70522161 298.52586246 244.71537487 299.57800056 244.7258358 300.66202164 C244.75613572 304.02145352 244.77353044 307.38080222 244.7902832 310.74032593 C244.80724598 312.83294375 244.82506568 314.9255548 244.84375 317.01815796 C244.90659416 324.72234478 244.95293443 332.42665911 245.0012207 340.13095093 C245.1249707 357.37345093 245.2487207 374.61595093 245.3762207 392.38095093 C286.6262207 392.38095093 327.8762207 392.38095093 370.3762207 392.38095093 C370.3762207 306.91095093 370.3762207 221.44095093 370.3762207 133.38095093 C247.6162207 133.38095093 124.8562207 133.38095093 -1.6237793 133.38095093 Z M140.70043945 271.27938843 C136.35553607 278.17483981 135.950883 284.54794302 136.03564453 292.47860718 C136.03520645 293.56242172 136.03476837 294.64623627 136.03431702 295.76289368 C136.03639674 299.32326661 136.05968983 302.88316087 136.08325195 306.44345093 C136.08885079 308.92066185 136.09311953 311.39787611 136.09611511 313.87509155 C136.1075411 320.37870538 136.13698923 326.88211658 136.17022705 333.38565063 C136.20638743 341.19760563 136.22009975 349.00962475 136.23758698 356.82164001 C136.26662759 368.67488436 136.32413115 380.52768454 136.3762207 392.38095093 C168.0562207 392.38095093 199.7362207 392.38095093 232.3762207 392.38095093 C232.49263225 373.07433359 232.49263225 373.07433359 232.5715332 353.76766968 C232.59541178 345.88914161 232.62361105 338.01080013 232.67797852 330.13241577 C232.72155197 323.77817112 232.7453824 317.42412667 232.75572968 311.06974411 C232.76310034 308.6497317 232.77749341 306.22972982 232.79914093 303.80980301 C232.82832683 300.41091789 232.83217024 297.01285206 232.83032227 293.61386108 C232.84470337 292.6212326 232.85908447 291.62860413 232.87390137 290.605896 C232.81685887 280.86165838 229.86843952 273.15337211 223.16918945 266.06845093 C214.81745863 258.20799839 204.99210121 257.24121591 194.02075195 257.17782593 C193.23786301 257.17212585 192.45497406 257.16642578 191.64836121 257.16055298 C189.99866057 257.15115607 188.3489416 257.14459028 186.69921875 257.14071655 C184.21295265 257.13104519 181.72752664 257.09998568 179.24145508 257.06845093 C163.24907485 256.96079182 151.70480437 258.98224712 140.70043945 271.27938843 Z M-12.6237793 407.38095093 C-13.06738002 410.33947202 -12.94790582 413.33043544 -12.9362793 416.31845093 C-12.95239258 417.1428064 -12.96850586 417.96716187 -12.98510742 418.8164978 C-12.98575195 419.60991577 -12.98639648 420.40333374 -12.98706055 421.22079468 C-12.9900415 421.9464563 -12.99302246 422.67211792 -12.99609375 423.41976929 C-12.49518752 426.05831336 -11.77922059 426.77574008 -9.6237793 428.38095093 C-6.63200238 428.83673673 -6.63200238 428.83673673 -3.14379978 428.76406097 C-2.14764133 428.77150025 -2.14764133 428.77150025 -1.13135847 428.77908981 C1.10992006 428.79211705 3.35060975 428.78363916 5.59190369 428.77536011 C7.20856815 428.78024566 8.82522912 428.7864339 10.4418841 428.793818 C14.89685263 428.81028332 19.35164496 428.80788626 23.80663335 428.80244303 C28.6063153 428.79978092 33.4059494 428.81428914 38.20561218 428.82653809 C47.61336752 428.84762884 57.02106129 428.85213086 66.42883747 428.8503502 C74.07271429 428.84904444 81.71657183 428.85283718 89.36044502 428.86027527 C91.55920444 428.86237438 93.75796385 428.86447198 95.95672327 428.86656809 C97.59810987 428.86813338 97.59810987 428.86813338 99.27265579 428.86973029 C119.98426352 428.88864726 140.69583586 428.88757796 161.40744866 428.88076097 C180.3709333 428.875184 199.3342829 428.8960149 218.29773598 428.92912143 C237.75215542 428.9628225 257.20651011 428.97803127 276.6609593 428.97340441 C287.5900876 428.97115614 298.51909107 428.97645502 309.4481945 429.001297 C318.75196247 429.02226385 328.05553717 429.02594812 337.35931294 429.00699741 C342.1092088 428.9978111 346.85874386 428.99678459 351.60861206 429.01735306 C355.95310609 429.0359586 360.29694122 429.0316779 364.64140934 429.00880724 C366.21675143 429.00459494 367.79214302 429.00890905 369.36743294 429.02240318 C371.50256191 429.03945368 373.63536133 429.02596024 375.77040005 429.00457001 C376.9580579 429.00484239 378.14571576 429.00511477 379.36936325 429.00539541 C382.55630353 428.62658806 382.55630353 428.62658806 384.75807863 426.03924036 C386.75283154 422.76225333 386.88056677 420.69563331 386.8137207 416.88095093 C386.81243164 415.77751343 386.81114258 414.67407593 386.80981445 413.53720093 C386.31680133 409.94842069 385.64170359 408.20230421 383.3762207 405.38095093 C380.3835493 404.63039514 380.3835493 404.63039514 376.85941982 404.76012516 C375.85729747 404.75057254 375.85729747 404.75057254 374.83493021 404.74082693 C372.57974247 404.72549727 370.32628148 404.74604049 368.07115173 404.76622009 C366.44481048 404.76260987 364.81847286 404.75680936 363.19214636 404.74899811 C358.71036136 404.73388619 354.22914442 404.75011255 349.74740398 404.77130473 C344.91913738 404.7887343 340.09092934 404.77742653 335.26264954 404.76963806 C325.79934561 404.75894581 316.33626351 404.774946 306.8729934 404.79977632 C295.86257625 404.82764953 284.85220455 404.82904912 273.84175796 404.82921933 C254.2027259 404.83040771 234.56379603 404.85541057 214.92480469 404.89389038 C195.84894586 404.93124286 176.77316138 404.95248609 157.69726562 404.95541382 C155.9348297 404.95568804 155.9348297 404.95568804 154.13678902 404.95596779 C152.96390367 404.95614676 151.79101832 404.95632573 150.582591 404.95651013 C148.22129722 404.95687553 145.86000345 404.9572479 143.49870968 404.9576273 C141.75213403 404.95790557 141.75213403 404.95790557 139.97027403 404.95818946 C121.81758316 404.96175635 103.66490385 404.98020546 85.51222469 405.00012054 C78.92286855 405.00715278 72.33351514 405.01192993 65.74415606 405.01508189 C55.29400654 405.02012263 44.8439089 405.03150163 34.39378612 405.05638219 C29.61590159 405.06763461 24.83806825 405.07571686 20.06016922 405.07524872 C15.69251841 405.07494194 11.32498896 405.08379903 6.95736987 405.10021674 C5.37130288 405.10455935 3.78522239 405.10548822 2.19915175 405.10279066 C0.05501582 405.09965675 -2.08872467 405.10864842 -4.23281956 405.12088871 C-5.42731238 405.12283963 -6.6218052 405.12479056 -7.85249478 405.1268006 C-10.76524431 405.09603251 -10.76524431 405.09603251 -12.6237793 407.38095093 Z " fill="#848484" transform="translate(71.623779296875,35.619049072265625)"/>
<path d="M0 0 C0.69364151 -0.00700928 1.38728302 -0.01401855 2.10194397 -0.02124023 C4.37298756 -0.03870883 6.64276425 -0.02724004 8.91381836 -0.01367188 C10.50370012 -0.01636972 12.09358027 -0.02025458 13.68345642 -0.02526855 C17.00625405 -0.0311482 20.32861996 -0.02264955 23.65136719 -0.00390625 C27.90064569 0.01890156 32.14891451 0.00573971 36.39815617 -0.01819611 C39.67796885 -0.03268006 42.9575438 -0.02803664 46.23736382 -0.01768494 C47.80378783 -0.01502577 49.37023376 -0.01825883 50.93663216 -0.02760315 C53.12890593 -0.03781447 55.31956466 -0.02220791 57.51171875 0 C59.37867149 0.00477356 59.37867149 0.00477356 61.28334045 0.00964355 C66.15062109 0.73510995 69.28403776 2.91636766 72.50366211 6.58007812 C74.82558618 10.36848056 74.82245421 13.56729513 74.83833313 17.91218567 C74.84200982 18.56388393 74.84568651 19.21558218 74.84947461 19.88702887 C74.86050409 22.07484036 74.864354 24.26260433 74.86816406 26.45043945 C74.87442921 28.01748302 74.88107606 29.5845251 74.88807678 31.15156555 C74.90911131 36.30090298 74.91947775 41.45024069 74.92944336 46.59960938 C74.93349097 48.37230635 74.93760789 50.14500316 74.94179344 51.91769981 C74.9608428 60.24496449 74.97507506 68.5722203 74.98340541 76.89950258 C74.99318104 86.51279249 75.01951004 96.12585234 75.0599063 105.73906118 C75.09005842 113.16930456 75.10487338 120.59948195 75.10818642 128.02978534 C75.11053772 132.46780935 75.11950854 136.90558751 75.1446476 141.34354591 C75.16791797 145.51901098 75.17216586 149.69406813 75.16188622 153.86958122 C75.16139051 155.40061932 75.16772133 156.93167742 75.18144226 158.46265411 C75.19915335 160.55626388 75.19206104 162.64840836 75.1789093 164.74201965 C75.18129766 165.91248746 75.18368601 167.08295527 75.18614674 168.28889179 C74.39075101 173.47710002 71.84892049 176.54779458 67.89561462 179.85923767 C64.12424709 181.81096307 61.65309135 182.03023988 57.41992188 182.05102539 C56.71827911 182.05964096 56.01663635 182.06825653 55.29373169 182.07713318 C52.98962815 182.09971301 50.68674892 182.0930696 48.38256836 182.08398438 C46.7712315 182.08922379 45.15989772 182.09550144 43.54856873 182.10276794 C40.17692601 182.11315754 36.80570571 182.1086321 33.43408203 182.09399414 C29.12531458 182.07681356 24.81788161 182.10029877 20.50926304 182.13548374 C17.18307249 182.15750496 13.85719891 182.15600489 10.53095818 182.14771843 C8.94301833 182.14690138 7.35505465 182.15371755 5.7671833 182.16848946 C-8.151728 182.27813068 -8.151728 182.27813068 -12.64892578 179.41577148 C-19.4856607 171.9665856 -18.74523597 164.08061759 -18.71289062 154.43774414 C-18.71859832 152.90290837 -18.72556413 151.36807684 -18.73368835 149.83325195 C-18.7515907 145.67824164 -18.75045694 141.52344284 -18.74474597 137.36840558 C-18.74164991 133.89430413 -18.74775119 130.42024307 -18.75378472 126.94614738 C-18.76781869 118.74783669 -18.76627802 110.54963024 -18.75488281 102.35131836 C-18.74340211 93.90506608 -18.75747893 85.45913135 -18.78427929 77.01292092 C-18.80645911 69.74984716 -18.81306855 62.48687291 -18.80720288 55.2237677 C-18.80383761 50.89084163 -18.80621964 46.5581191 -18.8234539 42.22522163 C-18.83895751 38.1497894 -18.83493 34.07482646 -18.81614876 29.99941254 C-18.81247231 28.5079272 -18.81554378 27.01640682 -18.82603455 25.52495384 C-18.92786357 9.84526734 -18.92786357 9.84526734 -14.30883789 4.51757812 C-9.92207912 0.75028108 -5.75146707 0.01469637 0 0 Z M-5.30883789 13.51757812 C-6.38845771 16.75643757 -6.43731572 19.10058753 -6.44255066 22.50804138 C-6.44681564 23.76009369 -6.45108063 25.012146 -6.45547485 26.30213928 C-6.45512533 27.69223026 -6.4546638 29.08232121 -6.45410156 30.47241211 C-6.45709326 31.93432705 -6.46049581 33.39624119 -6.46427917 34.8581543 C-6.47312182 38.83126323 -6.47545739 42.80435063 -6.47609496 46.77746844 C-6.47704394 50.09267215 -6.48072208 53.40787082 -6.48426706 56.72307259 C-6.49241244 64.54333028 -6.4948512 72.36357645 -6.49414062 80.18383789 C-6.49353964 88.25508982 -6.50409546 96.32627497 -6.51988429 104.39750999 C-6.53295195 111.32411814 -6.53832486 118.25070444 -6.53768522 125.17732483 C-6.53743002 129.31562749 -6.54029303 133.45387078 -6.55086327 137.59216118 C-6.56053137 141.48354901 -6.56063232 145.37482058 -6.55334663 149.26621246 C-6.55229922 150.6948749 -6.55467296 152.12354452 -6.56070709 153.5521946 C-6.56840741 155.50149221 -6.56259171 157.45082929 -6.55607605 159.40013123 C-6.55662082 160.49132483 -6.55716558 161.58251844 -6.55772686 162.70677853 C-6.45342014 165.83938045 -6.45342014 165.83938045 -4.30883789 169.51757812 C4.27116211 169.51757812 12.85116211 169.51757812 21.69116211 169.51757812 C21.69116211 117.70757812 21.69116211 65.89757812 21.69116211 12.51757812 C7.71575874 11.00373713 7.71575874 11.00373713 -5.30883789 13.51757812 Z M34.69116211 12.51757812 C34.69116211 64.32757813 34.69116211 116.13757813 34.69116211 169.51757812 C43.27116211 169.51757812 51.85116211 169.51757812 60.69116211 169.51757812 C63.41400792 166.79473231 62.94484049 165.33908344 62.95185852 161.52674866 C62.96248573 159.61070076 62.96248573 159.61070076 62.97332764 157.65594482 C62.9710336 156.23229945 62.96852387 154.80865442 62.96582031 153.38500977 C62.97016547 151.89206181 62.97534796 150.39911609 62.98130798 148.90617371 C62.99473067 144.84421177 62.99527302 140.7823427 62.99274468 136.7203629 C62.99167715 133.33303525 62.99655277 129.94572656 63.0013501 126.55840296 C63.01245667 118.56895026 63.0128763 110.57954458 63.00683594 102.59008789 C63.00079446 94.33986658 63.0131089 86.08981573 63.03440601 77.83962351 C63.05200251 70.76357529 63.05802645 63.68758143 63.05476826 56.61151212 C63.05295208 52.38210032 63.05562472 48.1528101 63.0694828 43.92341805 C63.08202486 39.9466331 63.08015168 35.9701145 63.06707191 31.99333382 C63.06469861 30.53200187 63.06746769 29.07065138 63.07569504 27.60934067 C63.08609961 25.61804841 63.07629446 23.62668079 63.06538391 21.63539124 C63.06563552 19.96208536 63.06563552 19.96208536 63.06589222 18.25497532 C62.92087275 15.1426192 62.92087275 15.1426192 59.69116211 12.51757812 C51.44116211 12.51757812 43.19116211 12.51757812 34.69116211 12.51757812 Z " fill="#848484" transform="translate(352.308837890625,207.482421875)"/>
<path d="M0 0 C0.69130508 -0.0065712 1.38261017 -0.0131424 2.09486389 -0.01991272 C4.38786933 -0.03965784 6.68080913 -0.05131312 8.97387695 -0.0612793 C9.75765024 -0.06535482 10.54142353 -0.06943035 11.34894753 -0.07362938 C15.50020713 -0.09449883 19.65143364 -0.10879473 23.80273438 -0.11816406 C28.08221196 -0.12920905 32.36116679 -0.16358382 36.64046001 -0.20333576 C39.93741289 -0.22954143 43.2342422 -0.23785955 46.53129005 -0.24144554 C48.10808643 -0.24630412 49.68487756 -0.25789737 51.26157188 -0.27648354 C53.47557702 -0.30095253 55.68824351 -0.29989632 57.90234375 -0.29296875 C59.15983932 -0.29883499 60.4173349 -0.30470123 61.7129364 -0.31074524 C66.72555326 0.37568956 70.22980584 1.81580767 73.58313274 5.68789959 C77.58511843 12.21819444 76.83613529 19.98679982 76.79223633 27.37036133 C76.7976632 28.90534629 76.80478902 30.44032605 76.81347656 31.97529602 C76.83164591 36.12618448 76.82466903 40.27667337 76.81196022 44.42756844 C76.80179928 48.78135339 76.81123447 53.13510523 76.81750488 57.4888916 C76.82477231 64.7988903 76.81521741 72.10872709 76.79614258 79.41870117 C76.77437553 87.85760203 76.78142754 96.29611627 76.8034482 104.73500776 C76.82162806 111.9938663 76.82414791 119.25260876 76.81369352 126.51148272 C76.80747278 130.84102747 76.80658373 135.17039077 76.81983948 139.49992371 C76.83143514 143.57128594 76.82330503 147.64215202 76.80026245 151.71346092 C76.7949951 153.20332708 76.79645521 154.69323535 76.80531311 156.18308449 C76.88831195 171.5669776 76.88831195 171.5669776 72.2746582 177.17700195 C67.92184969 181.02062333 64.71563207 181.68017462 58.98754883 181.69458008 C58.28429977 181.70158936 57.58105072 181.70859863 56.85649109 181.71582031 C54.54755367 181.73332813 52.2398566 181.72180458 49.9309082 181.70825195 C48.31717699 181.71094897 46.70344736 181.71483314 45.08972168 181.71984863 C41.71387197 181.72573386 38.33844671 181.71721261 34.96264648 181.69848633 C30.6449632 181.67569689 26.32827458 181.68882528 22.01062775 181.71277618 C18.68020188 181.72726084 15.35001012 181.72261606 12.01957703 181.71226501 C10.42803325 181.70960508 8.83646792 181.71284164 7.24494934 181.72218323 C5.01665304 181.73239352 2.78994611 181.71678831 0.56176758 181.69458008 C-0.70364868 181.69139771 -1.96906494 181.68821533 -3.27282715 181.68493652 C-8.63676219 180.89579344 -11.55195858 178.66838681 -14.86867619 174.45279694 C-16.97216446 170.74152211 -17.225788 168.65372764 -17.22654724 164.42163086 C-17.23208164 163.76736933 -17.23761603 163.1131078 -17.24331814 162.43902016 C-17.25686482 160.26014128 -17.24198972 158.08241993 -17.22705078 155.90356445 C-17.23083617 154.33607499 -17.23633803 152.76858886 -17.24342346 151.20111084 C-17.25736678 146.95312216 -17.24621633 142.70553903 -17.22971225 138.45757294 C-17.2158444 134.00808914 -17.2223238 129.55862848 -17.22584534 125.10913086 C-17.22854609 117.63754759 -17.21508349 110.16612509 -17.19189453 102.69458008 C-17.16528562 94.06146381 -17.16353819 85.42861632 -17.1752829 76.7954731 C-17.18606926 68.48419894 -17.17986687 60.17302183 -17.16572762 51.86175537 C-17.15997526 48.32759299 -17.16004459 44.79350179 -17.16479301 41.25933838 C-17.16957206 37.09614869 -17.15942284 32.93325258 -17.13783836 28.77011871 C-17.13228294 27.24393962 -17.13179377 25.71773223 -17.13679123 24.19155121 C-17.14276629 22.10483479 -17.13019795 20.01900933 -17.11302185 17.93237305 C-17.11059196 16.7658017 -17.10816206 15.59923035 -17.10565853 14.39730835 C-16.51947763 9.43386091 -14.85949452 6.20050563 -11.1628418 2.86450195 C-7.16151375 0.09435177 -4.88260511 0.0383444 0 0 Z M-1.7253418 12.17700195 C-4.95505244 14.80204303 -4.95505244 14.80204303 -5.10007191 17.91439915 C-5.09990417 19.0299364 -5.09973642 20.14547365 -5.0995636 21.29481506 C-5.10657791 22.57500015 -5.11359222 23.85518524 -5.12081909 25.17416382 C-5.11339117 26.59576572 -5.10566001 28.01736607 -5.09765625 29.43896484 C-5.10008378 30.93368279 -5.10380271 32.42839913 -5.10871887 33.92311096 C-5.11813615 37.98500799 -5.10869595 42.04666442 -5.09538674 46.10854268 C-5.08408558 50.35438027 -5.08817866 54.60020578 -5.09013367 58.84605408 C-5.09101697 65.97569723 -5.07992789 73.10524536 -5.06152344 80.23486328 C-5.04034714 88.48566604 -5.03684743 96.73632964 -5.0430854 104.98715407 C-5.04877341 112.91558746 -5.04314058 120.84397169 -5.03191185 128.77239799 C-5.02725921 132.15076033 -5.02639487 135.52909267 -5.0284977 138.90745735 C-5.03037675 142.88257893 -5.02230639 146.8575582 -5.0064373 150.83264732 C-5.00218296 152.29439327 -5.00135158 153.75615363 -5.0041275 155.21790314 C-5.00733324 157.20733281 -4.99707227 159.19677083 -4.98603821 161.18617249 C-4.98398534 162.30133271 -4.98193247 163.41649294 -4.97981739 164.5654459 C-4.9888562 167.33695176 -4.9888562 167.33695176 -2.7253418 169.17700195 C5.8546582 169.17700195 14.4346582 169.17700195 23.2746582 169.17700195 C23.2746582 117.36700195 23.2746582 65.55700195 23.2746582 12.17700195 C15.0246582 12.17700195 6.7746582 12.17700195 -1.7253418 12.17700195 Z M36.2746582 12.17700195 C36.2746582 63.98700195 36.2746582 115.79700195 36.2746582 169.17700195 C44.8546582 169.17700195 53.4346582 169.17700195 62.2746582 169.17700195 C64.31376798 165.0987824 64.52410161 163.47675869 64.52189636 159.05955505 C64.52609085 157.80468292 64.53028534 156.54981079 64.53460693 155.25691223 C64.52912373 153.86886519 64.52344076 152.48081893 64.51757812 151.09277344 C64.51865122 149.62908849 64.5205903 148.16540396 64.52333069 146.70172119 C64.52817746 142.72870086 64.5205257 138.75579288 64.51037765 134.78278613 C64.50159523 130.62684427 64.50335462 126.47090591 64.5037384 122.31495667 C64.5028019 115.33674235 64.4941194 108.35857151 64.48046875 101.38037109 C64.46473724 93.30852713 64.45947087 85.23673078 64.4602043 77.16487259 C64.46081431 69.40357453 64.45571172 61.642292 64.44741249 53.88099861 C64.44387892 50.57603904 64.44204914 47.27108495 64.44151878 43.96612358 C64.44051539 40.0763868 64.43441907 36.18669011 64.42435265 32.29696655 C64.42142815 30.86788745 64.42020218 29.43880373 64.42078018 28.00972176 C64.42126984 26.06229858 64.41500463 24.11487715 64.40837097 22.16746521 C64.40669513 21.07664863 64.40501928 19.98583204 64.40329266 18.86196041 C64.39110877 16.07557564 64.39110877 16.07557564 63.2746582 13.17700195 C55.21929422 9.14931996 45.28082893 12.17700195 36.2746582 12.17700195 Z " fill="#848484" transform="translate(101.725341796875,207.822998046875)"/>
<path d="M0 0 C1.30324219 -0.00386719 2.60648437 -0.00773437 3.94921875 -0.01171875 C4.96943115 -0.00229248 4.96943115 -0.00229248 6.01025391 0.00732422 C8.05831278 0.02322305 10.10435051 0.00755997 12.15234375 -0.01171875 C28.08150843 0.03526994 28.08150843 0.03526994 34.80078125 5.1953125 C39.45799734 10.8887307 41.88285857 15.49250957 41.1484375 23.0234375 C40.80748323 25.50272226 40.35715855 27.78760855 39.7109375 30.2109375 C39.21368906 32.50946637 39.21368906 32.50946637 40.8359375 34.5234375 C41.3721875 35.1421875 41.9084375 35.7609375 42.4609375 36.3984375 C44.48608272 42.47387316 44.56140239 49.85079281 41.9609375 55.7734375 C38.64119556 61.36458181 33.83954385 64.90966708 27.5859375 66.54296875 C21.15845396 67.84286471 14.68078171 67.72788702 8.1484375 67.7109375 C6.25641602 67.73510742 6.25641602 67.73510742 4.32617188 67.75976562 C3.11638672 67.76041016 1.90660156 67.76105469 0.66015625 67.76171875 C-0.43466064 67.76469971 -1.52947754 67.76768066 -2.6574707 67.77075195 C-5.99488317 67.33954345 -7.17068124 66.75883462 -9.5390625 64.3984375 C-10.04026794 61.74206543 -10.04026794 61.74206543 -10.04077148 58.50585938 C-10.05015244 57.29450317 -10.05953339 56.08314697 -10.06919861 54.83508301 C-10.05796463 53.52567749 -10.04673065 52.21627197 -10.03515625 50.8671875 C-10.03531122 49.51102623 -10.03679986 48.15486451 -10.03956604 46.79870605 C-10.04095044 43.95723885 -10.02838625 41.11627616 -10.00561523 38.27490234 C-9.97722955 34.6328869 -9.97996691 30.99170975 -9.99270535 27.34963226 C-9.99966083 24.54946738 -9.99187493 21.74949623 -9.97944832 18.94935608 C-9.97273637 16.95351255 -9.9770775 14.9576418 -9.98155212 12.96179199 C-9.96886795 11.75043579 -9.95618378 10.53907959 -9.94311523 9.29101562 C-9.93771225 8.22306763 -9.93230927 7.15511963 -9.92674255 6.05480957 C-9.5390625 3.3984375 -9.5390625 3.3984375 -8.19828796 1.55441284 C-5.56340252 -0.28130067 -3.16779145 0.00905453 0 0 Z M2.4609375 12.3984375 C2.4609375 17.0184375 2.4609375 21.6384375 2.4609375 26.3984375 C6.23219703 26.47918612 10.00173743 26.5388193 13.7734375 26.5859375 C15.3812207 26.62364258 15.3812207 26.62364258 17.02148438 26.66210938 C18.04951172 26.67177734 19.07753906 26.68144531 20.13671875 26.69140625 C21.08458252 26.7071167 22.03244629 26.72282715 23.0090332 26.73901367 C25.49982418 26.59221711 25.49982418 26.59221711 27.26635742 25.0637207 C29.15103405 22.43642063 28.90897152 20.53467564 28.4609375 17.3984375 C26.63013921 14.88956576 25.36758306 13.65892895 22.3671875 12.796875 C18.44674508 12.25939499 14.59979173 12.29287999 10.6484375 12.3359375 C9.86017578 12.34044922 9.07191406 12.34496094 8.25976562 12.34960938 C6.32678989 12.36132438 4.39385357 12.37925752 2.4609375 12.3984375 Z M2.4609375 38.3984375 C2.4609375 43.6784375 2.4609375 48.9584375 2.4609375 54.3984375 C6.02389562 54.47948204 9.58500457 54.53896192 13.1484375 54.5859375 C14.15583984 54.61107422 15.16324219 54.63621094 16.20117188 54.66210938 C23.35063789 54.82143767 23.35063789 54.82143767 29.4609375 51.3984375 C31.42232137 48.81297694 31.47392014 47.61048725 31.2734375 44.3359375 C30.41040524 41.21574395 30.01220052 40.28047163 27.4609375 38.3984375 C24.7514903 37.98433317 24.7514903 37.98433317 21.69921875 38.10546875 C20.58095703 38.11513672 19.46269531 38.12480469 18.31054688 38.13476562 C16.55967773 38.1724707 16.55967773 38.1724707 14.7734375 38.2109375 C13.59458984 38.22447266 12.41574219 38.23800781 11.20117188 38.25195312 C8.28756617 38.28734105 5.37419486 38.34114839 2.4609375 38.3984375 Z " fill="#563bdb" transform="translate(339.5390625,68.6015625)"/>
<path d="M0 0 C4.45363458 4.66078037 7.35528063 9.23779991 8.1875 15.6875 C7.6875 18.8125 7.6875 18.8125 6.5625 20.75 C3.79769567 22.31672245 1.80561483 22.20226435 -1.3125 21.8125 C-3.80503018 19.79119443 -4.93841858 17.73070792 -6.1875 14.8125 C-8.00166332 11.10943256 -9.32352056 9.31944779 -13.3125 7.8125 C-19.4244802 6.1632355 -24.30817669 6.79744823 -30.07421875 9.37109375 C-34.29929884 12.09195685 -36.47913994 16.07047656 -37.91796875 20.8046875 C-39.33647289 28.02360956 -38.2663879 35.10764334 -35.3125 41.8125 C-32.04298076 45.83652367 -28.95156154 48.50553967 -23.7265625 49.11328125 C-16.04009215 49.19763254 -16.04009215 49.19763254 -9.3125 45.8125 C-7.3938789 43.27266348 -5.83982323 40.60081607 -4.3125 37.8125 C-1.36513158 32.86513158 -1.36513158 32.86513158 -0.3125 31.8125 C6.2875 32.4125 6.2875 32.4125 8.6875 34.8125 C9.06971283 40.95338612 7.26025819 46.8573667 3.6875 51.8125 C-3.62111636 59.53094532 -9.40611245 62.13862622 -19.96484375 62.76953125 C-28.77647663 62.88263272 -35.674631 60.75097667 -42.3125 54.8125 C-50.29410169 45.69813824 -52.00167397 35.43208403 -51.58984375 23.65234375 C-50.91190932 14.26629384 -47.96831799 7.54818781 -41.3125 0.8125 C-29.05875678 -9.23556944 -12.78318993 -8.4417292 0 0 Z " fill="#563bdb" transform="translate(180.3125,74.1875)"/>
<path d="M0 0 C1.97728827 1.51419914 2.879676 2.4055389 3.37854004 4.87017822 C3.38059448 5.57076355 3.38264893 6.27134888 3.38476562 6.99316406 C3.39487671 7.79119446 3.40498779 8.58922485 3.41540527 9.41143799 C3.41238403 10.2708197 3.40936279 11.13020142 3.40625 12.015625 C3.41708618 12.90481628 3.42792236 13.79400757 3.43908691 14.71014404 C3.47338817 17.55683621 3.48894139 20.4031283 3.5 23.25 C3.5146162 26.98475735 3.54843436 30.71862781 3.59375 34.453125 C3.59072876 35.30440979 3.58770752 36.15569458 3.58459473 37.03277588 C3.65189914 42.42879292 4.43949618 46.21985243 7 51 C12.10574551 55.22752284 17.70975068 54.46815117 24 54 C27.54515882 53.60446277 27.54515882 53.60446277 30 52 C32.29813889 46.90685425 32.30988306 42.06223435 32.34375 36.5859375 C32.3583728 35.69387604 32.37299561 34.80181458 32.38806152 33.88272095 C32.45006174 30.08504123 32.48996729 26.28720529 32.53173828 22.48925781 C32.56548386 19.70881226 32.61057742 16.92870856 32.65625 14.1484375 C32.6615271 13.29108002 32.6668042 12.43372253 32.67224121 11.55038452 C32.69236267 10.34861069 32.69236267 10.34861069 32.71289062 9.12255859 C32.72018188 8.42117767 32.72747314 7.71979675 32.73498535 6.99716187 C33.05408527 4.59241103 33.66173263 3.02462065 35 1 C38.375 0 38.375 0 42 0 C44.19775391 1.44848633 44.19775391 1.44848633 46 4 C46.56889936 6.94469347 46.51296825 9.83339886 46.4609375 12.82421875 C46.45956284 14.11547417 46.45956284 14.11547417 46.4581604 15.43281555 C46.45212365 17.25433869 46.43637533 19.07585187 46.41162109 20.8972168 C46.37535602 23.66037373 46.37060034 26.42217789 46.37109375 29.18554688 C46.36125206 30.9609489 46.34959051 32.73634195 46.3359375 34.51171875 C46.33371185 35.32767014 46.33148621 36.14362152 46.32919312 36.98429871 C46.18241981 46.03981758 45.03854083 53.99744874 38.359375 60.62890625 C31.27214178 67.02282318 24.40027806 67.89043965 15 68 C8.09394793 67.47769354 2.34274641 65.47702361 -3 61 C-8.91538713 53.83926821 -9.30941543 46.47161344 -9.30078125 37.578125 C-9.30506638 36.59632263 -9.3093515 35.61452026 -9.31376648 34.60296631 C-9.31948492 32.53886687 -9.32002848 30.47474729 -9.31567383 28.41064453 C-9.31249606 25.24607463 -9.33606546 22.08242447 -9.36132812 18.91796875 C-9.36359952 16.90885535 -9.36430536 14.89973943 -9.36328125 12.890625 C-9.372491 11.94374817 -9.38170074 10.99687134 -9.39118958 10.02130127 C-9.38496078 9.14318787 -9.37873199 8.26507446 -9.37231445 7.36035156 C-9.37294388 6.58870667 -9.3735733 5.81706177 -9.3742218 5.02203369 C-8.40686209 -0.20490372 -4.69198175 -0.58649772 0 0 Z " fill="#563bdb" transform="translate(269,69)"/>
<path d="M0 0 C3.375 1 3.375 1 4.57174683 2.75299072 C5.48250474 5.30073226 5.61598589 7.24873736 5.60205078 9.95214844 C5.60182419 11.42322052 5.60182419 11.42322052 5.60159302 12.92401123 C5.59127045 13.97518127 5.58094788 15.02635132 5.5703125 16.109375 C5.5674826 17.19132141 5.56465271 18.27326782 5.56173706 19.38800049 C5.55054609 22.84211304 5.5254432 26.29596588 5.5 29.75 C5.48996881 32.09244417 5.4808432 34.43489241 5.47265625 36.77734375 C5.4506103 42.51831771 5.41714334 48.2591403 5.375 54 C6.22731201 53.97381592 7.07962402 53.94763184 7.95776367 53.9206543 C11.13527127 53.83518508 14.3121911 53.77263211 17.49047852 53.7253418 C18.86307102 53.70027383 20.23553102 53.66620918 21.60766602 53.62280273 C23.58550696 53.56182469 25.56434184 53.53638991 27.54296875 53.51171875 C28.73172607 53.48553467 29.9204834 53.45935059 31.14526367 53.43237305 C35.31381852 54.16499759 36.79268459 55.71941629 39.375 59 C39.375 61.95878734 38.91412694 63.3377593 37.05357361 65.6231842 C34.11431501 68.03405117 30.33334908 67.44655234 26.69140625 67.43359375 C25.41353493 67.44145653 25.41353493 67.44145653 24.10984802 67.44947815 C22.30851328 67.45590004 20.50713661 67.45455917 18.70581055 67.44604492 C15.95089911 67.43754136 13.19806553 67.46628169 10.44335938 67.49804688 C8.69270895 67.49965916 6.94205486 67.49908083 5.19140625 67.49609375 C4.36838516 67.50732773 3.54536407 67.51856171 2.69740295 67.53013611 C1.92657883 67.52075516 1.1557547 67.51137421 0.36157227 67.50170898 C-0.31332748 67.50154282 -0.98822723 67.50137665 -1.68357849 67.50120544 C-4.61806603 66.74362595 -5.80201582 65.3835928 -7.625 63 C-8.13293457 60.30603027 -8.13293457 60.30603027 -8.14257812 57.19335938 C-8.15518677 56.0253479 -8.16779541 54.85733643 -8.18078613 53.65393066 C-8.17268921 52.39657104 -8.16459229 51.13921143 -8.15625 49.84375 C-8.1600769 48.54932983 -8.16390381 47.25490967 -8.16784668 45.92126465 C-8.17373687 43.18413154 -8.16519539 40.44752141 -8.14648438 37.71044922 C-8.12369369 34.20627974 -8.13681954 30.70333566 -8.16077423 27.19921112 C-8.17872454 23.85145979 -8.1661476 20.50403613 -8.15625 17.15625 C-8.16434692 15.89889038 -8.17244385 14.64153076 -8.18078613 13.34606934 C-8.16817749 12.17805786 -8.15556885 11.01004639 -8.14257812 9.80664062 C-8.13939575 8.77945923 -8.13621338 7.75227783 -8.13293457 6.69396973 C-7.19878785 1.73946746 -4.93513548 0 0 0 Z " fill="#563bdb" transform="translate(209.625,69)"/>
</svg>
