<?xml version="1.0" encoding="UTF-8"?>
<svg version="1.1" xmlns="http://www.w3.org/2000/svg" width="512" height="512">
<path d="M0 0 C9.73074384 6.78371857 15.08892808 15.54412799 18.80078125 26.6796875 C19.05398237 31.25057888 19.0717644 35.82390166 19.09594727 40.40087891 C19.10739504 41.90585791 19.12773103 43.41079866 19.1574707 44.91552734 C19.37930532 56.15101708 18.85301507 66.68510258 11.23828125 75.6796875 C10.65949219 76.3809375 10.08070313 77.0821875 9.484375 77.8046875 C6.30154482 81.34937076 6.30154482 81.34937076 4.80078125 82.6796875 C4.14078125 82.6796875 3.48078125 82.6796875 2.80078125 82.6796875 C3.0566553 84.45274414 3.33105864 86.22313358 3.61328125 87.9921875 C3.76410156 88.97832031 3.91492188 89.96445313 4.0703125 90.98046875 C4.84849367 93.85599382 5.44579469 94.91772419 7.80078125 96.6796875 C10.47461375 97.570965 12.08185009 97.8117773 14.828125 97.85546875 C30.85347142 98.28073153 45.89999183 101.61682026 58.1171875 112.8671875 C69.25154591 124.85406059 75.09636097 138.27924351 75.10717773 154.50512695 C75.11550125 155.57273254 75.12382477 156.64033813 75.13240051 157.74029541 C75.15642994 161.25789065 75.1652639 164.77530022 75.171875 168.29296875 C75.18084632 170.74765578 75.18996825 173.20234226 75.19923401 175.6570282 C75.21570713 180.79895352 75.22342115 185.94081385 75.22631836 191.08276367 C75.23170186 197.65652188 75.26938895 204.22966557 75.31506252 210.80325031 C75.34487066 215.87261665 75.35204274 220.94183562 75.35304451 226.01128197 C75.35723888 228.43408207 75.36964149 230.85688292 75.39056206 233.27959633 C75.41755419 236.67553995 75.41262661 240.07006671 75.40014648 243.46606445 C75.42239792 244.95253731 75.42239792 244.95253731 75.44509888 246.46903992 C75.36293753 254.35898715 73.23884485 260.93716989 67.82631588 266.82899952 C60.07642797 274.1207669 53.59671869 275.01172382 43.32421875 274.98046875 C39.99572423 274.69632897 37.82797458 273.98256713 34.80078125 272.6796875 C34.80631201 274.04190713 34.80631201 274.04190713 34.8119545 275.43164635 C34.90037126 297.5499012 34.96652288 319.6681255 35.00802994 341.78652 C35.02863703 352.48290741 35.05672224 363.1791767 35.10253906 373.87548828 C35.14246351 383.20063852 35.16822753 392.5257032 35.17713523 401.85093653 C35.18234047 406.78656969 35.19453608 411.7219581 35.22370148 416.65751266 C35.25095919 421.30815037 35.25920538 425.95844374 35.25321198 430.60915375 C35.25430759 432.31105804 35.26219961 434.01297448 35.27760315 435.71480942 C35.37559803 447.10545988 34.79340471 457.30561327 26.64453125 466.078125 C17.38292139 474.12316747 8.54207567 475.41621434 -3.29345703 474.86328125 C-10.17802906 474.20004807 -15.27922361 470.22122148 -20.19921875 465.6796875 C-23.58042205 467.16741695 -26.32456394 469.20839182 -29.22265625 471.4609375 C-36.88420038 476.18505167 -47.62333766 475.94922834 -56.21875 473.9921875 C-66.01801252 470.37955616 -71.64767571 463.93550992 -76.19921875 454.6796875 C-77.44099889 450.95473467 -77.32222137 447.34340085 -77.31947327 443.44110107 C-77.32032769 442.71081105 -77.32118212 441.98052104 -77.32206243 441.22810102 C-77.32370977 438.78062313 -77.31820806 436.33321376 -77.31274414 433.88574219 C-77.31246208 432.13147992 -77.31262037 430.37721753 -77.31318665 428.62295532 C-77.31347389 423.858871 -77.30758888 419.09481178 -77.30061269 414.3307333 C-77.29436708 409.35259058 -77.29377439 404.3744473 -77.29258728 399.39630127 C-77.28947754 389.96869843 -77.28126894 380.54110716 -77.27123779 371.11350942 C-77.2600656 360.38085338 -77.25456341 349.6481968 -77.24954236 338.9155364 C-77.23908604 316.83691364 -77.22149348 294.7583013 -77.19921875 272.6796875 C-77.95372314 273.00203369 -78.70822754 273.32437988 -79.4855957 273.65649414 C-85.73697661 276.01362751 -93.77204494 275.65305919 -100.15625 273.83984375 C-107.82838383 270.33965366 -113.30348237 264.60608044 -116.55630684 256.82196617 C-117.82516237 252.5939497 -117.62311036 248.26618427 -117.60327148 243.88598633 C-117.61013474 242.82159332 -117.61699799 241.75720032 -117.62406921 240.66055298 C-117.64232361 237.15247129 -117.6385001 233.64483762 -117.6328125 230.13671875 C-117.63737623 227.68682206 -117.64268237 225.23692664 -117.6486969 222.78703308 C-117.65762636 217.65346069 -117.65520813 212.52004386 -117.64526367 207.38647461 C-117.63379792 200.83090837 -117.65395028 194.2758827 -117.68318081 187.72038746 C-117.70159612 182.65950648 -117.70123928 177.59875362 -117.69554329 172.53784752 C-117.6953906 170.12230358 -117.70139115 167.70675067 -117.71383476 165.29123878 C-117.82047842 141.18774073 -117.82047842 141.18774073 -113.19921875 131.6796875 C-112.70679688 130.58011719 -112.214375 129.48054687 -111.70703125 128.34765625 C-103.50741803 113.63931051 -91.93954916 105.02929183 -75.97265625 99.578125 C-70.66695801 98.31486351 -65.48295699 98.25623324 -60.05078125 98.11328125 C-55.73559803 97.9552411 -52.06925785 97.81959147 -48.19921875 95.6796875 C-45.84557678 91.67849615 -45.66097943 87.22033422 -45.19921875 82.6796875 C-45.79863281 82.4115625 -46.39804687 82.1434375 -47.015625 81.8671875 C-54.04736784 78.04312699 -58.35400814 69.35548278 -60.74560547 61.99902344 C-61.38021838 58.75423192 -61.40215801 55.53260259 -61.4375 52.23828125 C-61.44557175 51.51536392 -61.45364349 50.79244659 -61.46195984 50.04762268 C-61.47576684 48.51704275 -61.48650408 46.98643246 -61.49438477 45.45581055 C-61.50584856 43.90916759 -61.52621075 42.36256242 -61.5559082 40.81616211 C-61.82075287 27.00429096 -60.14019022 16.09310118 -50.19921875 5.6796875 C-36.56180287 -7.33901764 -16.26144416 -9.76264321 0 0 Z M-38.19921875 17.6796875 C-46.1483341 28.37826158 -46.2959599 40.62854074 -44.890625 53.5078125 C-43.96211255 58.339364 -42.38234994 61.84360632 -39.19921875 65.6796875 C-38.45285156 66.10894531 -37.70648438 66.53820312 -36.9375 66.98046875 C-33.73661476 69.0055186 -32.17078014 70.39238555 -30.19921875 73.6796875 C-29.46430287 77.68569957 -29.37818551 81.61359793 -29.38671875 85.6796875 C-29.38768555 86.72495605 -29.38865234 87.77022461 -29.38964844 88.84716797 C-29.6380789 96.31546091 -31.01054197 101.98453186 -35.9453125 107.703125 C-36.50347656 108.14914063 -37.06164062 108.59515625 -37.63671875 109.0546875 C-38.47009766 109.74691406 -38.47009766 109.74691406 -39.3203125 110.453125 C-43.15871578 112.95886019 -46.78936309 113.92123921 -51.33203125 114.171875 C-52.29810303 114.2347168 -53.2641748 114.29755859 -54.25952148 114.36230469 C-55.27087158 114.42579102 -56.28222168 114.48927734 -57.32421875 114.5546875 C-71.74921159 115.6548893 -81.88658468 118.76866009 -91.94921875 129.4921875 C-102.80033771 142.56790943 -101.51287447 159.69354826 -101.5 175.73046875 C-101.503894 177.7592121 -101.50823011 179.78795465 -101.51298523 181.81669617 C-101.52040776 186.04685118 -101.52018323 190.27692264 -101.51489258 194.50708008 C-101.5090754 199.91837954 -101.52610232 205.32933922 -101.54923725 210.74058247 C-101.56398147 214.92109665 -101.56484582 219.10152886 -101.56172752 223.28206444 C-101.56223947 225.27749497 -101.56745336 227.27293024 -101.57753944 229.26833534 C-101.58991237 232.05582416 -101.58310918 234.84264833 -101.5715332 237.63012695 C-101.57917694 238.44637543 -101.58682068 239.2626239 -101.59469604 240.10360718 C-101.53662409 246.44854155 -100.37334443 251.25709031 -96.01171875 256.1171875 C-92.34963373 258.15167918 -89.24087698 258.58925834 -85.19921875 257.6796875 C-80.33675333 254.6181352 -78.57165023 252.16801387 -77.19921875 246.6796875 C-76.92239163 243.52894657 -76.91871636 240.39505052 -76.92797852 237.23364258 C-76.92275177 236.30124252 -76.91752502 235.36884247 -76.91213989 234.40818787 C-76.90192779 232.39154041 -76.89612437 230.3748668 -76.8942585 228.35819435 C-76.89058966 225.1684961 -76.87385116 221.97910727 -76.85350037 218.78947449 C-76.79811981 209.72372167 -76.76732813 200.65792461 -76.74291992 191.59204102 C-76.72707603 186.04130165 -76.69689808 180.490785 -76.65815544 174.94016075 C-76.64648519 172.82422937 -76.64057492 170.70825825 -76.64047432 168.59229469 C-76.640283 165.64047466 -76.62207261 162.68927314 -76.59985352 159.73754883 C-76.60671928 158.42136063 -76.60671928 158.42136063 -76.61372375 157.07858276 C-76.54191803 151.10053172 -76.54191803 151.10053172 -74.79623318 148.95678234 C-72.80775747 147.36664513 -71.72129164 147.27602758 -69.19921875 147.3046875 C-68.51859375 147.29695312 -67.83796875 147.28921875 -67.13671875 147.28125 C-64.58232572 147.80654857 -63.80503987 148.63968927 -62.19921875 150.6796875 C-61.82366323 152.91423953 -61.82366323 152.91423953 -61.82283783 155.58396339 C-61.81523139 156.60153776 -61.80762494 157.61911212 -61.799788 158.66752207 C-61.80668193 159.78880137 -61.81357587 160.91008067 -61.82067871 162.06533813 C-61.81614858 163.25394861 -61.81161845 164.44255908 -61.80695105 165.66718805 C-61.79731281 168.97247111 -61.80112034 172.27725395 -61.81045604 175.58250594 C-61.81723811 179.14505001 -61.80672696 182.70754623 -61.798172 186.27008057 C-61.7855897 192.44640705 -61.78363803 198.62266354 -61.78852844 204.79899979 C-61.79532963 213.73879146 -61.78283058 222.67847739 -61.76502126 231.61825018 C-61.73635057 246.13465564 -61.71885359 260.6510497 -61.71044922 275.16748047 C-61.70994204 276.03668268 -61.70943486 276.9058849 -61.70891231 277.80142657 C-61.70538612 283.96918007 -61.70225719 290.13693375 -61.69921875 296.3046875 C-61.69575152 303.33968116 -61.6921018 310.37467466 -61.68798828 317.40966797 C-61.68748567 318.27599388 -61.68698305 319.14231979 -61.6864652 320.034898 C-61.67771578 334.48904685 -61.6572663 348.9431566 -61.62850618 363.39727914 C-61.61133688 372.3116744 -61.60473661 381.22595889 -61.61181223 390.14036851 C-61.61599692 396.2530389 -61.6096245 402.36563957 -61.5950135 408.47829373 C-61.58696819 412.00345143 -61.5838228 415.52843616 -61.59383583 419.05359268 C-61.60461308 422.87986576 -61.59222782 426.70586983 -61.57775879 430.53213501 C-61.58465272 431.64002998 -61.59154666 432.74792495 -61.5986495 433.8893925 C-61.54970057 440.5383667 -61.42358894 448.0808293 -56.74732828 453.30020487 C-52.00534955 457.36169659 -48.80196473 458.03566691 -42.73828125 457.95703125 C-38.97461473 457.54592306 -36.98131688 456.1968239 -34.19921875 453.6796875 C-29.58800108 447.82219478 -29.07671043 443.16528858 -29.06118774 435.87252808 C-29.05695582 434.86474106 -29.05695582 434.86474106 -29.05263841 433.8365947 C-29.04432709 431.59271147 -29.04295719 429.34887781 -29.04150391 427.10498047 C-29.03683336 425.49336611 -29.0316894 423.88175306 -29.02610779 422.2701416 C-29.01484545 418.80362955 -29.00640253 415.33712601 -28.99998856 411.87060165 C-28.98929874 406.39173946 -28.96905354 400.91293877 -28.9468689 395.43411255 C-28.88497022 379.85600587 -28.83086768 364.27790372 -28.79785156 348.69970703 C-28.77953095 340.09307993 -28.75063297 331.48655673 -28.70984685 322.88000596 C-28.68874454 318.32537168 -28.67331493 313.77086846 -28.67103958 309.21618271 C-28.66889884 304.93646303 -28.65308878 300.65701683 -28.62664986 296.37738037 C-28.61943509 294.80479565 -28.61736639 293.23217786 -28.62075233 291.65958023 C-28.62462955 289.51701993 -28.61025128 287.37534075 -28.59121704 285.23287964 C-28.58790689 284.03274672 -28.58459675 282.83261379 -28.58118629 281.5961132 C-28.19921875 278.6796875 -28.19921875 278.6796875 -26.79581261 276.79501534 C-24.80531787 275.40452133 -23.61335747 275.27725411 -21.19921875 275.3046875 C-20.51859375 275.29695313 -19.83796875 275.28921875 -19.13671875 275.28125 C-16.52696861 275.81793249 -15.79333537 276.53953323 -14.19921875 278.6796875 C-13.82283783 281.58493996 -13.82283783 281.58493996 -13.82067871 285.20596313 C-13.81614858 285.8718789 -13.81161845 286.53779467 -13.80695105 287.22388971 C-13.7953037 289.46016697 -13.80498322 291.69584873 -13.81445312 293.93212891 C-13.81034888 295.53371569 -13.80488888 297.13529949 -13.798172 298.73687744 C-13.78643204 302.1892733 -13.78396811 305.64150923 -13.78852844 309.09392166 C-13.79533109 314.55751974 -13.77948034 320.02090712 -13.76013184 325.48446655 C-13.72223444 337.09119546 -13.70948055 348.69790623 -13.69921875 360.3046875 C-13.68814431 372.81434521 -13.67271597 385.32390601 -13.62850618 397.83349741 C-13.61018628 403.25942017 -13.60624506 408.68510268 -13.61344147 414.11104894 C-13.61496855 417.496337 -13.60414582 420.88150612 -13.5900631 424.26676178 C-13.58607637 425.83038508 -13.58715814 427.39403129 -13.59383583 428.95764542 C-14.09092371 441.95256672 -14.09092371 441.95256672 -8.7473526 453.28504372 C-4.02583198 457.3733965 -0.79696169 458.03560203 5.26171875 457.95703125 C9.02538527 457.54592306 11.01868312 456.1968239 13.80078125 453.6796875 C17.9604687 448.3957602 18.92336432 444.10757354 18.93106651 437.51255608 C18.93650303 435.9746711 18.93650303 435.9746711 18.94204938 434.40571773 C18.94044701 432.72639823 18.94044701 432.72639823 18.93881226 431.01315308 C18.94304418 429.221324 18.94304418 429.221324 18.94736159 427.39329636 C18.95425363 424.08111027 18.95673333 420.76897324 18.95741272 417.45678353 C18.95925457 413.88349546 18.96686244 410.31021945 18.97389221 406.73693848 C18.98541074 400.54646836 18.99365856 394.35600097 19.00001144 388.16552353 C19.01033882 378.38524327 19.03090127 368.60499696 19.0531311 358.82473755 C19.06061038 355.4789487 19.06802412 352.13315972 19.07541847 348.78737068 C19.07726904 347.95128514 19.0791196 347.11519959 19.08102625 346.25377812 C19.10194728 336.73966397 19.1207801 327.22554608 19.13867188 317.71142578 C19.14031006 316.84178071 19.14194824 315.97213563 19.14363606 315.07613768 C19.16994774 300.96852712 19.18857758 286.86091395 19.20526378 272.75328921 C19.22266625 258.27423663 19.25148887 243.79523562 19.29015315 229.31622422 C19.31358341 220.38173203 19.32755042 211.44732387 19.32948078 202.51280071 C19.33158537 196.3955089 19.34447418 190.27830084 19.36596011 184.16104661 C19.37802206 180.62852648 19.38511867 177.09617265 19.37924767 173.56363297 C19.3730059 169.73972707 19.38971466 165.91612278 19.40878296 162.09225464 C19.40325326 160.96824686 19.39772357 159.84423908 19.39202631 158.68617046 C19.40528607 157.15610872 19.40528607 157.15610872 19.41881371 155.59513664 C19.42017023 154.71195948 19.42152676 153.82878231 19.4229244 152.9188422 C19.87991289 150.21075863 20.64155545 149.32583482 22.80078125 147.6796875 C24.73828125 147.28125 24.73828125 147.28125 26.80078125 147.3046875 C27.48140625 147.29695312 28.16203125 147.28921875 28.86328125 147.28125 C31.38981132 147.80081868 32.18440043 148.69461654 33.80078125 150.6796875 C34.09537905 153.76013927 34.20717764 156.64011921 34.18554688 159.72167969 C34.19091965 160.64721649 34.19629242 161.5727533 34.201828 162.52633667 C34.21161855 164.538113 34.21454631 166.54993163 34.21147156 168.56172943 C34.20700094 171.74816576 34.22097404 174.93404448 34.23986816 178.12042236 C34.2767015 184.89016819 34.2903617 191.65985623 34.30078125 198.4296875 C34.31286172 206.26088541 34.33445663 214.09181305 34.38078308 221.92288971 C34.39434132 225.05764915 34.39018357 228.19206605 34.38537598 231.32684326 C34.39472015 233.25793897 34.40488986 235.18903092 34.41601562 237.12011719 C34.40679329 238.42180344 34.40679329 238.42180344 34.39738464 239.74978638 C34.46297493 246.25107661 35.51116222 251.12839773 39.98828125 256.1171875 C43.65036627 258.15167918 46.75912302 258.58925834 50.80078125 257.6796875 C55.66256011 254.61856748 57.41787696 252.16321353 58.80078125 246.6796875 C59.07205337 243.69809233 59.07434693 240.73602826 59.05957031 237.74365234 C59.06307495 236.86472321 59.06657959 235.98579407 59.07019043 235.08023071 C59.07896901 232.18361432 59.07316918 229.28724376 59.06640625 226.390625 C59.06775474 224.36528476 59.0696968 222.33994484 59.07220459 220.31460571 C59.07515123 216.06956908 59.07087566 211.82461667 59.06152344 207.57958984 C59.05017297 202.16643181 59.05666331 196.75347309 59.06866837 191.34032249 C59.07593681 187.15530937 59.07357552 182.97034252 59.06841278 178.78532791 C59.06708775 176.79124553 59.06868334 174.79715882 59.07337189 172.80308151 C59.29745226 148.01783015 59.29745226 148.01783015 47.55078125 126.8046875 C36.86323314 117.13387516 26.19926856 115.37831627 12.33789062 114.64453125 C5.0413898 114.13603086 -0.60415217 112.78199399 -6.22265625 107.93359375 C-6.66867187 107.37542969 -7.1146875 106.81726563 -7.57421875 106.2421875 C-8.26644531 105.40880859 -8.26644531 105.40880859 -8.97265625 104.55859375 C-14.44936411 96.16911451 -14.09070542 83.19868824 -12.19921875 73.6796875 C-9.76963527 69.04636915 -5.40418491 66.58030669 -1.19921875 63.6796875 C4.82706336 55.20145106 3.68625582 41.11661429 2.17578125 31.3671875 C0.46529629 24.09463606 -3.87137117 17.6297529 -10.2265625 13.62109375 C-19.85185876 9.02763553 -30.17740555 10.56944398 -38.19921875 17.6796875 Z " fill="#848484" transform="translate(421.19921875,21.3203125)"/>
<path d="M0 0 C9.73074384 6.78371857 15.08892808 15.54412799 18.80078125 26.6796875 C19.05398237 31.25057888 19.0717644 35.82390166 19.09594727 40.40087891 C19.10739504 41.90585791 19.12773103 43.41079866 19.1574707 44.91552734 C19.37930532 56.15101708 18.85301507 66.68510258 11.23828125 75.6796875 C10.65949219 76.3809375 10.08070313 77.0821875 9.484375 77.8046875 C6.30154482 81.34937076 6.30154482 81.34937076 4.80078125 82.6796875 C4.14078125 82.6796875 3.48078125 82.6796875 2.80078125 82.6796875 C3.0566553 84.45274414 3.33105864 86.22313358 3.61328125 87.9921875 C3.76410156 88.97832031 3.91492188 89.96445313 4.0703125 90.98046875 C4.84849367 93.85599382 5.44579469 94.91772419 7.80078125 96.6796875 C10.47461375 97.570965 12.08185009 97.8117773 14.828125 97.85546875 C30.85347142 98.28073153 45.89999183 101.61682026 58.1171875 112.8671875 C69.25154591 124.85406059 75.09636097 138.27924351 75.10717773 154.50512695 C75.11550125 155.57273254 75.12382477 156.64033813 75.13240051 157.74029541 C75.15642994 161.25789065 75.1652639 164.77530022 75.171875 168.29296875 C75.18084632 170.74765578 75.18996825 173.20234226 75.19923401 175.6570282 C75.21570713 180.79895352 75.22342115 185.94081385 75.22631836 191.08276367 C75.23170186 197.65652188 75.26938895 204.22966557 75.31506252 210.80325031 C75.34487066 215.87261665 75.35204274 220.94183562 75.35304451 226.01128197 C75.35723888 228.43408207 75.36964149 230.85688292 75.39056206 233.27959633 C75.41755419 236.67553995 75.41262661 240.07006671 75.40014648 243.46606445 C75.42239792 244.95253731 75.42239792 244.95253731 75.44509888 246.46903992 C75.36293753 254.35898715 73.23884485 260.93716989 67.82631588 266.82899952 C60.07642797 274.1207669 53.59671869 275.01172382 43.32421875 274.98046875 C39.99572423 274.69632897 37.82797458 273.98256713 34.80078125 272.6796875 C34.80631201 274.04190713 34.80631201 274.04190713 34.8119545 275.43164635 C34.90037126 297.5499012 34.96652288 319.6681255 35.00802994 341.78652 C35.02863703 352.48290741 35.05672224 363.1791767 35.10253906 373.87548828 C35.14246351 383.20063852 35.16822753 392.5257032 35.17713523 401.85093653 C35.18234047 406.78656969 35.19453608 411.7219581 35.22370148 416.65751266 C35.25095919 421.30815037 35.25920538 425.95844374 35.25321198 430.60915375 C35.25430759 432.31105804 35.26219961 434.01297448 35.27760315 435.71480942 C35.37559803 447.10545988 34.79340471 457.30561327 26.64453125 466.078125 C17.38292139 474.12316747 8.54207567 475.41621434 -3.29345703 474.86328125 C-10.17802906 474.20004807 -15.27922361 470.22122148 -20.19921875 465.6796875 C-23.58042205 467.16741695 -26.32456394 469.20839182 -29.22265625 471.4609375 C-36.88420038 476.18505167 -47.62333766 475.94922834 -56.21875 473.9921875 C-66.01801252 470.37955616 -71.64767571 463.93550992 -76.19921875 454.6796875 C-77.44099889 450.95473467 -77.32222137 447.34340085 -77.31947327 443.44110107 C-77.32032769 442.71081105 -77.32118212 441.98052104 -77.32206243 441.22810102 C-77.32370977 438.78062313 -77.31820806 436.33321376 -77.31274414 433.88574219 C-77.31246208 432.13147992 -77.31262037 430.37721753 -77.31318665 428.62295532 C-77.31347389 423.858871 -77.30758888 419.09481178 -77.30061269 414.3307333 C-77.29436708 409.35259058 -77.29377439 404.3744473 -77.29258728 399.39630127 C-77.28947754 389.96869843 -77.28126894 380.54110716 -77.27123779 371.11350942 C-77.2600656 360.38085338 -77.25456341 349.6481968 -77.24954236 338.9155364 C-77.23908604 316.83691364 -77.22149348 294.7583013 -77.19921875 272.6796875 C-77.95372314 273.00203369 -78.70822754 273.32437988 -79.4855957 273.65649414 C-85.73697661 276.01362751 -93.77204494 275.65305919 -100.15625 273.83984375 C-107.82838383 270.33965366 -113.30348237 264.60608044 -116.55630684 256.82196617 C-117.82516237 252.5939497 -117.62311036 248.26618427 -117.60327148 243.88598633 C-117.61013474 242.82159332 -117.61699799 241.75720032 -117.62406921 240.66055298 C-117.64232361 237.15247129 -117.6385001 233.64483762 -117.6328125 230.13671875 C-117.63737623 227.68682206 -117.64268237 225.23692664 -117.6486969 222.78703308 C-117.65762636 217.65346069 -117.65520813 212.52004386 -117.64526367 207.38647461 C-117.63379792 200.83090837 -117.65395028 194.2758827 -117.68318081 187.72038746 C-117.70159612 182.65950648 -117.70123928 177.59875362 -117.69554329 172.53784752 C-117.6953906 170.12230358 -117.70139115 167.70675067 -117.71383476 165.29123878 C-117.82047842 141.18774073 -117.82047842 141.18774073 -113.19921875 131.6796875 C-112.70679688 130.58011719 -112.214375 129.48054687 -111.70703125 128.34765625 C-103.50741803 113.63931051 -91.93954916 105.02929183 -75.97265625 99.578125 C-70.66695801 98.31486351 -65.48295699 98.25623324 -60.05078125 98.11328125 C-55.73559803 97.9552411 -52.06925785 97.81959147 -48.19921875 95.6796875 C-45.84557678 91.67849615 -45.66097943 87.22033422 -45.19921875 82.6796875 C-45.79863281 82.4115625 -46.39804688 82.1434375 -47.015625 81.8671875 C-54.04736784 78.04312699 -58.35400814 69.35548278 -60.74560547 61.99902344 C-61.38021838 58.75423192 -61.40215801 55.53260259 -61.4375 52.23828125 C-61.44557175 51.51536392 -61.45364349 50.79244659 -61.46195984 50.04762268 C-61.47576684 48.51704275 -61.48650408 46.98643246 -61.49438477 45.45581055 C-61.50584856 43.90916759 -61.52621075 42.36256242 -61.5559082 40.81616211 C-61.82075287 27.00429096 -60.14019022 16.09310118 -50.19921875 5.6796875 C-36.56180287 -7.33901764 -16.26144416 -9.76264321 0 0 Z M-38.19921875 17.6796875 C-46.1483341 28.37826158 -46.2959599 40.62854074 -44.890625 53.5078125 C-43.96211255 58.339364 -42.38234994 61.84360632 -39.19921875 65.6796875 C-38.45285156 66.10894531 -37.70648438 66.53820312 -36.9375 66.98046875 C-33.73661476 69.0055186 -32.17078014 70.39238555 -30.19921875 73.6796875 C-29.46430287 77.68569957 -29.37818551 81.61359793 -29.38671875 85.6796875 C-29.38768555 86.72495605 -29.38865234 87.77022461 -29.38964844 88.84716797 C-29.6380789 96.31546091 -31.01054197 101.98453186 -35.9453125 107.703125 C-36.50347656 108.14914063 -37.06164062 108.59515625 -37.63671875 109.0546875 C-38.47009766 109.74691406 -38.47009766 109.74691406 -39.3203125 110.453125 C-43.15871578 112.95886019 -46.78936309 113.92123921 -51.33203125 114.171875 C-52.29810303 114.2347168 -53.2641748 114.29755859 -54.25952148 114.36230469 C-55.27087158 114.42579102 -56.28222168 114.48927734 -57.32421875 114.5546875 C-71.74921159 115.6548893 -81.88658468 118.76866009 -91.94921875 129.4921875 C-102.80033771 142.56790943 -101.51287447 159.69354826 -101.5 175.73046875 C-101.503894 177.7592121 -101.50823011 179.78795465 -101.51298523 181.81669617 C-101.52040776 186.04685118 -101.52018323 190.27692264 -101.51489258 194.50708008 C-101.5090754 199.91837954 -101.52610232 205.32933922 -101.54923725 210.74058247 C-101.56398147 214.92109665 -101.56484582 219.10152886 -101.56172752 223.28206444 C-101.56223947 225.27749497 -101.56745336 227.27293024 -101.57753944 229.26833534 C-101.58991237 232.05582416 -101.58310918 234.84264833 -101.5715332 237.63012695 C-101.57917694 238.44637543 -101.58682068 239.2626239 -101.59469604 240.10360718 C-101.53662409 246.44854155 -100.37334443 251.25709031 -96.01171875 256.1171875 C-92.34963373 258.15167918 -89.24087698 258.58925834 -85.19921875 257.6796875 C-80.33675333 254.6181352 -78.57165023 252.16801387 -77.19921875 246.6796875 C-76.92239163 243.52894657 -76.91871636 240.39505052 -76.92797852 237.23364258 C-76.92275177 236.30124252 -76.91752502 235.36884247 -76.91213989 234.40818787 C-76.90192779 232.39154041 -76.89612437 230.3748668 -76.8942585 228.35819435 C-76.89058966 225.1684961 -76.87385116 221.97910727 -76.85350037 218.78947449 C-76.79811981 209.72372167 -76.76732813 200.65792461 -76.74291992 191.59204102 C-76.72707603 186.04130165 -76.69689808 180.490785 -76.65815544 174.94016075 C-76.64648519 172.82422937 -76.64057492 170.70825825 -76.64047432 168.59229469 C-76.640283 165.64047466 -76.62207261 162.68927314 -76.59985352 159.73754883 C-76.60671928 158.42136063 -76.60671928 158.42136063 -76.61372375 157.07858276 C-76.54191803 151.10053172 -76.54191803 151.10053172 -74.79623318 148.95678234 C-72.80775747 147.36664513 -71.72129164 147.27602758 -69.19921875 147.3046875 C-68.51859375 147.29695312 -67.83796875 147.28921875 -67.13671875 147.28125 C-64.58232572 147.80654857 -63.80503987 148.63968927 -62.19921875 150.6796875 C-61.82366323 152.91423953 -61.82366323 152.91423953 -61.82283783 155.58396339 C-61.81523139 156.60153776 -61.80762494 157.61911212 -61.799788 158.66752207 C-61.80668193 159.78880137 -61.81357587 160.91008067 -61.82067871 162.06533813 C-61.81614858 163.25394861 -61.81161845 164.44255908 -61.80695105 165.66718805 C-61.79731281 168.97247111 -61.80112034 172.27725395 -61.81045604 175.58250594 C-61.81723811 179.14505001 -61.80672696 182.70754623 -61.798172 186.27008057 C-61.7855897 192.44640705 -61.78363803 198.62266354 -61.78852844 204.79899979 C-61.79532963 213.73879146 -61.78283058 222.67847739 -61.76502126 231.61825018 C-61.73635057 246.13465564 -61.71885359 260.6510497 -61.71044922 275.16748047 C-61.70994204 276.03668268 -61.70943486 276.9058849 -61.70891231 277.80142657 C-61.70538612 283.96918007 -61.70225719 290.13693375 -61.69921875 296.3046875 C-61.69575152 303.33968116 -61.6921018 310.37467466 -61.68798828 317.40966797 C-61.68748567 318.27599388 -61.68698305 319.14231979 -61.6864652 320.034898 C-61.67771578 334.48904685 -61.6572663 348.9431566 -61.62850618 363.39727914 C-61.61133688 372.3116744 -61.60473661 381.22595889 -61.61181223 390.14036851 C-61.61599692 396.2530389 -61.6096245 402.36563957 -61.5950135 408.47829373 C-61.58696819 412.00345143 -61.5838228 415.52843616 -61.59383583 419.05359268 C-61.60461308 422.87986576 -61.59222782 426.70586983 -61.57775879 430.53213501 C-61.58465272 431.64002998 -61.59154666 432.74792495 -61.5986495 433.8893925 C-61.54970057 440.5383667 -61.42358894 448.0808293 -56.74732828 453.30020487 C-52.00534955 457.36169659 -48.80196473 458.03566691 -42.73828125 457.95703125 C-38.97461473 457.54592306 -36.98131688 456.1968239 -34.19921875 453.6796875 C-29.58800108 447.82219478 -29.07671043 443.16528858 -29.06118774 435.87252808 C-29.05695582 434.86474106 -29.05695582 434.86474106 -29.05263841 433.8365947 C-29.04432709 431.59271147 -29.04295719 429.34887781 -29.04150391 427.10498047 C-29.03683336 425.49336611 -29.0316894 423.88175306 -29.02610779 422.2701416 C-29.01484545 418.80362955 -29.00640253 415.33712601 -28.99998856 411.87060165 C-28.98929874 406.39173946 -28.96905354 400.91293877 -28.9468689 395.43411255 C-28.88497022 379.85600587 -28.83086768 364.27790372 -28.79785156 348.69970703 C-28.77953095 340.09307993 -28.75063297 331.48655673 -28.70984685 322.88000596 C-28.68874454 318.32537168 -28.67331493 313.77086846 -28.67103958 309.21618271 C-28.66889884 304.93646303 -28.65308878 300.65701683 -28.62664986 296.37738037 C-28.61943509 294.80479565 -28.61736639 293.23217786 -28.62075233 291.65958023 C-28.62462955 289.51701993 -28.61025128 287.37534075 -28.59121704 285.23287964 C-28.58790689 284.03274672 -28.58459675 282.83261379 -28.58118629 281.5961132 C-28.19921875 278.6796875 -28.19921875 278.6796875 -26.79581261 276.79501534 C-24.80531787 275.40452133 -23.61335747 275.27725411 -21.19921875 275.3046875 C-20.51859375 275.29695313 -19.83796875 275.28921875 -19.13671875 275.28125 C-16.52696861 275.81793249 -15.79333537 276.53953323 -14.19921875 278.6796875 C-13.82283783 281.58493996 -13.82283783 281.58493996 -13.82067871 285.20596313 C-13.81614858 285.8718789 -13.81161845 286.53779467 -13.80695105 287.22388971 C-13.7953037 289.46016697 -13.80498322 291.69584873 -13.81445312 293.93212891 C-13.81034888 295.53371569 -13.80488888 297.13529949 -13.798172 298.73687744 C-13.78643204 302.1892733 -13.78396811 305.64150923 -13.78852844 309.09392166 C-13.79533109 314.55751974 -13.77948034 320.02090712 -13.76013184 325.48446655 C-13.72223444 337.09119546 -13.70948055 348.69790623 -13.69921875 360.3046875 C-13.68814431 372.81434521 -13.67271597 385.32390601 -13.62850618 397.83349741 C-13.61018628 403.25942017 -13.60624506 408.68510268 -13.61344147 414.11104894 C-13.61496855 417.496337 -13.60414582 420.88150612 -13.5900631 424.26676178 C-13.58607637 425.83038508 -13.58715814 427.39403129 -13.59383583 428.95764542 C-14.09092371 441.95256672 -14.09092371 441.95256672 -8.7473526 453.28504372 C-4.02583198 457.3733965 -0.79696169 458.03560203 5.26171875 457.95703125 C9.02538527 457.54592306 11.01868312 456.1968239 13.80078125 453.6796875 C17.9604687 448.3957602 18.92336432 444.10757354 18.93106651 437.51255608 C18.93650303 435.9746711 18.93650303 435.9746711 18.94204938 434.40571773 C18.94044701 432.72639823 18.94044701 432.72639823 18.93881226 431.01315308 C18.94304418 429.221324 18.94304418 429.221324 18.94736159 427.39329636 C18.95425363 424.08111027 18.95673333 420.76897324 18.95741272 417.45678353 C18.95925457 413.88349546 18.96686244 410.31021945 18.97389221 406.73693848 C18.98541074 400.54646836 18.99365856 394.35600097 19.00001144 388.16552353 C19.01033882 378.38524327 19.03090127 368.60499696 19.0531311 358.82473755 C19.06061038 355.4789487 19.06802412 352.13315972 19.07541847 348.78737068 C19.07726904 347.95128514 19.0791196 347.11519959 19.08102625 346.25377812 C19.10194728 336.73966397 19.1207801 327.22554608 19.13867188 317.71142578 C19.14031006 316.84178071 19.14194824 315.97213563 19.14363606 315.07613768 C19.16994774 300.96852712 19.18857758 286.86091395 19.20526378 272.75328921 C19.22266625 258.27423663 19.25148887 243.79523562 19.29015315 229.31622422 C19.31358341 220.38173203 19.32755042 211.44732387 19.32948078 202.51280071 C19.33158537 196.3955089 19.34447418 190.27830084 19.36596011 184.16104661 C19.37802206 180.62852648 19.38511867 177.09617265 19.37924767 173.56363297 C19.3730059 169.73972707 19.38971466 165.91612278 19.40878296 162.09225464 C19.40325326 160.96824686 19.39772357 159.84423908 19.39202631 158.68617046 C19.40528607 157.15610872 19.40528607 157.15610872 19.41881371 155.59513664 C19.42017023 154.71195948 19.42152676 153.82878231 19.4229244 152.9188422 C19.87991289 150.21075863 20.64155545 149.32583482 22.80078125 147.6796875 C24.73828125 147.28125 24.73828125 147.28125 26.80078125 147.3046875 C27.48140625 147.29695312 28.16203125 147.28921875 28.86328125 147.28125 C31.38981132 147.80081868 32.18440043 148.69461654 33.80078125 150.6796875 C34.09537905 153.76013927 34.20717764 156.64011921 34.18554688 159.72167969 C34.19091965 160.64721649 34.19629242 161.5727533 34.201828 162.52633667 C34.21161855 164.538113 34.21454631 166.54993163 34.21147156 168.56172943 C34.20700094 171.74816576 34.22097404 174.93404448 34.23986816 178.12042236 C34.2767015 184.89016819 34.2903617 191.65985623 34.30078125 198.4296875 C34.31286172 206.26088541 34.33445663 214.09181305 34.38078308 221.92288971 C34.39434132 225.05764915 34.39018357 228.19206605 34.38537598 231.32684326 C34.39472015 233.25793897 34.40488986 235.18903092 34.41601562 237.12011719 C34.40679329 238.42180344 34.40679329 238.42180344 34.39738464 239.74978638 C34.46297493 246.25107661 35.51116222 251.12839773 39.98828125 256.1171875 C43.65036627 258.15167918 46.75912302 258.58925834 50.80078125 257.6796875 C55.66256011 254.61856748 57.41787696 252.16321353 58.80078125 246.6796875 C59.07205337 243.69809233 59.07434693 240.73602826 59.05957031 237.74365234 C59.06307495 236.86472321 59.06657959 235.98579407 59.07019043 235.08023071 C59.07896901 232.18361432 59.07316918 229.28724376 59.06640625 226.390625 C59.06775474 224.36528476 59.0696968 222.33994484 59.07220459 220.31460571 C59.07515123 216.06956908 59.07087566 211.82461667 59.06152344 207.57958984 C59.05017297 202.16643181 59.05666331 196.75347309 59.06866837 191.34032249 C59.07593681 187.15530937 59.07357552 182.97034252 59.06841278 178.78532791 C59.06708775 176.79124553 59.06868334 174.79715882 59.07337189 172.80308151 C59.29745226 148.01783015 59.29745226 148.01783015 47.55078125 126.8046875 C36.86323314 117.13387516 26.19926856 115.37831627 12.33789062 114.64453125 C5.0413898 114.13603086 -0.60415217 112.78199399 -6.22265625 107.93359375 C-6.66867188 107.37542969 -7.1146875 106.81726563 -7.57421875 106.2421875 C-8.26644531 105.40880859 -8.26644531 105.40880859 -8.97265625 104.55859375 C-14.44936411 96.16911451 -14.09070542 83.19868824 -12.19921875 73.6796875 C-9.76963527 69.04636915 -5.40418491 66.58030669 -1.19921875 63.6796875 C4.82706336 55.20145106 3.68625582 41.11661429 2.17578125 31.3671875 C0.46529629 24.09463606 -3.87137117 17.6297529 -10.2265625 13.62109375 C-19.85185876 9.02763553 -30.17740555 10.56944398 -38.19921875 17.6796875 Z " fill="#848484" transform="translate(133.19921875,21.3203125)"/>
<path d="M0 0 C2.55721732 3.33213167 3.0657187 5.12922718 2.75 9.3125 C1 13 1 13 -8 22 C30.28 22 68.56 22 108 22 C105.03 19.03 102.06 16.06 99 13 C97.39579482 9.79158965 97.52537255 6.4806013 98 3 C99.5 0.5 99.5 0.5 102 -1 C105.31334415 -1.60744643 106.86695412 -1.84274854 110 -1 C111.81567383 0.25341797 111.81567383 0.25341797 113.64453125 1.9296875 C114.33724121 2.56334229 115.02995117 3.19699707 115.74365234 3.84985352 C119.86745836 7.77956133 123.91897234 11.77535368 127.9375 15.8125 C128.79923828 16.67037109 129.66097656 17.52824219 130.54882812 18.41210938 C131.36673828 19.23130859 132.18464844 20.05050781 133.02734375 20.89453125 C133.76718506 21.63550049 134.50702637 22.37646973 135.26928711 23.13989258 C138.06363216 26.14315325 138.53103299 28.6957825 138.46484375 32.81054688 C137.89158641 35.51063711 136.93126973 36.63858291 135.0625 38.65625 C134.42634766 39.34799316 133.79019531 40.03973633 133.13476562 40.75244141 C132.07805664 41.86498291 132.07805664 41.86498291 131 43 C130.25943359 43.78938965 129.51886719 44.5787793 128.75585938 45.39208984 C126.36300665 47.9127404 123.93629827 50.39636479 121.5 52.875 C120.68402344 53.72835937 119.86804688 54.58171875 119.02734375 55.4609375 C111.35680345 63.24228817 111.35680345 63.24228817 105 64 C101.6875 63.0625 101.6875 63.0625 99 61 C97.20623971 57.19722819 96.6671178 55.11753308 97.875 51.0625 C100 48 100 48 108 40 C69.72 40 31.44 40 -8 40 C-5.03 42.97 -2.06 45.94 1 49 C2.60420518 52.20841035 2.47462745 55.5193987 2 59 C0.5 61.5 0.5 61.5 -2 63 C-5.31334415 63.60744643 -6.86695412 63.84274854 -10 63 C-11.81567383 61.74658203 -11.81567383 61.74658203 -13.64453125 60.0703125 C-14.33724121 59.43665771 -15.02995117 58.80300293 -15.74365234 58.15014648 C-19.86745836 54.22043867 -23.91897234 50.22464632 -27.9375 46.1875 C-28.79923828 45.32962891 -29.66097656 44.47175781 -30.54882812 43.58789062 C-31.77569336 42.3590918 -31.77569336 42.3590918 -33.02734375 41.10546875 C-33.76718506 40.36449951 -34.50702637 39.62353027 -35.26928711 38.86010742 C-38.06357455 35.85690867 -38.53146443 33.30424359 -38.46435547 29.18945312 C-37.892139 26.49143143 -36.93562513 25.3617625 -35.0703125 23.34375 C-34.43448242 22.65200684 -33.79865234 21.96026367 -33.14355469 21.24755859 C-32.43618164 20.50586426 -31.72880859 19.76416992 -31 19 C-30.24879883 18.21061035 -29.49759766 17.4212207 -28.72363281 16.60791016 C-26.29583667 14.09124376 -23.83989919 11.60530481 -21.375 9.125 C-20.12589844 7.84496094 -20.12589844 7.84496094 -18.8515625 6.5390625 C-18.04203125 5.724375 -17.2325 4.9096875 -16.3984375 4.0703125 C-15.67317871 3.33570801 -14.94791992 2.60110352 -14.20068359 1.84423828 C-9.33327104 -2.23479816 -5.82938252 -2.59083668 0 0 Z " fill="#563bdb" transform="translate(206,41)"/>
<path d="M0 0 C2.5 1.5 2.5 1.5 4 4 C4.79225541 8.32139315 4.99557096 10.51458695 2.53125 14.19140625 C0.76267444 16.22601754 -1.06131469 18.12773645 -3 20 C-3.99 20.99 -4.98 21.98 -6 23 C27 23 60 23 94 23 C91.03 20.03 88.06 17.06 85 14 C83.39579482 10.79158965 83.52537255 7.4806013 84 4 C85.5 1.5 85.5 1.5 88 0 C91.31334415 -0.60744643 92.86695412 -0.84274854 96 0 C97.81567383 1.25341797 97.81567383 1.25341797 99.64453125 2.9296875 C100.33724121 3.56334229 101.02995117 4.19699707 101.74365234 4.84985352 C105.86745836 8.77956133 109.91897234 12.77535368 113.9375 16.8125 C114.79923828 17.67037109 115.66097656 18.52824219 116.54882812 19.41210938 C117.36673828 20.23130859 118.18464844 21.05050781 119.02734375 21.89453125 C119.76718506 22.63550049 120.50702637 23.37646973 121.26928711 24.13989258 C124.06363216 27.14315325 124.53103299 29.6957825 124.46484375 33.81054688 C123.89158641 36.51063711 122.93126973 37.63858291 121.0625 39.65625 C120.42634766 40.34799316 119.79019531 41.03973633 119.13476562 41.75244141 C118.07805664 42.86498291 118.07805664 42.86498291 117 44 C116.25943359 44.78938965 115.51886719 45.5787793 114.75585938 46.39208984 C112.36300665 48.9127404 109.93629827 51.39636479 107.5 53.875 C106.68402344 54.72835937 105.86804688 55.58171875 105.02734375 56.4609375 C97.35680345 64.24228817 97.35680345 64.24228817 91 65 C87.6875 64.0625 87.6875 64.0625 85 62 C83.20623971 58.19722819 82.6671178 56.11753308 83.875 52.0625 C86 49 86 49 94 41 C61 41 28 41 -6 41 C-3.03 43.97 -0.06 46.94 3 50 C4.60420518 53.20841035 4.47462745 56.5193987 4 60 C2.5 62.5 2.5 62.5 0 64 C-3.31334415 64.60744643 -4.86695412 64.84274854 -8 64 C-9.81567383 62.74658203 -9.81567383 62.74658203 -11.64453125 61.0703125 C-12.33724121 60.43665771 -13.02995117 59.80300293 -13.74365234 59.15014648 C-17.86745836 55.22043867 -21.91897234 51.22464632 -25.9375 47.1875 C-26.79923828 46.32962891 -27.66097656 45.47175781 -28.54882812 44.58789062 C-29.77569336 43.3590918 -29.77569336 43.3590918 -31.02734375 42.10546875 C-31.76718506 41.36449951 -32.50702637 40.62353027 -33.26928711 39.86010742 C-36.06355746 36.85692703 -36.5321053 34.30411897 -36.46362305 30.18920898 C-35.89299646 27.49473368 -34.94276368 26.36495691 -33.08203125 24.34765625 C-32.44668457 23.65607422 -31.81133789 22.96449219 -31.15673828 22.25195312 C-27.21653436 18.13779862 -23.22490028 14.08128045 -19.1875 10.0625 C-18.32962891 9.20076172 -17.47175781 8.33902344 -16.58789062 7.45117188 C-15.76869141 6.63326172 -14.94949219 5.81535156 -14.10546875 4.97265625 C-13.36449951 4.23281494 -12.62353027 3.49297363 -11.86010742 2.73071289 C-8.32697114 -0.55664806 -4.64355339 -0.63321183 0 0 Z " fill="#563bdb" transform="translate(212,352)"/>
</svg>
